<?xml version="1.0" encoding="utf-8" standalone="no"?>
<!DOCTYPE svg PUBLIC "-//W3C//DTD SVG 1.1//EN"
  "http://www.w3.org/Graphics/SVG/1.1/DTD/svg11.dtd">
<svg xmlns:xlink="http://www.w3.org/1999/xlink" width="564.789375pt" height="316.203761pt" viewBox="0 0 564.789375 316.203761" xmlns="http://www.w3.org/2000/svg" version="1.1">
 <metadata>
  <rdf:RDF xmlns:dc="http://purl.org/dc/elements/1.1/" xmlns:cc="http://creativecommons.org/ns#" xmlns:rdf="http://www.w3.org/1999/02/22-rdf-syntax-ns#">
   <cc:Work>
    <dc:type rdf:resource="http://purl.org/dc/dcmitype/StillImage"/>
    <dc:date>2026-01-27T17:38:30.252317</dc:date>
    <dc:format>image/svg+xml</dc:format>
    <dc:creator>
     <cc:Agent>
      <dc:title>Matplotlib v3.10.8, https://matplotlib.org/</dc:title>
     </cc:Agent>
    </dc:creator>
   </cc:Work>
  </rdf:RDF>
 </metadata>
 <defs>
  <style type="text/css">*{stroke-linejoin: round; stroke-linecap: butt}</style>
 </defs>
 <g id="figure_1">
  <g id="patch_1">
   <path d="M 0 316.203761 
L 564.789375 316.203761 
L 564.789375 0 
L 0 0 
L 0 316.203761 
z
" style="fill: none; opacity: 0"/>
  </g>
  <g id="axes_1">
   <g id="patch_2">
    <path d="M 52.079375 279.470047 
L 557.589375 279.470047 
L 557.589375 32.353934 
L 52.079375 32.353934 
L 52.079375 279.470047 
z
" style="fill: none"/>
   </g>
   <g id="matplotlib.axis_1">
    <g id="xtick_1">
     <g id="line2d_1">
      <defs>
       <path id="me43fe91c1b" d="M 0 0 
L 0 3.5 
" style="stroke: #000000; stroke-width: 0.8"/>
      </defs>
      <g>
       <use xlink:href="#me43fe91c1b" x="99.676096" y="279.470047" style="stroke: #000000; stroke-width: 0.8"/>
      </g>
     </g>
     <g id="text_1">
      <!-- AND -->
      <g transform="translate(88.135985 298.191691) rotate(-10) scale(0.1 -0.1)">
       <defs>
        <path id="DejaVuSans-Bold-41" d="M 3419 850 
L 1538 850 
L 1241 0 
L 31 0 
L 1759 4666 
L 3194 4666 
L 4922 0 
L 3713 0 
L 3419 850 
z
M 1838 1716 
L 3116 1716 
L 2478 3572 
L 1838 1716 
z
" transform="scale(0.015625)"/>
        <path id="DejaVuSans-Bold-4e" d="M 588 4666 
L 1931 4666 
L 3628 1466 
L 3628 4666 
L 4769 4666 
L 4769 0 
L 3425 0 
L 1728 3200 
L 1728 0 
L 588 0 
L 588 4666 
z
" transform="scale(0.015625)"/>
        <path id="DejaVuSans-Bold-44" d="M 1791 3756 
L 1791 909 
L 2222 909 
Q 2959 909 3348 1275 
Q 3738 1641 3738 2338 
Q 3738 3031 3350 3393 
Q 2963 3756 2222 3756 
L 1791 3756 
z
M 588 4666 
L 1856 4666 
Q 2919 4666 3439 4514 
Q 3959 4363 4331 4000 
Q 4659 3684 4818 3271 
Q 4978 2859 4978 2338 
Q 4978 1809 4818 1395 
Q 4659 981 4331 666 
Q 3956 303 3431 151 
Q 2906 0 1856 0 
L 588 0 
L 588 4666 
z
" transform="scale(0.015625)"/>
       </defs>
       <use xlink:href="#DejaVuSans-Bold-41"/>
       <use xlink:href="#DejaVuSans-Bold-4e" transform="translate(77.392578 0)"/>
       <use xlink:href="#DejaVuSans-Bold-44" transform="translate(161.083984 0)"/>
      </g>
     </g>
    </g>
    <g id="xtick_2">
     <g id="line2d_2">
      <g>
       <use xlink:href="#me43fe91c1b" x="168.062189" y="279.470047" style="stroke: #000000; stroke-width: 0.8"/>
      </g>
     </g>
     <g id="text_2">
      <!-- AND_NOT -->
      <g transform="translate(142.354456 303.000157) rotate(-10) scale(0.1 -0.1)">
       <defs>
        <path id="DejaVuSans-Bold-5f" d="M 3200 -916 
L 3200 -1509 
L 0 -1509 
L 0 -916 
L 3200 -916 
z
" transform="scale(0.015625)"/>
        <path id="DejaVuSans-Bold-4f" d="M 2719 3878 
Q 2169 3878 1866 3472 
Q 1563 3066 1563 2328 
Q 1563 1594 1866 1187 
Q 2169 781 2719 781 
Q 3272 781 3575 1187 
Q 3878 1594 3878 2328 
Q 3878 3066 3575 3472 
Q 3272 3878 2719 3878 
z
M 2719 4750 
Q 3844 4750 4481 4106 
Q 5119 3463 5119 2328 
Q 5119 1197 4481 553 
Q 3844 -91 2719 -91 
Q 1597 -91 958 553 
Q 319 1197 319 2328 
Q 319 3463 958 4106 
Q 1597 4750 2719 4750 
z
" transform="scale(0.015625)"/>
        <path id="DejaVuSans-Bold-54" d="M 31 4666 
L 4331 4666 
L 4331 3756 
L 2784 3756 
L 2784 0 
L 1581 0 
L 1581 3756 
L 31 3756 
L 31 4666 
z
" transform="scale(0.015625)"/>
       </defs>
       <use xlink:href="#DejaVuSans-Bold-41"/>
       <use xlink:href="#DejaVuSans-Bold-4e" transform="translate(77.392578 0)"/>
       <use xlink:href="#DejaVuSans-Bold-44" transform="translate(161.083984 0)"/>
       <use xlink:href="#DejaVuSans-Bold-5f" transform="translate(244.091797 0)"/>
       <use xlink:href="#DejaVuSans-Bold-4e" transform="translate(294.091797 0)"/>
       <use xlink:href="#DejaVuSans-Bold-4f" transform="translate(377.783203 0)"/>
       <use xlink:href="#DejaVuSans-Bold-54" transform="translate(462.792969 0)"/>
      </g>
     </g>
    </g>
    <g id="xtick_3">
     <g id="line2d_3">
      <g>
       <use xlink:href="#me43fe91c1b" x="236.448282" y="279.470047" style="stroke: #000000; stroke-width: 0.8"/>
      </g>
     </g>
     <g id="text_3">
      <!-- OR -->
      <g transform="translate(228.94973 296.766419) rotate(-10) scale(0.1 -0.1)">
       <defs>
        <path id="DejaVuSans-Bold-52" d="M 2297 2597 
Q 2675 2597 2839 2737 
Q 3003 2878 3003 3200 
Q 3003 3519 2839 3656 
Q 2675 3794 2297 3794 
L 1791 3794 
L 1791 2597 
L 2297 2597 
z
M 1791 1766 
L 1791 0 
L 588 0 
L 588 4666 
L 2425 4666 
Q 3347 4666 3776 4356 
Q 4206 4047 4206 3378 
Q 4206 2916 3982 2619 
Q 3759 2322 3309 2181 
Q 3556 2125 3751 1926 
Q 3947 1728 4147 1325 
L 4800 0 
L 3519 0 
L 2950 1159 
Q 2778 1509 2601 1637 
Q 2425 1766 2131 1766 
L 1791 1766 
z
" transform="scale(0.015625)"/>
       </defs>
       <use xlink:href="#DejaVuSans-Bold-4f"/>
       <use xlink:href="#DejaVuSans-Bold-52" transform="translate(85.009766 0)"/>
      </g>
     </g>
    </g>
    <g id="xtick_4">
     <g id="line2d_4">
      <g>
       <use xlink:href="#me43fe91c1b" x="304.834375" y="279.470047" style="stroke: #000000; stroke-width: 0.8"/>
      </g>
     </g>
     <g id="text_4">
      <!-- OR_NOT -->
      <g transform="translate(283.168201 301.574885) rotate(-10) scale(0.1 -0.1)">
       <use xlink:href="#DejaVuSans-Bold-4f"/>
       <use xlink:href="#DejaVuSans-Bold-52" transform="translate(85.009766 0)"/>
       <use xlink:href="#DejaVuSans-Bold-5f" transform="translate(162.011719 0)"/>
       <use xlink:href="#DejaVuSans-Bold-4e" transform="translate(212.011719 0)"/>
       <use xlink:href="#DejaVuSans-Bold-4f" transform="translate(295.703125 0)"/>
       <use xlink:href="#DejaVuSans-Bold-54" transform="translate(380.712891 0)"/>
      </g>
     </g>
    </g>
    <g id="xtick_5">
     <g id="line2d_5">
      <g>
       <use xlink:href="#me43fe91c1b" x="373.220468" y="279.470047" style="stroke: #000000; stroke-width: 0.8"/>
      </g>
     </g>
     <g id="text_5">
      <!-- AND_OR -->
      <g transform="translate(351.201148 301.699423) rotate(-10) scale(0.1 -0.1)">
       <use xlink:href="#DejaVuSans-Bold-41"/>
       <use xlink:href="#DejaVuSans-Bold-4e" transform="translate(77.392578 0)"/>
       <use xlink:href="#DejaVuSans-Bold-44" transform="translate(161.083984 0)"/>
       <use xlink:href="#DejaVuSans-Bold-5f" transform="translate(244.091797 0)"/>
       <use xlink:href="#DejaVuSans-Bold-4f" transform="translate(294.091797 0)"/>
       <use xlink:href="#DejaVuSans-Bold-52" transform="translate(379.101562 0)"/>
      </g>
     </g>
    </g>
    <g id="xtick_6">
     <g id="line2d_6">
      <g>
       <use xlink:href="#me43fe91c1b" x="441.606561" y="279.470047" style="stroke: #000000; stroke-width: 0.8"/>
      </g>
     </g>
     <g id="text_6">
      <!-- AND_OR_NOT -->
      <g transform="translate(405.459097 306.681769) rotate(-10) scale(0.1 -0.1)">
       <use xlink:href="#DejaVuSans-Bold-41"/>
       <use xlink:href="#DejaVuSans-Bold-4e" transform="translate(77.392578 0)"/>
       <use xlink:href="#DejaVuSans-Bold-44" transform="translate(161.083984 0)"/>
       <use xlink:href="#DejaVuSans-Bold-5f" transform="translate(244.091797 0)"/>
       <use xlink:href="#DejaVuSans-Bold-4f" transform="translate(294.091797 0)"/>
       <use xlink:href="#DejaVuSans-Bold-52" transform="translate(379.101562 0)"/>
       <use xlink:href="#DejaVuSans-Bold-5f" transform="translate(456.103516 0)"/>
       <use xlink:href="#DejaVuSans-Bold-4e" transform="translate(506.103516 0)"/>
       <use xlink:href="#DejaVuSans-Bold-4f" transform="translate(589.794922 0)"/>
       <use xlink:href="#DejaVuSans-Bold-54" transform="translate(674.804688 0)"/>
      </g>
     </g>
    </g>
    <g id="xtick_7">
     <g id="line2d_7">
      <g>
       <use xlink:href="#me43fe91c1b" x="509.992654" y="279.470047" style="stroke: #000000; stroke-width: 0.8"/>
      </g>
     </g>
     <g id="text_7">
      <!-- NOT -->
      <g transform="translate(498.80569 298.067152) rotate(-10) scale(0.1 -0.1)">
       <use xlink:href="#DejaVuSans-Bold-4e"/>
       <use xlink:href="#DejaVuSans-Bold-4f" transform="translate(83.691406 0)"/>
       <use xlink:href="#DejaVuSans-Bold-54" transform="translate(168.701172 0)"/>
      </g>
     </g>
    </g>
   </g>
   <g id="matplotlib.axis_2">
    <g id="ytick_1">
     <g id="line2d_8">
      <path d="M 52.079375 279.470047 
L 557.589375 279.470047 
" clip-path="url(#pd925239951)" style="fill: none; stroke-dasharray: 2.96,1.28; stroke-dashoffset: 0; stroke: #b0b0b0; stroke-opacity: 0.3; stroke-width: 0.8"/>
     </g>
     <g id="line2d_9">
      <defs>
       <path id="m4e87d0c839" d="M 0 0 
L -3.5 0 
" style="stroke: #000000; stroke-width: 0.8"/>
      </defs>
      <g>
       <use xlink:href="#m4e87d0c839" x="52.079375" y="279.470047" style="stroke: #000000; stroke-width: 0.8"/>
      </g>
     </g>
     <g id="text_8">
      <!-- 0.0 -->
      <g transform="translate(29.17625 283.269266) scale(0.1 -0.1)">
       <defs>
        <path id="DejaVuSans-30" d="M 2034 4250 
Q 1547 4250 1301 3770 
Q 1056 3291 1056 2328 
Q 1056 1369 1301 889 
Q 1547 409 2034 409 
Q 2525 409 2770 889 
Q 3016 1369 3016 2328 
Q 3016 3291 2770 3770 
Q 2525 4250 2034 4250 
z
M 2034 4750 
Q 2819 4750 3233 4129 
Q 3647 3509 3647 2328 
Q 3647 1150 3233 529 
Q 2819 -91 2034 -91 
Q 1250 -91 836 529 
Q 422 1150 422 2328 
Q 422 3509 836 4129 
Q 1250 4750 2034 4750 
z
" transform="scale(0.015625)"/>
        <path id="DejaVuSans-2e" d="M 684 794 
L 1344 794 
L 1344 0 
L 684 0 
L 684 794 
z
" transform="scale(0.015625)"/>
       </defs>
       <use xlink:href="#DejaVuSans-30"/>
       <use xlink:href="#DejaVuSans-2e" transform="translate(63.623047 0)"/>
       <use xlink:href="#DejaVuSans-30" transform="translate(95.410156 0)"/>
      </g>
     </g>
    </g>
    <g id="ytick_2">
     <g id="line2d_10">
      <path d="M 52.079375 248.580533 
L 557.589375 248.580533 
" clip-path="url(#pd925239951)" style="fill: none; stroke-dasharray: 2.96,1.28; stroke-dashoffset: 0; stroke: #b0b0b0; stroke-opacity: 0.3; stroke-width: 0.8"/>
     </g>
     <g id="line2d_11">
      <g>
       <use xlink:href="#m4e87d0c839" x="52.079375" y="248.580533" style="stroke: #000000; stroke-width: 0.8"/>
      </g>
     </g>
     <g id="text_9">
      <!-- 2.5 -->
      <g transform="translate(29.17625 252.379752) scale(0.1 -0.1)">
       <defs>
        <path id="DejaVuSans-32" d="M 1228 531 
L 3431 531 
L 3431 0 
L 469 0 
L 469 531 
Q 828 903 1448 1529 
Q 2069 2156 2228 2338 
Q 2531 2678 2651 2914 
Q 2772 3150 2772 3378 
Q 2772 3750 2511 3984 
Q 2250 4219 1831 4219 
Q 1534 4219 1204 4116 
Q 875 4013 500 3803 
L 500 4441 
Q 881 4594 1212 4672 
Q 1544 4750 1819 4750 
Q 2544 4750 2975 4387 
Q 3406 4025 3406 3419 
Q 3406 3131 3298 2873 
Q 3191 2616 2906 2266 
Q 2828 2175 2409 1742 
Q 1991 1309 1228 531 
z
" transform="scale(0.015625)"/>
        <path id="DejaVuSans-35" d="M 691 4666 
L 3169 4666 
L 3169 4134 
L 1269 4134 
L 1269 2991 
Q 1406 3038 1543 3061 
Q 1681 3084 1819 3084 
Q 2600 3084 3056 2656 
Q 3513 2228 3513 1497 
Q 3513 744 3044 326 
Q 2575 -91 1722 -91 
Q 1428 -91 1123 -41 
Q 819 9 494 109 
L 494 744 
Q 775 591 1075 516 
Q 1375 441 1709 441 
Q 2250 441 2565 725 
Q 2881 1009 2881 1497 
Q 2881 1984 2565 2268 
Q 2250 2553 1709 2553 
Q 1456 2553 1204 2497 
Q 953 2441 691 2322 
L 691 4666 
z
" transform="scale(0.015625)"/>
       </defs>
       <use xlink:href="#DejaVuSans-32"/>
       <use xlink:href="#DejaVuSans-2e" transform="translate(63.623047 0)"/>
       <use xlink:href="#DejaVuSans-35" transform="translate(95.410156 0)"/>
      </g>
     </g>
    </g>
    <g id="ytick_3">
     <g id="line2d_12">
      <path d="M 52.079375 217.691019 
L 557.589375 217.691019 
" clip-path="url(#pd925239951)" style="fill: none; stroke-dasharray: 2.96,1.28; stroke-dashoffset: 0; stroke: #b0b0b0; stroke-opacity: 0.3; stroke-width: 0.8"/>
     </g>
     <g id="line2d_13">
      <g>
       <use xlink:href="#m4e87d0c839" x="52.079375" y="217.691019" style="stroke: #000000; stroke-width: 0.8"/>
      </g>
     </g>
     <g id="text_10">
      <!-- 5.0 -->
      <g transform="translate(29.17625 221.490237) scale(0.1 -0.1)">
       <use xlink:href="#DejaVuSans-35"/>
       <use xlink:href="#DejaVuSans-2e" transform="translate(63.623047 0)"/>
       <use xlink:href="#DejaVuSans-30" transform="translate(95.410156 0)"/>
      </g>
     </g>
    </g>
    <g id="ytick_4">
     <g id="line2d_14">
      <path d="M 52.079375 186.801505 
L 557.589375 186.801505 
" clip-path="url(#pd925239951)" style="fill: none; stroke-dasharray: 2.96,1.28; stroke-dashoffset: 0; stroke: #b0b0b0; stroke-opacity: 0.3; stroke-width: 0.8"/>
     </g>
     <g id="line2d_15">
      <g>
       <use xlink:href="#m4e87d0c839" x="52.079375" y="186.801505" style="stroke: #000000; stroke-width: 0.8"/>
      </g>
     </g>
     <g id="text_11">
      <!-- 7.5 -->
      <g transform="translate(29.17625 190.600723) scale(0.1 -0.1)">
       <defs>
        <path id="DejaVuSans-37" d="M 525 4666 
L 3525 4666 
L 3525 4397 
L 1831 0 
L 1172 0 
L 2766 4134 
L 525 4134 
L 525 4666 
z
" transform="scale(0.015625)"/>
       </defs>
       <use xlink:href="#DejaVuSans-37"/>
       <use xlink:href="#DejaVuSans-2e" transform="translate(63.623047 0)"/>
       <use xlink:href="#DejaVuSans-35" transform="translate(95.410156 0)"/>
      </g>
     </g>
    </g>
    <g id="ytick_5">
     <g id="line2d_16">
      <path d="M 52.079375 155.91199 
L 557.589375 155.91199 
" clip-path="url(#pd925239951)" style="fill: none; stroke-dasharray: 2.96,1.28; stroke-dashoffset: 0; stroke: #b0b0b0; stroke-opacity: 0.3; stroke-width: 0.8"/>
     </g>
     <g id="line2d_17">
      <g>
       <use xlink:href="#m4e87d0c839" x="52.079375" y="155.91199" style="stroke: #000000; stroke-width: 0.8"/>
      </g>
     </g>
     <g id="text_12">
      <!-- 10.0 -->
      <g transform="translate(22.81375 159.711209) scale(0.1 -0.1)">
       <defs>
        <path id="DejaVuSans-31" d="M 794 531 
L 1825 531 
L 1825 4091 
L 703 3866 
L 703 4441 
L 1819 4666 
L 2450 4666 
L 2450 531 
L 3481 531 
L 3481 0 
L 794 0 
L 794 531 
z
" transform="scale(0.015625)"/>
       </defs>
       <use xlink:href="#DejaVuSans-31"/>
       <use xlink:href="#DejaVuSans-30" transform="translate(63.623047 0)"/>
       <use xlink:href="#DejaVuSans-2e" transform="translate(127.246094 0)"/>
       <use xlink:href="#DejaVuSans-30" transform="translate(159.033203 0)"/>
      </g>
     </g>
    </g>
    <g id="ytick_6">
     <g id="line2d_18">
      <path d="M 52.079375 125.022476 
L 557.589375 125.022476 
" clip-path="url(#pd925239951)" style="fill: none; stroke-dasharray: 2.96,1.28; stroke-dashoffset: 0; stroke: #b0b0b0; stroke-opacity: 0.3; stroke-width: 0.8"/>
     </g>
     <g id="line2d_19">
      <g>
       <use xlink:href="#m4e87d0c839" x="52.079375" y="125.022476" style="stroke: #000000; stroke-width: 0.8"/>
      </g>
     </g>
     <g id="text_13">
      <!-- 12.5 -->
      <g transform="translate(22.81375 128.821695) scale(0.1 -0.1)">
       <use xlink:href="#DejaVuSans-31"/>
       <use xlink:href="#DejaVuSans-32" transform="translate(63.623047 0)"/>
       <use xlink:href="#DejaVuSans-2e" transform="translate(127.246094 0)"/>
       <use xlink:href="#DejaVuSans-35" transform="translate(159.033203 0)"/>
      </g>
     </g>
    </g>
    <g id="ytick_7">
     <g id="line2d_20">
      <path d="M 52.079375 94.132962 
L 557.589375 94.132962 
" clip-path="url(#pd925239951)" style="fill: none; stroke-dasharray: 2.96,1.28; stroke-dashoffset: 0; stroke: #b0b0b0; stroke-opacity: 0.3; stroke-width: 0.8"/>
     </g>
     <g id="line2d_21">
      <g>
       <use xlink:href="#m4e87d0c839" x="52.079375" y="94.132962" style="stroke: #000000; stroke-width: 0.8"/>
      </g>
     </g>
     <g id="text_14">
      <!-- 15.0 -->
      <g transform="translate(22.81375 97.932181) scale(0.1 -0.1)">
       <use xlink:href="#DejaVuSans-31"/>
       <use xlink:href="#DejaVuSans-35" transform="translate(63.623047 0)"/>
       <use xlink:href="#DejaVuSans-2e" transform="translate(127.246094 0)"/>
       <use xlink:href="#DejaVuSans-30" transform="translate(159.033203 0)"/>
      </g>
     </g>
    </g>
    <g id="ytick_8">
     <g id="line2d_22">
      <path d="M 52.079375 63.243448 
L 557.589375 63.243448 
" clip-path="url(#pd925239951)" style="fill: none; stroke-dasharray: 2.96,1.28; stroke-dashoffset: 0; stroke: #b0b0b0; stroke-opacity: 0.3; stroke-width: 0.8"/>
     </g>
     <g id="line2d_23">
      <g>
       <use xlink:href="#m4e87d0c839" x="52.079375" y="63.243448" style="stroke: #000000; stroke-width: 0.8"/>
      </g>
     </g>
     <g id="text_15">
      <!-- 17.5 -->
      <g transform="translate(22.81375 67.042667) scale(0.1 -0.1)">
       <use xlink:href="#DejaVuSans-31"/>
       <use xlink:href="#DejaVuSans-37" transform="translate(63.623047 0)"/>
       <use xlink:href="#DejaVuSans-2e" transform="translate(127.246094 0)"/>
       <use xlink:href="#DejaVuSans-35" transform="translate(159.033203 0)"/>
      </g>
     </g>
    </g>
    <g id="ytick_9">
     <g id="line2d_24">
      <path d="M 52.079375 32.353934 
L 557.589375 32.353934 
" clip-path="url(#pd925239951)" style="fill: none; stroke-dasharray: 2.96,1.28; stroke-dashoffset: 0; stroke: #b0b0b0; stroke-opacity: 0.3; stroke-width: 0.8"/>
     </g>
     <g id="line2d_25">
      <g>
       <use xlink:href="#m4e87d0c839" x="52.079375" y="32.353934" style="stroke: #000000; stroke-width: 0.8"/>
      </g>
     </g>
     <g id="text_16">
      <!-- 20.0 -->
      <g transform="translate(22.81375 36.153152) scale(0.1 -0.1)">
       <use xlink:href="#DejaVuSans-32"/>
       <use xlink:href="#DejaVuSans-30" transform="translate(63.623047 0)"/>
       <use xlink:href="#DejaVuSans-2e" transform="translate(127.246094 0)"/>
       <use xlink:href="#DejaVuSans-30" transform="translate(159.033203 0)"/>
      </g>
     </g>
    </g>
    <g id="text_17">
     <!-- Item F1 (%) -->
     <g transform="translate(16.318125 195.281365) rotate(-90) scale(0.12 -0.12)">
      <defs>
       <path id="DejaVuSans-Bold-49" d="M 588 4666 
L 1791 4666 
L 1791 0 
L 588 0 
L 588 4666 
z
" transform="scale(0.015625)"/>
       <path id="DejaVuSans-Bold-74" d="M 1759 4494 
L 1759 3500 
L 2913 3500 
L 2913 2700 
L 1759 2700 
L 1759 1216 
Q 1759 972 1856 886 
Q 1953 800 2241 800 
L 2816 800 
L 2816 0 
L 1856 0 
Q 1194 0 917 276 
Q 641 553 641 1216 
L 641 2700 
L 84 2700 
L 84 3500 
L 641 3500 
L 641 4494 
L 1759 4494 
z
" transform="scale(0.015625)"/>
       <path id="DejaVuSans-Bold-65" d="M 4031 1759 
L 4031 1441 
L 1416 1441 
Q 1456 1047 1700 850 
Q 1944 653 2381 653 
Q 2734 653 3104 758 
Q 3475 863 3866 1075 
L 3866 213 
Q 3469 63 3072 -14 
Q 2675 -91 2278 -91 
Q 1328 -91 801 392 
Q 275 875 275 1747 
Q 275 2603 792 3093 
Q 1309 3584 2216 3584 
Q 3041 3584 3536 3087 
Q 4031 2591 4031 1759 
z
M 2881 2131 
Q 2881 2450 2695 2645 
Q 2509 2841 2209 2841 
Q 1884 2841 1681 2658 
Q 1478 2475 1428 2131 
L 2881 2131 
z
" transform="scale(0.015625)"/>
       <path id="DejaVuSans-Bold-6d" d="M 3781 2919 
Q 3994 3244 4286 3414 
Q 4578 3584 4928 3584 
Q 5531 3584 5847 3212 
Q 6163 2841 6163 2131 
L 6163 0 
L 5038 0 
L 5038 1825 
Q 5041 1866 5042 1909 
Q 5044 1953 5044 2034 
Q 5044 2406 4934 2573 
Q 4825 2741 4581 2741 
Q 4263 2741 4089 2478 
Q 3916 2216 3909 1719 
L 3909 0 
L 2784 0 
L 2784 1825 
Q 2784 2406 2684 2573 
Q 2584 2741 2328 2741 
Q 2006 2741 1831 2477 
Q 1656 2213 1656 1722 
L 1656 0 
L 531 0 
L 531 3500 
L 1656 3500 
L 1656 2988 
Q 1863 3284 2130 3434 
Q 2397 3584 2719 3584 
Q 3081 3584 3359 3409 
Q 3638 3234 3781 2919 
z
" transform="scale(0.015625)"/>
       <path id="DejaVuSans-Bold-20" transform="scale(0.015625)"/>
       <path id="DejaVuSans-Bold-46" d="M 588 4666 
L 3834 4666 
L 3834 3756 
L 1791 3756 
L 1791 2888 
L 3713 2888 
L 3713 1978 
L 1791 1978 
L 1791 0 
L 588 0 
L 588 4666 
z
" transform="scale(0.015625)"/>
       <path id="DejaVuSans-Bold-31" d="M 750 831 
L 1813 831 
L 1813 3847 
L 722 3622 
L 722 4441 
L 1806 4666 
L 2950 4666 
L 2950 831 
L 4013 831 
L 4013 0 
L 750 0 
L 750 831 
z
" transform="scale(0.015625)"/>
       <path id="DejaVuSans-Bold-28" d="M 2413 -844 
L 1484 -844 
Q 1006 -72 778 623 
Q 550 1319 550 2003 
Q 550 2688 779 3389 
Q 1009 4091 1484 4856 
L 2413 4856 
Q 2013 4116 1813 3408 
Q 1613 2700 1613 2009 
Q 1613 1319 1811 609 
Q 2009 -100 2413 -844 
z
" transform="scale(0.015625)"/>
       <path id="DejaVuSans-Bold-25" d="M 4959 1925 
Q 4738 1925 4616 1733 
Q 4494 1541 4494 1184 
Q 4494 825 4614 633 
Q 4734 441 4959 441 
Q 5184 441 5303 633 
Q 5422 825 5422 1184 
Q 5422 1541 5301 1733 
Q 5181 1925 4959 1925 
z
M 4959 2450 
Q 5541 2450 5875 2112 
Q 6209 1775 6209 1184 
Q 6209 594 5875 251 
Q 5541 -91 4959 -91 
Q 4378 -91 4042 251 
Q 3706 594 3706 1184 
Q 3706 1772 4042 2111 
Q 4378 2450 4959 2450 
z
M 2094 -91 
L 1403 -91 
L 4319 4750 
L 5013 4750 
L 2094 -91 
z
M 1453 4750 
Q 2034 4750 2367 4411 
Q 2700 4072 2700 3481 
Q 2700 2891 2367 2550 
Q 2034 2209 1453 2209 
Q 872 2209 539 2550 
Q 206 2891 206 3481 
Q 206 4072 539 4411 
Q 872 4750 1453 4750 
z
M 1453 4225 
Q 1228 4225 1106 4031 
Q 984 3838 984 3481 
Q 984 3122 1106 2926 
Q 1228 2731 1453 2731 
Q 1678 2731 1798 2926 
Q 1919 3122 1919 3481 
Q 1919 3838 1797 4031 
Q 1675 4225 1453 4225 
z
" transform="scale(0.015625)"/>
       <path id="DejaVuSans-Bold-29" d="M 513 -844 
Q 913 -100 1113 609 
Q 1313 1319 1313 2009 
Q 1313 2700 1113 3408 
Q 913 4116 513 4856 
L 1441 4856 
Q 1916 4091 2145 3389 
Q 2375 2688 2375 2003 
Q 2375 1319 2147 623 
Q 1919 -72 1441 -844 
L 513 -844 
z
" transform="scale(0.015625)"/>
      </defs>
      <use xlink:href="#DejaVuSans-Bold-49"/>
      <use xlink:href="#DejaVuSans-Bold-74" transform="translate(37.207031 0)"/>
      <use xlink:href="#DejaVuSans-Bold-65" transform="translate(85.009766 0)"/>
      <use xlink:href="#DejaVuSans-Bold-6d" transform="translate(152.832031 0)"/>
      <use xlink:href="#DejaVuSans-Bold-20" transform="translate(257.03125 0)"/>
      <use xlink:href="#DejaVuSans-Bold-46" transform="translate(291.845703 0)"/>
      <use xlink:href="#DejaVuSans-Bold-31" transform="translate(360.15625 0)"/>
      <use xlink:href="#DejaVuSans-Bold-20" transform="translate(429.736328 0)"/>
      <use xlink:href="#DejaVuSans-Bold-28" transform="translate(464.550781 0)"/>
      <use xlink:href="#DejaVuSans-Bold-25" transform="translate(510.253906 0)"/>
      <use xlink:href="#DejaVuSans-Bold-29" transform="translate(610.449219 0)"/>
     </g>
    </g>
   </g>
   <g id="patch_3">
    <path d="M 75.057102 279.470047 
L 87.366599 279.470047 
L 87.366599 203.082261 
L 75.057102 203.082261 
z
" clip-path="url(#pd925239951)" style="fill: #74b9ff; opacity: 0.92; stroke: #ffffff; stroke-width: 1.5; stroke-linejoin: miter"/>
   </g>
   <g id="patch_4">
    <path d="M 143.443195 279.470047 
L 155.752692 279.470047 
L 155.752692 205.103555 
L 143.443195 205.103555 
z
" clip-path="url(#pd925239951)" style="fill: #74b9ff; opacity: 0.92; stroke: #ffffff; stroke-width: 1.5; stroke-linejoin: miter"/>
   </g>
   <g id="patch_5">
    <path d="M 211.829288 279.470047 
L 224.138785 279.470047 
L 224.138785 129.729256 
L 211.829288 129.729256 
z
" clip-path="url(#pd925239951)" style="fill: #74b9ff; opacity: 0.92; stroke: #ffffff; stroke-width: 1.5; stroke-linejoin: miter"/>
   </g>
   <g id="patch_6">
    <path d="M 280.215381 279.470047 
L 292.524878 279.470047 
L 292.524878 167.937954 
L 280.215381 167.937954 
z
" clip-path="url(#pd925239951)" style="fill: #74b9ff; opacity: 0.92; stroke: #ffffff; stroke-width: 1.5; stroke-linejoin: miter"/>
   </g>
   <g id="patch_7">
    <path d="M 348.601475 279.470047 
L 360.910971 279.470047 
L 360.910971 174.093601 
L 348.601475 174.093601 
z
" clip-path="url(#pd925239951)" style="fill: #74b9ff; opacity: 0.92; stroke: #ffffff; stroke-width: 1.5; stroke-linejoin: miter"/>
   </g>
   <g id="patch_8">
    <path d="M 416.987568 279.470047 
L 429.297064 279.470047 
L 429.297064 210.726013 
L 416.987568 210.726013 
z
" clip-path="url(#pd925239951)" style="fill: #74b9ff; opacity: 0.92; stroke: #ffffff; stroke-width: 1.5; stroke-linejoin: miter"/>
   </g>
   <g id="patch_9">
    <path d="M 485.373661 279.470047 
L 497.683157 279.470047 
L 497.683157 217.14026 
L 485.373661 217.14026 
z
" clip-path="url(#pd925239951)" style="fill: #74b9ff; opacity: 0.92; stroke: #ffffff; stroke-width: 1.5; stroke-linejoin: miter"/>
   </g>
   <g id="patch_10">
    <path d="M 87.366599 279.470047 
L 99.676096 279.470047 
L 99.676096 149.211578 
L 87.366599 149.211578 
z
" clip-path="url(#pd925239951)" style="fill: #ffe66d; opacity: 0.92; stroke: #ffffff; stroke-width: 1.5; stroke-linejoin: miter"/>
   </g>
   <g id="patch_11">
    <path d="M 155.752692 279.470047 
L 168.062189 279.470047 
L 168.062189 168.702501 
L 155.752692 168.702501 
z
" clip-path="url(#pd925239951)" style="fill: #ffe66d; opacity: 0.92; stroke: #ffffff; stroke-width: 1.5; stroke-linejoin: miter"/>
   </g>
   <g id="patch_12">
    <path d="M 224.138785 279.470047 
L 236.448282 279.470047 
L 236.448282 87.973195 
L 224.138785 87.973195 
z
" clip-path="url(#pd925239951)" style="fill: #ffe66d; opacity: 0.92; stroke: #ffffff; stroke-width: 1.5; stroke-linejoin: miter"/>
   </g>
   <g id="patch_13">
    <path d="M 292.524878 279.470047 
L 304.834375 279.470047 
L 304.834375 138.100019 
L 292.524878 138.100019 
z
" clip-path="url(#pd925239951)" style="fill: #ffe66d; opacity: 0.92; stroke: #ffffff; stroke-width: 1.5; stroke-linejoin: miter"/>
   </g>
   <g id="patch_14">
    <path d="M 360.910971 279.470047 
L 373.220468 279.470047 
L 373.220468 128.438142 
L 360.910971 128.438142 
z
" clip-path="url(#pd925239951)" style="fill: #ffe66d; opacity: 0.92; stroke: #ffffff; stroke-width: 1.5; stroke-linejoin: miter"/>
   </g>
   <g id="patch_15">
    <path d="M 429.297064 279.470047 
L 441.606561 279.470047 
L 441.606561 180.925606 
L 429.297064 180.925606 
z
" clip-path="url(#pd925239951)" style="fill: #ffe66d; opacity: 0.92; stroke: #ffffff; stroke-width: 1.5; stroke-linejoin: miter"/>
   </g>
   <g id="patch_16">
    <path d="M 497.683157 279.470047 
L 509.992654 279.470047 
L 509.992654 176.456208 
L 497.683157 176.456208 
z
" clip-path="url(#pd925239951)" style="fill: #ffe66d; opacity: 0.92; stroke: #ffffff; stroke-width: 1.5; stroke-linejoin: miter"/>
   </g>
   <g id="patch_17">
    <path d="M 99.676096 279.470047 
L 111.985593 279.470047 
L 111.985593 135.226447 
L 99.676096 135.226447 
z
" clip-path="url(#pd925239951)" style="fill: #ff8c94; opacity: 0.92; stroke: #ffffff; stroke-width: 1.5; stroke-linejoin: miter"/>
   </g>
   <g id="patch_18">
    <path d="M 168.062189 279.470047 
L 180.371686 279.470047 
L 180.371686 161.503913 
L 168.062189 161.503913 
z
" clip-path="url(#pd925239951)" style="fill: #ff8c94; opacity: 0.92; stroke: #ffffff; stroke-width: 1.5; stroke-linejoin: miter"/>
   </g>
   <g id="patch_19">
    <path d="M 236.448282 279.470047 
L 248.757779 279.470047 
L 248.757779 85.251038 
L 236.448282 85.251038 
z
" clip-path="url(#pd925239951)" style="fill: #ff8c94; opacity: 0.92; stroke: #ffffff; stroke-width: 1.5; stroke-linejoin: miter"/>
   </g>
   <g id="patch_20">
    <path d="M 304.834375 279.470047 
L 317.143872 279.470047 
L 317.143872 152.616486 
L 304.834375 152.616486 
z
" clip-path="url(#pd925239951)" style="fill: #ff8c94; opacity: 0.92; stroke: #ffffff; stroke-width: 1.5; stroke-linejoin: miter"/>
   </g>
   <g id="patch_21">
    <path d="M 373.220468 279.470047 
L 385.529965 279.470047 
L 385.529965 104.972303 
L 373.220468 104.972303 
z
" clip-path="url(#pd925239951)" style="fill: #ff8c94; opacity: 0.92; stroke: #ffffff; stroke-width: 1.5; stroke-linejoin: miter"/>
   </g>
   <g id="patch_22">
    <path d="M 441.606561 279.470047 
L 453.916058 279.470047 
L 453.916058 164.65189 
L 441.606561 164.65189 
z
" clip-path="url(#pd925239951)" style="fill: #ff8c94; opacity: 0.92; stroke: #ffffff; stroke-width: 1.5; stroke-linejoin: miter"/>
   </g>
   <g id="patch_23">
    <path d="M 509.992654 279.470047 
L 522.302151 279.470047 
L 522.302151 174.187129 
L 509.992654 174.187129 
z
" clip-path="url(#pd925239951)" style="fill: #ff8c94; opacity: 0.92; stroke: #ffffff; stroke-width: 1.5; stroke-linejoin: miter"/>
   </g>
   <g id="patch_24">
    <path d="M 111.985593 279.470047 
L 124.295089 279.470047 
L 124.295089 110.464605 
L 111.985593 110.464605 
z
" clip-path="url(#pd925239951)" style="fill: #a29bfe; opacity: 0.92; stroke: #ffffff; stroke-width: 1.5; stroke-linejoin: miter"/>
   </g>
   <g id="patch_25">
    <path d="M 180.371686 279.470047 
L 192.681182 279.470047 
L 192.681182 142.993378 
L 180.371686 142.993378 
z
" clip-path="url(#pd925239951)" style="fill: #a29bfe; opacity: 0.92; stroke: #ffffff; stroke-width: 1.5; stroke-linejoin: miter"/>
   </g>
   <g id="patch_26">
    <path d="M 248.757779 279.470047 
L 261.067275 279.470047 
L 261.067275 60.496429 
L 248.757779 60.496429 
z
" clip-path="url(#pd925239951)" style="fill: #a29bfe; opacity: 0.92; stroke: #ffffff; stroke-width: 1.5; stroke-linejoin: miter"/>
   </g>
   <g id="patch_27">
    <path d="M 317.143872 279.470047 
L 329.453369 279.470047 
L 329.453369 128.447078 
L 317.143872 128.447078 
z
" clip-path="url(#pd925239951)" style="fill: #a29bfe; opacity: 0.92; stroke: #ffffff; stroke-width: 1.5; stroke-linejoin: miter"/>
   </g>
   <g id="patch_28">
    <path d="M 385.529965 279.470047 
L 397.839462 279.470047 
L 397.839462 107.17165 
L 385.529965 107.17165 
z
" clip-path="url(#pd925239951)" style="fill: #a29bfe; opacity: 0.92; stroke: #ffffff; stroke-width: 1.5; stroke-linejoin: miter"/>
   </g>
   <g id="patch_29">
    <path d="M 453.916058 279.470047 
L 466.225555 279.470047 
L 466.225555 139.763987 
L 453.916058 139.763987 
z
" clip-path="url(#pd925239951)" style="fill: #a29bfe; opacity: 0.92; stroke: #ffffff; stroke-width: 1.5; stroke-linejoin: miter"/>
   </g>
   <g id="patch_30">
    <path d="M 522.302151 279.470047 
L 534.611648 279.470047 
L 534.611648 157.253284 
L 522.302151 157.253284 
z
" clip-path="url(#pd925239951)" style="fill: #a29bfe; opacity: 0.92; stroke: #ffffff; stroke-width: 1.5; stroke-linejoin: miter"/>
   </g>
   <g id="legend_1">
    <g id="patch_31">
     <path d="M 81.177344 17.638594 
L 99.177344 17.638594 
L 99.177344 11.338594 
L 81.177344 11.338594 
z
" style="fill: #74b9ff; opacity: 0.92; stroke: #ffffff; stroke-width: 1.5; stroke-linejoin: miter"/>
    </g>
    <g id="text_18">
     <!-- Qwen3-8B -->
     <g transform="translate(106.377344 17.638594) scale(0.09 -0.09)">
      <defs>
       <path id="DejaVuSans-51" d="M 2522 4238 
Q 1834 4238 1429 3725 
Q 1025 3213 1025 2328 
Q 1025 1447 1429 934 
Q 1834 422 2522 422 
Q 3209 422 3611 934 
Q 4013 1447 4013 2328 
Q 4013 3213 3611 3725 
Q 3209 4238 2522 4238 
z
M 3406 84 
L 4238 -825 
L 3475 -825 
L 2784 -78 
Q 2681 -84 2626 -87 
Q 2572 -91 2522 -91 
Q 1538 -91 948 567 
Q 359 1225 359 2328 
Q 359 3434 948 4092 
Q 1538 4750 2522 4750 
Q 3503 4750 4090 4092 
Q 4678 3434 4678 2328 
Q 4678 1516 4351 937 
Q 4025 359 3406 84 
z
" transform="scale(0.015625)"/>
       <path id="DejaVuSans-77" d="M 269 3500 
L 844 3500 
L 1563 769 
L 2278 3500 
L 2956 3500 
L 3675 769 
L 4391 3500 
L 4966 3500 
L 4050 0 
L 3372 0 
L 2619 2869 
L 1863 0 
L 1184 0 
L 269 3500 
z
" transform="scale(0.015625)"/>
       <path id="DejaVuSans-65" d="M 3597 1894 
L 3597 1613 
L 953 1613 
Q 991 1019 1311 708 
Q 1631 397 2203 397 
Q 2534 397 2845 478 
Q 3156 559 3463 722 
L 3463 178 
Q 3153 47 2828 -22 
Q 2503 -91 2169 -91 
Q 1331 -91 842 396 
Q 353 884 353 1716 
Q 353 2575 817 3079 
Q 1281 3584 2069 3584 
Q 2775 3584 3186 3129 
Q 3597 2675 3597 1894 
z
M 3022 2063 
Q 3016 2534 2758 2815 
Q 2500 3097 2075 3097 
Q 1594 3097 1305 2825 
Q 1016 2553 972 2059 
L 3022 2063 
z
" transform="scale(0.015625)"/>
       <path id="DejaVuSans-6e" d="M 3513 2113 
L 3513 0 
L 2938 0 
L 2938 2094 
Q 2938 2591 2744 2837 
Q 2550 3084 2163 3084 
Q 1697 3084 1428 2787 
Q 1159 2491 1159 1978 
L 1159 0 
L 581 0 
L 581 3500 
L 1159 3500 
L 1159 2956 
Q 1366 3272 1645 3428 
Q 1925 3584 2291 3584 
Q 2894 3584 3203 3211 
Q 3513 2838 3513 2113 
z
" transform="scale(0.015625)"/>
       <path id="DejaVuSans-33" d="M 2597 2516 
Q 3050 2419 3304 2112 
Q 3559 1806 3559 1356 
Q 3559 666 3084 287 
Q 2609 -91 1734 -91 
Q 1441 -91 1130 -33 
Q 819 25 488 141 
L 488 750 
Q 750 597 1062 519 
Q 1375 441 1716 441 
Q 2309 441 2620 675 
Q 2931 909 2931 1356 
Q 2931 1769 2642 2001 
Q 2353 2234 1838 2234 
L 1294 2234 
L 1294 2753 
L 1863 2753 
Q 2328 2753 2575 2939 
Q 2822 3125 2822 3475 
Q 2822 3834 2567 4026 
Q 2313 4219 1838 4219 
Q 1578 4219 1281 4162 
Q 984 4106 628 3988 
L 628 4550 
Q 988 4650 1302 4700 
Q 1616 4750 1894 4750 
Q 2613 4750 3031 4423 
Q 3450 4097 3450 3541 
Q 3450 3153 3228 2886 
Q 3006 2619 2597 2516 
z
" transform="scale(0.015625)"/>
       <path id="DejaVuSans-2d" d="M 313 2009 
L 1997 2009 
L 1997 1497 
L 313 1497 
L 313 2009 
z
" transform="scale(0.015625)"/>
       <path id="DejaVuSans-38" d="M 2034 2216 
Q 1584 2216 1326 1975 
Q 1069 1734 1069 1313 
Q 1069 891 1326 650 
Q 1584 409 2034 409 
Q 2484 409 2743 651 
Q 3003 894 3003 1313 
Q 3003 1734 2745 1975 
Q 2488 2216 2034 2216 
z
M 1403 2484 
Q 997 2584 770 2862 
Q 544 3141 544 3541 
Q 544 4100 942 4425 
Q 1341 4750 2034 4750 
Q 2731 4750 3128 4425 
Q 3525 4100 3525 3541 
Q 3525 3141 3298 2862 
Q 3072 2584 2669 2484 
Q 3125 2378 3379 2068 
Q 3634 1759 3634 1313 
Q 3634 634 3220 271 
Q 2806 -91 2034 -91 
Q 1263 -91 848 271 
Q 434 634 434 1313 
Q 434 1759 690 2068 
Q 947 2378 1403 2484 
z
M 1172 3481 
Q 1172 3119 1398 2916 
Q 1625 2713 2034 2713 
Q 2441 2713 2670 2916 
Q 2900 3119 2900 3481 
Q 2900 3844 2670 4047 
Q 2441 4250 2034 4250 
Q 1625 4250 1398 4047 
Q 1172 3844 1172 3481 
z
" transform="scale(0.015625)"/>
       <path id="DejaVuSans-42" d="M 1259 2228 
L 1259 519 
L 2272 519 
Q 2781 519 3026 730 
Q 3272 941 3272 1375 
Q 3272 1813 3026 2020 
Q 2781 2228 2272 2228 
L 1259 2228 
z
M 1259 4147 
L 1259 2741 
L 2194 2741 
Q 2656 2741 2882 2914 
Q 3109 3088 3109 3444 
Q 3109 3797 2882 3972 
Q 2656 4147 2194 4147 
L 1259 4147 
z
M 628 4666 
L 2241 4666 
Q 2963 4666 3353 4366 
Q 3744 4066 3744 3513 
Q 3744 3084 3544 2831 
Q 3344 2578 2956 2516 
Q 3422 2416 3680 2098 
Q 3938 1781 3938 1306 
Q 3938 681 3513 340 
Q 3088 0 2303 0 
L 628 0 
L 628 4666 
z
" transform="scale(0.015625)"/>
      </defs>
      <use xlink:href="#DejaVuSans-51"/>
      <use xlink:href="#DejaVuSans-77" transform="translate(78.710938 0)"/>
      <use xlink:href="#DejaVuSans-65" transform="translate(160.498047 0)"/>
      <use xlink:href="#DejaVuSans-6e" transform="translate(222.021484 0)"/>
      <use xlink:href="#DejaVuSans-33" transform="translate(285.400391 0)"/>
      <use xlink:href="#DejaVuSans-2d" transform="translate(349.023438 0)"/>
      <use xlink:href="#DejaVuSans-38" transform="translate(385.107422 0)"/>
      <use xlink:href="#DejaVuSans-42" transform="translate(448.730469 0)"/>
     </g>
    </g>
    <g id="patch_32">
     <path d="M 170.938281 17.638594 
L 188.938281 17.638594 
L 188.938281 11.338594 
L 170.938281 11.338594 
z
" style="fill: #ffe66d; opacity: 0.92; stroke: #ffffff; stroke-width: 1.5; stroke-linejoin: miter"/>
    </g>
    <g id="text_19">
     <!-- WideSeek-8B-RL -->
     <g transform="translate(196.138281 17.638594) scale(0.09 -0.09)">
      <defs>
       <path id="DejaVuSans-57" d="M 213 4666 
L 850 4666 
L 1831 722 
L 2809 4666 
L 3519 4666 
L 4500 722 
L 5478 4666 
L 6119 4666 
L 4947 0 
L 4153 0 
L 3169 4050 
L 2175 0 
L 1381 0 
L 213 4666 
z
" transform="scale(0.015625)"/>
       <path id="DejaVuSans-69" d="M 603 3500 
L 1178 3500 
L 1178 0 
L 603 0 
L 603 3500 
z
M 603 4863 
L 1178 4863 
L 1178 4134 
L 603 4134 
L 603 4863 
z
" transform="scale(0.015625)"/>
       <path id="DejaVuSans-64" d="M 2906 2969 
L 2906 4863 
L 3481 4863 
L 3481 0 
L 2906 0 
L 2906 525 
Q 2725 213 2448 61 
Q 2172 -91 1784 -91 
Q 1150 -91 751 415 
Q 353 922 353 1747 
Q 353 2572 751 3078 
Q 1150 3584 1784 3584 
Q 2172 3584 2448 3432 
Q 2725 3281 2906 2969 
z
M 947 1747 
Q 947 1113 1208 752 
Q 1469 391 1925 391 
Q 2381 391 2643 752 
Q 2906 1113 2906 1747 
Q 2906 2381 2643 2742 
Q 2381 3103 1925 3103 
Q 1469 3103 1208 2742 
Q 947 2381 947 1747 
z
" transform="scale(0.015625)"/>
       <path id="DejaVuSans-53" d="M 3425 4513 
L 3425 3897 
Q 3066 4069 2747 4153 
Q 2428 4238 2131 4238 
Q 1616 4238 1336 4038 
Q 1056 3838 1056 3469 
Q 1056 3159 1242 3001 
Q 1428 2844 1947 2747 
L 2328 2669 
Q 3034 2534 3370 2195 
Q 3706 1856 3706 1288 
Q 3706 609 3251 259 
Q 2797 -91 1919 -91 
Q 1588 -91 1214 -16 
Q 841 59 441 206 
L 441 856 
Q 825 641 1194 531 
Q 1563 422 1919 422 
Q 2459 422 2753 634 
Q 3047 847 3047 1241 
Q 3047 1584 2836 1778 
Q 2625 1972 2144 2069 
L 1759 2144 
Q 1053 2284 737 2584 
Q 422 2884 422 3419 
Q 422 4038 858 4394 
Q 1294 4750 2059 4750 
Q 2388 4750 2728 4690 
Q 3069 4631 3425 4513 
z
" transform="scale(0.015625)"/>
       <path id="DejaVuSans-6b" d="M 581 4863 
L 1159 4863 
L 1159 1991 
L 2875 3500 
L 3609 3500 
L 1753 1863 
L 3688 0 
L 2938 0 
L 1159 1709 
L 1159 0 
L 581 0 
L 581 4863 
z
" transform="scale(0.015625)"/>
       <path id="DejaVuSans-52" d="M 2841 2188 
Q 3044 2119 3236 1894 
Q 3428 1669 3622 1275 
L 4263 0 
L 3584 0 
L 2988 1197 
Q 2756 1666 2539 1819 
Q 2322 1972 1947 1972 
L 1259 1972 
L 1259 0 
L 628 0 
L 628 4666 
L 2053 4666 
Q 2853 4666 3247 4331 
Q 3641 3997 3641 3322 
Q 3641 2881 3436 2590 
Q 3231 2300 2841 2188 
z
M 1259 4147 
L 1259 2491 
L 2053 2491 
Q 2509 2491 2742 2702 
Q 2975 2913 2975 3322 
Q 2975 3731 2742 3939 
Q 2509 4147 2053 4147 
L 1259 4147 
z
" transform="scale(0.015625)"/>
       <path id="DejaVuSans-4c" d="M 628 4666 
L 1259 4666 
L 1259 531 
L 3531 531 
L 3531 0 
L 628 0 
L 628 4666 
z
" transform="scale(0.015625)"/>
      </defs>
      <use xlink:href="#DejaVuSans-57"/>
      <use xlink:href="#DejaVuSans-69" transform="translate(96.626953 0)"/>
      <use xlink:href="#DejaVuSans-64" transform="translate(124.410156 0)"/>
      <use xlink:href="#DejaVuSans-65" transform="translate(187.886719 0)"/>
      <use xlink:href="#DejaVuSans-53" transform="translate(249.410156 0)"/>
      <use xlink:href="#DejaVuSans-65" transform="translate(312.886719 0)"/>
      <use xlink:href="#DejaVuSans-65" transform="translate(374.410156 0)"/>
      <use xlink:href="#DejaVuSans-6b" transform="translate(435.933594 0)"/>
      <use xlink:href="#DejaVuSans-2d" transform="translate(493.84375 0)"/>
      <use xlink:href="#DejaVuSans-38" transform="translate(529.927734 0)"/>
      <use xlink:href="#DejaVuSans-42" transform="translate(593.550781 0)"/>
      <use xlink:href="#DejaVuSans-2d" transform="translate(662.154297 0)"/>
      <use xlink:href="#DejaVuSans-52" transform="translate(698.238281 0)"/>
      <use xlink:href="#DejaVuSans-4c" transform="translate(767.720703 0)"/>
     </g>
    </g>
    <g id="patch_33">
     <path d="M 288.250469 17.638594 
L 306.250469 17.638594 
L 306.250469 11.338594 
L 288.250469 11.338594 
z
" style="fill: #ff8c94; opacity: 0.92; stroke: #ffffff; stroke-width: 1.5; stroke-linejoin: miter"/>
    </g>
    <g id="text_20">
     <!-- WideSeek-8B-SFT -->
     <g transform="translate(313.450469 17.638594) scale(0.09 -0.09)">
      <defs>
       <path id="DejaVuSans-46" d="M 628 4666 
L 3309 4666 
L 3309 4134 
L 1259 4134 
L 1259 2759 
L 3109 2759 
L 3109 2228 
L 1259 2228 
L 1259 0 
L 628 0 
L 628 4666 
z
" transform="scale(0.015625)"/>
       <path id="DejaVuSans-54" d="M -19 4666 
L 3928 4666 
L 3928 4134 
L 2272 4134 
L 2272 0 
L 1638 0 
L 1638 4134 
L -19 4134 
L -19 4666 
z
" transform="scale(0.015625)"/>
      </defs>
      <use xlink:href="#DejaVuSans-57"/>
      <use xlink:href="#DejaVuSans-69" transform="translate(96.626953 0)"/>
      <use xlink:href="#DejaVuSans-64" transform="translate(124.410156 0)"/>
      <use xlink:href="#DejaVuSans-65" transform="translate(187.886719 0)"/>
      <use xlink:href="#DejaVuSans-53" transform="translate(249.410156 0)"/>
      <use xlink:href="#DejaVuSans-65" transform="translate(312.886719 0)"/>
      <use xlink:href="#DejaVuSans-65" transform="translate(374.410156 0)"/>
      <use xlink:href="#DejaVuSans-6b" transform="translate(435.933594 0)"/>
      <use xlink:href="#DejaVuSans-2d" transform="translate(493.84375 0)"/>
      <use xlink:href="#DejaVuSans-38" transform="translate(529.927734 0)"/>
      <use xlink:href="#DejaVuSans-42" transform="translate(593.550781 0)"/>
      <use xlink:href="#DejaVuSans-2d" transform="translate(662.154297 0)"/>
      <use xlink:href="#DejaVuSans-53" transform="translate(698.238281 0)"/>
      <use xlink:href="#DejaVuSans-46" transform="translate(761.714844 0)"/>
      <use xlink:href="#DejaVuSans-54" transform="translate(817.484375 0)"/>
     </g>
    </g>
    <g id="patch_34">
     <path d="M 410.523906 17.638594 
L 428.523906 17.638594 
L 428.523906 11.338594 
L 410.523906 11.338594 
z
" style="fill: #a29bfe; opacity: 0.92; stroke: #ffffff; stroke-width: 1.5; stroke-linejoin: miter"/>
    </g>
    <g id="text_21">
     <!-- WideSeek-8B-SFT-RL -->
     <g transform="translate(435.723906 17.638594) scale(0.09 -0.09)">
      <use xlink:href="#DejaVuSans-57"/>
      <use xlink:href="#DejaVuSans-69" transform="translate(96.626953 0)"/>
      <use xlink:href="#DejaVuSans-64" transform="translate(124.410156 0)"/>
      <use xlink:href="#DejaVuSans-65" transform="translate(187.886719 0)"/>
      <use xlink:href="#DejaVuSans-53" transform="translate(249.410156 0)"/>
      <use xlink:href="#DejaVuSans-65" transform="translate(312.886719 0)"/>
      <use xlink:href="#DejaVuSans-65" transform="translate(374.410156 0)"/>
      <use xlink:href="#DejaVuSans-6b" transform="translate(435.933594 0)"/>
      <use xlink:href="#DejaVuSans-2d" transform="translate(493.84375 0)"/>
      <use xlink:href="#DejaVuSans-38" transform="translate(529.927734 0)"/>
      <use xlink:href="#DejaVuSans-42" transform="translate(593.550781 0)"/>
      <use xlink:href="#DejaVuSans-2d" transform="translate(662.154297 0)"/>
      <use xlink:href="#DejaVuSans-53" transform="translate(698.238281 0)"/>
      <use xlink:href="#DejaVuSans-46" transform="translate(761.714844 0)"/>
      <use xlink:href="#DejaVuSans-54" transform="translate(817.484375 0)"/>
      <use xlink:href="#DejaVuSans-2d" transform="translate(869.443359 0)"/>
      <use xlink:href="#DejaVuSans-52" transform="translate(905.527344 0)"/>
      <use xlink:href="#DejaVuSans-4c" transform="translate(975.009766 0)"/>
     </g>
    </g>
   </g>
  </g>
 </g>
 <defs>
  <clipPath id="pd925239951">
   <rect x="52.079375" y="32.353934" width="505.51" height="247.116113"/>
  </clipPath>
 </defs>
</svg>
