<?xml version="1.0" encoding="utf-8" standalone="no"?>
<!DOCTYPE svg PUBLIC "-//W3C//DTD SVG 1.1//EN"
  "http://www.w3.org/Graphics/SVG/1.1/DTD/svg11.dtd">
<svg xmlns:xlink="http://www.w3.org/1999/xlink" width="678.9875pt" height="514.177094pt" viewBox="0 0 678.9875 514.177094" xmlns="http://www.w3.org/2000/svg" version="1.1">
 <metadata>
  <rdf:RDF xmlns:dc="http://purl.org/dc/elements/1.1/" xmlns:cc="http://creativecommons.org/ns#" xmlns:rdf="http://www.w3.org/1999/02/22-rdf-syntax-ns#">
   <cc:Work>
    <dc:type rdf:resource="http://purl.org/dc/dcmitype/StillImage"/>
    <dc:date>2026-01-27T17:48:11.659444</dc:date>
    <dc:format>image/svg+xml</dc:format>
    <dc:creator>
     <cc:Agent>
      <dc:title>Matplotlib v3.10.8, https://matplotlib.org/</dc:title>
     </cc:Agent>
    </dc:creator>
   </cc:Work>
  </rdf:RDF>
 </metadata>
 <defs>
  <style type="text/css">*{stroke-linejoin: round; stroke-linecap: butt}</style>
 </defs>
 <g id="figure_1">
  <g id="patch_1">
   <path d="M 0 514.177094 
L 678.9875 514.177094 
L 678.9875 0 
L 0 0 
L 0 514.177094 
z
" style="fill: none; opacity: 0"/>
  </g>
  <g id="axes_1">
   <g id="patch_2">
    <path d="M 547.9375 259.9 
C 547.9375 231.699288 542.382575 203.772793 531.59063 177.718733 
C 520.798684 151.664673 504.979596 127.989733 485.038681 108.048819 
C 465.097767 88.107904 441.422827 72.288816 415.368767 61.49687 
C 389.314707 50.704925 361.388212 45.15 333.1875 45.15 
C 304.986788 45.15 277.060293 50.704925 251.006233 61.49687 
C 224.952173 72.288816 201.277233 88.107904 181.336319 108.048819 
C 161.395404 127.989733 145.576316 151.664673 134.78437 177.718733 
C 123.992425 203.772793 118.4375 231.699288 118.4375 259.9 
C 118.4375 288.100712 123.992425 316.027207 134.78437 342.081267 
C 145.576316 368.135327 161.395404 391.810267 181.336319 411.751181 
C 201.277233 431.692096 224.952173 447.511184 251.006233 458.30313 
C 277.060293 469.095075 304.986788 474.65 333.1875 474.65 
C 361.388212 474.65 389.314707 469.095075 415.368767 458.30313 
C 441.422827 447.511184 465.097767 431.692096 485.038681 411.751181 
C 504.979596 391.810267 520.798684 368.135327 531.59063 342.081267 
C 542.382575 316.027207 547.9375 288.100712 547.9375 259.9 
M 333.1875 259.9 
C 333.1875 259.9 333.1875 259.9 333.1875 259.9 
C 333.1875 259.9 333.1875 259.9 333.1875 259.9 
C 333.1875 259.9 333.1875 259.9 333.1875 259.9 
C 333.1875 259.9 333.1875 259.9 333.1875 259.9 
C 333.1875 259.9 333.1875 259.9 333.1875 259.9 
C 333.1875 259.9 333.1875 259.9 333.1875 259.9 
C 333.1875 259.9 333.1875 259.9 333.1875 259.9 
C 333.1875 259.9 333.1875 259.9 333.1875 259.9 
C 333.1875 259.9 333.1875 259.9 333.1875 259.9 
C 333.1875 259.9 333.1875 259.9 333.1875 259.9 
C 333.1875 259.9 333.1875 259.9 333.1875 259.9 
C 333.1875 259.9 333.1875 259.9 333.1875 259.9 
C 333.1875 259.9 333.1875 259.9 333.1875 259.9 
C 333.1875 259.9 333.1875 259.9 333.1875 259.9 
C 333.1875 259.9 333.1875 259.9 333.1875 259.9 
C 333.1875 259.9 333.1875 259.9 333.1875 259.9 
L 333.1875 259.9 
z
" style="fill: none"/>
   </g>
   <g id="patch_3">
    <path d="M 402.711264 259.9 
L 406.080329 233.36918 
L 372.654916 226.782906 
L 375.079243 187.341372 
L 339.643974 223.283514 
L 323.170391 203.09015 
L 293.199749 190.639184 
L 239.44239 181.238513 
L 284.558912 242.200642 
L 290.103528 259.9 
L 275.150192 281.023853 
L 248.029381 331.356146 
L 312.402463 295.900741 
L 324.679945 308.148743 
L 340.385075 300.719475 
L 380.23528 341.389145 
L 404.210278 319.495186 
L 423.060487 292.611092 
z
" clip-path="url(#pa4664dc740)" style="fill: #74b9ff; opacity: 0.25; stroke: #74b9ff; stroke-linejoin: miter"/>
   </g>
   <g id="patch_4">
    <path d="M 429.645719 259.9 
L 422.93391 227.234978 
L 391.215235 211.208949 
L 398.197826 147.298812 
L 341.939475 210.265084 
L 318.014831 173.851516 
L 286.29303 178.676395 
L 196.473883 145.183654 
L 255.277087 231.542929 
L 277.338715 259.9 
L 226.868891 298.596809 
L 229.750425 346.694012 
L 297.559921 321.608778 
L 318.373791 343.912718 
L 346.047683 332.833722 
L 390.797488 359.683427 
L 441.086247 350.437799 
L 485.471837 315.326966 
z
" clip-path="url(#pa4664dc740)" style="fill: #ffe66d; opacity: 0.25; stroke: #ffe66d; stroke-linejoin: miter"/>
   </g>
   <g id="patch_5">
    <path d="M 445.710385 259.9 
L 425.515451 226.295374 
L 397.045602 206.31669 
L 400.739819 142.895952 
L 342.772482 205.540865 
L 315.978177 162.301078 
L 279.258044 166.491442 
L 192.635882 141.963189 
L 255.725542 231.706153 
L 274.323515 259.9 
L 231.020742 297.085659 
L 229.997761 346.486472 
L 291.193325 332.636046 
L 317.813234 347.091794 
L 346.141028 333.363109 
L 394.352817 365.841437 
L 457.657874 364.343045 
L 483.029379 314.437984 
z
" clip-path="url(#pa4664dc740)" style="fill: #ff8c94; opacity: 0.25; stroke: #ff8c94; stroke-linejoin: miter"/>
   </g>
   <g id="patch_6">
    <path d="M 444.335434 259.9 
L 453.694884 216.038899 
L 416.155071 190.281942 
L 408.778523 128.972508 
L 344.524358 195.605484 
L 315.115725 157.409868 
L 279.475102 166.867398 
L 175.458521 127.549672 
L 253.516656 230.902184 
L 259.066106 259.9 
L 213.598785 303.426733 
L 228.981868 347.338907 
L 272.242539 365.459768 
L 315.049363 362.766486 
L 347.941199 343.572384 
L 407.346758 388.347603 
L 472.642147 376.916343 
L 508.786462 323.812795 
z
" clip-path="url(#pa4664dc740)" style="fill: #a29bfe; opacity: 0.25; stroke: #a29bfe; stroke-linejoin: miter"/>
   </g>
   <g id="matplotlib.axis_1">
    <g id="xtick_1">
     <g id="line2d_1">
      <path d="M 333.1875 259.9 
L 547.9375 259.9 
" clip-path="url(#pa4664dc740)" style="fill: none; stroke-dasharray: 1.85,0.8; stroke-dashoffset: 0; stroke: #cccccc; stroke-width: 0.5"/>
     </g>
     <g id="text_1">
      <!-- Audio -->
      <g transform="translate(573.4375 262.659375) scale(0.1 -0.1)">
       <defs>
        <path id="DejaVuSans-Bold-41" d="M 3419 850 
L 1538 850 
L 1241 0 
L 31 0 
L 1759 4666 
L 3194 4666 
L 4922 0 
L 3713 0 
L 3419 850 
z
M 1838 1716 
L 3116 1716 
L 2478 3572 
L 1838 1716 
z
" transform="scale(0.015625)"/>
        <path id="DejaVuSans-Bold-75" d="M 500 1363 
L 500 3500 
L 1625 3500 
L 1625 3150 
Q 1625 2866 1622 2436 
Q 1619 2006 1619 1863 
Q 1619 1441 1641 1255 
Q 1663 1069 1716 984 
Q 1784 875 1895 815 
Q 2006 756 2150 756 
Q 2500 756 2700 1025 
Q 2900 1294 2900 1772 
L 2900 3500 
L 4019 3500 
L 4019 0 
L 2900 0 
L 2900 506 
Q 2647 200 2364 54 
Q 2081 -91 1741 -91 
Q 1134 -91 817 281 
Q 500 653 500 1363 
z
" transform="scale(0.015625)"/>
        <path id="DejaVuSans-Bold-64" d="M 2919 2988 
L 2919 4863 
L 4044 4863 
L 4044 0 
L 2919 0 
L 2919 506 
Q 2688 197 2409 53 
Q 2131 -91 1766 -91 
Q 1119 -91 703 423 
Q 288 938 288 1747 
Q 288 2556 703 3070 
Q 1119 3584 1766 3584 
Q 2128 3584 2408 3439 
Q 2688 3294 2919 2988 
z
M 2181 722 
Q 2541 722 2730 984 
Q 2919 1247 2919 1747 
Q 2919 2247 2730 2509 
Q 2541 2772 2181 2772 
Q 1825 2772 1636 2509 
Q 1447 2247 1447 1747 
Q 1447 1247 1636 984 
Q 1825 722 2181 722 
z
" transform="scale(0.015625)"/>
        <path id="DejaVuSans-Bold-69" d="M 538 3500 
L 1656 3500 
L 1656 0 
L 538 0 
L 538 3500 
z
M 538 4863 
L 1656 4863 
L 1656 3950 
L 538 3950 
L 538 4863 
z
" transform="scale(0.015625)"/>
        <path id="DejaVuSans-Bold-6f" d="M 2203 2784 
Q 1831 2784 1636 2517 
Q 1441 2250 1441 1747 
Q 1441 1244 1636 976 
Q 1831 709 2203 709 
Q 2569 709 2762 976 
Q 2956 1244 2956 1747 
Q 2956 2250 2762 2517 
Q 2569 2784 2203 2784 
z
M 2203 3584 
Q 3106 3584 3614 3096 
Q 4122 2609 4122 1747 
Q 4122 884 3614 396 
Q 3106 -91 2203 -91 
Q 1297 -91 786 396 
Q 275 884 275 1747 
Q 275 2609 786 3096 
Q 1297 3584 2203 3584 
z
" transform="scale(0.015625)"/>
       </defs>
       <use xlink:href="#DejaVuSans-Bold-41"/>
       <use xlink:href="#DejaVuSans-Bold-75" transform="translate(77.392578 0)"/>
       <use xlink:href="#DejaVuSans-Bold-64" transform="translate(148.583984 0)"/>
       <use xlink:href="#DejaVuSans-Bold-69" transform="translate(220.166016 0)"/>
       <use xlink:href="#DejaVuSans-Bold-6f" transform="translate(254.443359 0)"/>
      </g>
     </g>
    </g>
    <g id="xtick_2">
     <g id="line2d_2">
      <path d="M 333.1875 259.9 
L 534.98649 186.451174 
" clip-path="url(#pa4664dc740)" style="fill: none; stroke-dasharray: 1.85,0.8; stroke-dashoffset: 0; stroke: #cccccc; stroke-width: 0.5"/>
     </g>
     <g id="text_2">
      <!-- Business &amp; -->
      <g transform="translate(558.948652 174.851067) scale(0.1 -0.1)">
       <defs>
        <path id="DejaVuSans-Bold-42" d="M 2456 2859 
Q 2741 2859 2887 2984 
Q 3034 3109 3034 3353 
Q 3034 3594 2887 3720 
Q 2741 3847 2456 3847 
L 1791 3847 
L 1791 2859 
L 2456 2859 
z
M 2497 819 
Q 2859 819 3042 972 
Q 3225 1125 3225 1434 
Q 3225 1738 3044 1889 
Q 2863 2041 2497 2041 
L 1791 2041 
L 1791 819 
L 2497 819 
z
M 3616 2497 
Q 4003 2384 4215 2081 
Q 4428 1778 4428 1338 
Q 4428 663 3972 331 
Q 3516 0 2584 0 
L 588 0 
L 588 4666 
L 2394 4666 
Q 3366 4666 3802 4372 
Q 4238 4078 4238 3431 
Q 4238 3091 4078 2852 
Q 3919 2613 3616 2497 
z
" transform="scale(0.015625)"/>
        <path id="DejaVuSans-Bold-73" d="M 3272 3391 
L 3272 2541 
Q 2913 2691 2578 2766 
Q 2244 2841 1947 2841 
Q 1628 2841 1473 2761 
Q 1319 2681 1319 2516 
Q 1319 2381 1436 2309 
Q 1553 2238 1856 2203 
L 2053 2175 
Q 2913 2066 3209 1816 
Q 3506 1566 3506 1031 
Q 3506 472 3093 190 
Q 2681 -91 1863 -91 
Q 1516 -91 1145 -36 
Q 775 19 384 128 
L 384 978 
Q 719 816 1070 734 
Q 1422 653 1784 653 
Q 2113 653 2278 743 
Q 2444 834 2444 1013 
Q 2444 1163 2330 1236 
Q 2216 1309 1875 1350 
L 1678 1375 
Q 931 1469 631 1722 
Q 331 1975 331 2491 
Q 331 3047 712 3315 
Q 1094 3584 1881 3584 
Q 2191 3584 2531 3537 
Q 2872 3491 3272 3391 
z
" transform="scale(0.015625)"/>
        <path id="DejaVuSans-Bold-6e" d="M 4056 2131 
L 4056 0 
L 2931 0 
L 2931 347 
L 2931 1631 
Q 2931 2084 2911 2256 
Q 2891 2428 2841 2509 
Q 2775 2619 2662 2680 
Q 2550 2741 2406 2741 
Q 2056 2741 1856 2470 
Q 1656 2200 1656 1722 
L 1656 0 
L 538 0 
L 538 3500 
L 1656 3500 
L 1656 2988 
Q 1909 3294 2193 3439 
Q 2478 3584 2822 3584 
Q 3428 3584 3742 3212 
Q 4056 2841 4056 2131 
z
" transform="scale(0.015625)"/>
        <path id="DejaVuSans-Bold-65" d="M 4031 1759 
L 4031 1441 
L 1416 1441 
Q 1456 1047 1700 850 
Q 1944 653 2381 653 
Q 2734 653 3104 758 
Q 3475 863 3866 1075 
L 3866 213 
Q 3469 63 3072 -14 
Q 2675 -91 2278 -91 
Q 1328 -91 801 392 
Q 275 875 275 1747 
Q 275 2603 792 3093 
Q 1309 3584 2216 3584 
Q 3041 3584 3536 3087 
Q 4031 2591 4031 1759 
z
M 2881 2131 
Q 2881 2450 2695 2645 
Q 2509 2841 2209 2841 
Q 1884 2841 1681 2658 
Q 1478 2475 1428 2131 
L 2881 2131 
z
" transform="scale(0.015625)"/>
        <path id="DejaVuSans-Bold-20" transform="scale(0.015625)"/>
        <path id="DejaVuSans-Bold-26" d="M 2497 3097 
L 3775 1691 
Q 3941 1909 4027 2181 
Q 4113 2453 4128 2797 
L 5100 2797 
Q 5053 2228 4879 1784 
Q 4706 1341 4397 1006 
L 5313 0 
L 3988 0 
L 3681 341 
Q 3353 122 2990 15 
Q 2628 -91 2222 -91 
Q 1400 -91 892 342 
Q 384 775 384 1459 
Q 384 1916 607 2267 
Q 831 2619 1338 2950 
Q 1206 3116 1143 3281 
Q 1081 3447 1081 3628 
Q 1081 4138 1478 4444 
Q 1875 4750 2534 4750 
Q 2819 4750 3126 4704 
Q 3434 4659 3769 4569 
L 3769 3700 
Q 3475 3850 3212 3922 
Q 2950 3994 2700 3994 
Q 2459 3994 2326 3901 
Q 2194 3809 2194 3641 
Q 2194 3534 2270 3398 
Q 2347 3263 2497 3097 
z
M 1875 2322 
Q 1672 2175 1569 1989 
Q 1466 1803 1466 1581 
Q 1466 1222 1731 969 
Q 1997 716 2369 716 
Q 2578 716 2759 780 
Q 2941 844 3097 972 
L 1875 2322 
z
" transform="scale(0.015625)"/>
       </defs>
       <use xlink:href="#DejaVuSans-Bold-42"/>
       <use xlink:href="#DejaVuSans-Bold-75" transform="translate(76.220703 0)"/>
       <use xlink:href="#DejaVuSans-Bold-73" transform="translate(147.412109 0)"/>
       <use xlink:href="#DejaVuSans-Bold-69" transform="translate(206.933594 0)"/>
       <use xlink:href="#DejaVuSans-Bold-6e" transform="translate(241.210938 0)"/>
       <use xlink:href="#DejaVuSans-Bold-65" transform="translate(312.402344 0)"/>
       <use xlink:href="#DejaVuSans-Bold-73" transform="translate(380.224609 0)"/>
       <use xlink:href="#DejaVuSans-Bold-73" transform="translate(439.746094 0)"/>
       <use xlink:href="#DejaVuSans-Bold-20" transform="translate(499.267578 0)"/>
       <use xlink:href="#DejaVuSans-Bold-26" transform="translate(534.082031 0)"/>
      </g>
      <!-- Economy -->
      <g transform="translate(558.948652 186.048879) scale(0.1 -0.1)">
       <defs>
        <path id="DejaVuSans-Bold-45" d="M 588 4666 
L 3834 4666 
L 3834 3756 
L 1791 3756 
L 1791 2888 
L 3713 2888 
L 3713 1978 
L 1791 1978 
L 1791 909 
L 3903 909 
L 3903 0 
L 588 0 
L 588 4666 
z
" transform="scale(0.015625)"/>
        <path id="DejaVuSans-Bold-63" d="M 3366 3391 
L 3366 2478 
Q 3138 2634 2908 2709 
Q 2678 2784 2431 2784 
Q 1963 2784 1702 2511 
Q 1441 2238 1441 1747 
Q 1441 1256 1702 982 
Q 1963 709 2431 709 
Q 2694 709 2930 787 
Q 3166 866 3366 1019 
L 3366 103 
Q 3103 6 2833 -42 
Q 2563 -91 2291 -91 
Q 1344 -91 809 395 
Q 275 881 275 1747 
Q 275 2613 809 3098 
Q 1344 3584 2291 3584 
Q 2566 3584 2833 3536 
Q 3100 3488 3366 3391 
z
" transform="scale(0.015625)"/>
        <path id="DejaVuSans-Bold-6d" d="M 3781 2919 
Q 3994 3244 4286 3414 
Q 4578 3584 4928 3584 
Q 5531 3584 5847 3212 
Q 6163 2841 6163 2131 
L 6163 0 
L 5038 0 
L 5038 1825 
Q 5041 1866 5042 1909 
Q 5044 1953 5044 2034 
Q 5044 2406 4934 2573 
Q 4825 2741 4581 2741 
Q 4263 2741 4089 2478 
Q 3916 2216 3909 1719 
L 3909 0 
L 2784 0 
L 2784 1825 
Q 2784 2406 2684 2573 
Q 2584 2741 2328 2741 
Q 2006 2741 1831 2477 
Q 1656 2213 1656 1722 
L 1656 0 
L 531 0 
L 531 3500 
L 1656 3500 
L 1656 2988 
Q 1863 3284 2130 3434 
Q 2397 3584 2719 3584 
Q 3081 3584 3359 3409 
Q 3638 3234 3781 2919 
z
" transform="scale(0.015625)"/>
        <path id="DejaVuSans-Bold-79" d="M 78 3500 
L 1197 3500 
L 2138 1125 
L 2938 3500 
L 4056 3500 
L 2584 -331 
Q 2363 -916 2067 -1148 
Q 1772 -1381 1288 -1381 
L 641 -1381 
L 641 -647 
L 991 -647 
Q 1275 -647 1404 -556 
Q 1534 -466 1606 -231 
L 1638 -134 
L 78 3500 
z
" transform="scale(0.015625)"/>
       </defs>
       <use xlink:href="#DejaVuSans-Bold-45"/>
       <use xlink:href="#DejaVuSans-Bold-63" transform="translate(68.310547 0)"/>
       <use xlink:href="#DejaVuSans-Bold-6f" transform="translate(127.587891 0)"/>
       <use xlink:href="#DejaVuSans-Bold-6e" transform="translate(196.289062 0)"/>
       <use xlink:href="#DejaVuSans-Bold-6f" transform="translate(267.480469 0)"/>
       <use xlink:href="#DejaVuSans-Bold-6d" transform="translate(336.181641 0)"/>
       <use xlink:href="#DejaVuSans-Bold-79" transform="translate(440.380859 0)"/>
      </g>
     </g>
    </g>
    <g id="xtick_3">
     <g id="line2d_3">
      <path d="M 333.1875 259.9 
L 497.695544 121.861361 
" clip-path="url(#pa4664dc740)" style="fill: none; stroke-dasharray: 1.85,0.8; stroke-dashoffset: 0; stroke: #cccccc; stroke-width: 0.5"/>
     </g>
     <g id="text_3">
      <!-- Computer -->
      <g transform="translate(517.229677 102.630746) scale(0.1 -0.1)">
       <defs>
        <path id="DejaVuSans-Bold-43" d="M 4288 256 
Q 3956 84 3597 -3 
Q 3238 -91 2847 -91 
Q 1681 -91 1000 561 
Q 319 1213 319 2328 
Q 319 3447 1000 4098 
Q 1681 4750 2847 4750 
Q 3238 4750 3597 4662 
Q 3956 4575 4288 4403 
L 4288 3438 
Q 3953 3666 3628 3772 
Q 3303 3878 2944 3878 
Q 2300 3878 1931 3465 
Q 1563 3053 1563 2328 
Q 1563 1606 1931 1193 
Q 2300 781 2944 781 
Q 3303 781 3628 887 
Q 3953 994 4288 1222 
L 4288 256 
z
" transform="scale(0.015625)"/>
        <path id="DejaVuSans-Bold-70" d="M 1656 506 
L 1656 -1331 
L 538 -1331 
L 538 3500 
L 1656 3500 
L 1656 2988 
Q 1888 3294 2169 3439 
Q 2450 3584 2816 3584 
Q 3463 3584 3878 3070 
Q 4294 2556 4294 1747 
Q 4294 938 3878 423 
Q 3463 -91 2816 -91 
Q 2450 -91 2169 54 
Q 1888 200 1656 506 
z
M 2400 2772 
Q 2041 2772 1848 2508 
Q 1656 2244 1656 1747 
Q 1656 1250 1848 986 
Q 2041 722 2400 722 
Q 2759 722 2948 984 
Q 3138 1247 3138 1747 
Q 3138 2247 2948 2509 
Q 2759 2772 2400 2772 
z
" transform="scale(0.015625)"/>
        <path id="DejaVuSans-Bold-74" d="M 1759 4494 
L 1759 3500 
L 2913 3500 
L 2913 2700 
L 1759 2700 
L 1759 1216 
Q 1759 972 1856 886 
Q 1953 800 2241 800 
L 2816 800 
L 2816 0 
L 1856 0 
Q 1194 0 917 276 
Q 641 553 641 1216 
L 641 2700 
L 84 2700 
L 84 3500 
L 641 3500 
L 641 4494 
L 1759 4494 
z
" transform="scale(0.015625)"/>
        <path id="DejaVuSans-Bold-72" d="M 3138 2547 
Q 2991 2616 2845 2648 
Q 2700 2681 2553 2681 
Q 2122 2681 1889 2404 
Q 1656 2128 1656 1613 
L 1656 0 
L 538 0 
L 538 3500 
L 1656 3500 
L 1656 2925 
Q 1872 3269 2151 3426 
Q 2431 3584 2822 3584 
Q 2878 3584 2943 3579 
Q 3009 3575 3134 3559 
L 3138 2547 
z
" transform="scale(0.015625)"/>
       </defs>
       <use xlink:href="#DejaVuSans-Bold-43"/>
       <use xlink:href="#DejaVuSans-Bold-6f" transform="translate(73.388672 0)"/>
       <use xlink:href="#DejaVuSans-Bold-6d" transform="translate(142.089844 0)"/>
       <use xlink:href="#DejaVuSans-Bold-70" transform="translate(246.289062 0)"/>
       <use xlink:href="#DejaVuSans-Bold-75" transform="translate(317.871094 0)"/>
       <use xlink:href="#DejaVuSans-Bold-74" transform="translate(389.0625 0)"/>
       <use xlink:href="#DejaVuSans-Bold-65" transform="translate(436.865234 0)"/>
       <use xlink:href="#DejaVuSans-Bold-72" transform="translate(504.6875 0)"/>
      </g>
      <!-- Science -->
      <g transform="translate(517.229677 113.828558) scale(0.1 -0.1)">
       <defs>
        <path id="DejaVuSans-Bold-53" d="M 3834 4519 
L 3834 3531 
Q 3450 3703 3084 3790 
Q 2719 3878 2394 3878 
Q 1963 3878 1756 3759 
Q 1550 3641 1550 3391 
Q 1550 3203 1689 3098 
Q 1828 2994 2194 2919 
L 2706 2816 
Q 3484 2659 3812 2340 
Q 4141 2022 4141 1434 
Q 4141 663 3683 286 
Q 3225 -91 2284 -91 
Q 1841 -91 1394 -6 
Q 947 78 500 244 
L 500 1259 
Q 947 1022 1364 901 
Q 1781 781 2169 781 
Q 2563 781 2772 912 
Q 2981 1044 2981 1288 
Q 2981 1506 2839 1625 
Q 2697 1744 2272 1838 
L 1806 1941 
Q 1106 2091 782 2419 
Q 459 2747 459 3303 
Q 459 4000 909 4375 
Q 1359 4750 2203 4750 
Q 2588 4750 2994 4692 
Q 3400 4634 3834 4519 
z
" transform="scale(0.015625)"/>
       </defs>
       <use xlink:href="#DejaVuSans-Bold-53"/>
       <use xlink:href="#DejaVuSans-Bold-63" transform="translate(72.021484 0)"/>
       <use xlink:href="#DejaVuSans-Bold-69" transform="translate(131.298828 0)"/>
       <use xlink:href="#DejaVuSans-Bold-65" transform="translate(165.576172 0)"/>
       <use xlink:href="#DejaVuSans-Bold-6e" transform="translate(233.398438 0)"/>
       <use xlink:href="#DejaVuSans-Bold-63" transform="translate(304.589844 0)"/>
       <use xlink:href="#DejaVuSans-Bold-65" transform="translate(363.867188 0)"/>
      </g>
     </g>
    </g>
    <g id="xtick_4">
     <g id="line2d_4">
      <path d="M 333.1875 259.9 
L 440.5625 73.921045 
" clip-path="url(#pa4664dc740)" style="fill: none; stroke-dasharray: 1.85,0.8; stroke-dashoffset: 0; stroke: #cccccc; stroke-width: 0.5"/>
     </g>
     <g id="text_4">
      <!-- Cultural &amp; -->
      <g transform="translate(453.3125 43.359897) scale(0.1 -0.1)">
       <defs>
        <path id="DejaVuSans-Bold-6c" d="M 538 4863 
L 1656 4863 
L 1656 0 
L 538 0 
L 538 4863 
z
" transform="scale(0.015625)"/>
        <path id="DejaVuSans-Bold-61" d="M 2106 1575 
Q 1756 1575 1579 1456 
Q 1403 1338 1403 1106 
Q 1403 894 1545 773 
Q 1688 653 1941 653 
Q 2256 653 2472 879 
Q 2688 1106 2688 1447 
L 2688 1575 
L 2106 1575 
z
M 3816 1997 
L 3816 0 
L 2688 0 
L 2688 519 
Q 2463 200 2181 54 
Q 1900 -91 1497 -91 
Q 953 -91 614 226 
Q 275 544 275 1050 
Q 275 1666 698 1953 
Q 1122 2241 2028 2241 
L 2688 2241 
L 2688 2328 
Q 2688 2594 2478 2717 
Q 2269 2841 1825 2841 
Q 1466 2841 1156 2769 
Q 847 2697 581 2553 
L 581 3406 
Q 941 3494 1303 3539 
Q 1666 3584 2028 3584 
Q 2975 3584 3395 3211 
Q 3816 2838 3816 1997 
z
" transform="scale(0.015625)"/>
       </defs>
       <use xlink:href="#DejaVuSans-Bold-43"/>
       <use xlink:href="#DejaVuSans-Bold-75" transform="translate(73.388672 0)"/>
       <use xlink:href="#DejaVuSans-Bold-6c" transform="translate(144.580078 0)"/>
       <use xlink:href="#DejaVuSans-Bold-74" transform="translate(178.857422 0)"/>
       <use xlink:href="#DejaVuSans-Bold-75" transform="translate(226.660156 0)"/>
       <use xlink:href="#DejaVuSans-Bold-72" transform="translate(297.851562 0)"/>
       <use xlink:href="#DejaVuSans-Bold-61" transform="translate(347.167969 0)"/>
       <use xlink:href="#DejaVuSans-Bold-6c" transform="translate(414.648438 0)"/>
       <use xlink:href="#DejaVuSans-Bold-20" transform="translate(448.925781 0)"/>
       <use xlink:href="#DejaVuSans-Bold-26" transform="translate(483.740234 0)"/>
      </g>
      <!-- Historical -->
      <g transform="translate(453.3125 54.557709) scale(0.1 -0.1)">
       <defs>
        <path id="DejaVuSans-Bold-48" d="M 588 4666 
L 1791 4666 
L 1791 2888 
L 3566 2888 
L 3566 4666 
L 4769 4666 
L 4769 0 
L 3566 0 
L 3566 1978 
L 1791 1978 
L 1791 0 
L 588 0 
L 588 4666 
z
" transform="scale(0.015625)"/>
       </defs>
       <use xlink:href="#DejaVuSans-Bold-48"/>
       <use xlink:href="#DejaVuSans-Bold-69" transform="translate(83.691406 0)"/>
       <use xlink:href="#DejaVuSans-Bold-73" transform="translate(117.96875 0)"/>
       <use xlink:href="#DejaVuSans-Bold-74" transform="translate(177.490234 0)"/>
       <use xlink:href="#DejaVuSans-Bold-6f" transform="translate(225.292969 0)"/>
       <use xlink:href="#DejaVuSans-Bold-72" transform="translate(293.994141 0)"/>
       <use xlink:href="#DejaVuSans-Bold-69" transform="translate(343.310547 0)"/>
       <use xlink:href="#DejaVuSans-Bold-63" transform="translate(377.587891 0)"/>
       <use xlink:href="#DejaVuSans-Bold-61" transform="translate(436.865234 0)"/>
       <use xlink:href="#DejaVuSans-Bold-6c" transform="translate(504.345703 0)"/>
      </g>
      <!-- Heritage -->
      <g transform="translate(453.3125 65.755522) scale(0.1 -0.1)">
       <defs>
        <path id="DejaVuSans-Bold-67" d="M 2919 594 
Q 2688 288 2409 144 
Q 2131 0 1766 0 
Q 1125 0 706 504 
Q 288 1009 288 1791 
Q 288 2575 706 3076 
Q 1125 3578 1766 3578 
Q 2131 3578 2409 3434 
Q 2688 3291 2919 2981 
L 2919 3500 
L 4044 3500 
L 4044 353 
Q 4044 -491 3511 -936 
Q 2978 -1381 1966 -1381 
Q 1638 -1381 1331 -1331 
Q 1025 -1281 716 -1178 
L 716 -306 
Q 1009 -475 1290 -558 
Q 1572 -641 1856 -641 
Q 2406 -641 2662 -400 
Q 2919 -159 2919 353 
L 2919 594 
z
M 2181 2772 
Q 1834 2772 1640 2515 
Q 1447 2259 1447 1791 
Q 1447 1309 1634 1061 
Q 1822 813 2181 813 
Q 2531 813 2725 1069 
Q 2919 1325 2919 1791 
Q 2919 2259 2725 2515 
Q 2531 2772 2181 2772 
z
" transform="scale(0.015625)"/>
       </defs>
       <use xlink:href="#DejaVuSans-Bold-48"/>
       <use xlink:href="#DejaVuSans-Bold-65" transform="translate(83.691406 0)"/>
       <use xlink:href="#DejaVuSans-Bold-72" transform="translate(151.513672 0)"/>
       <use xlink:href="#DejaVuSans-Bold-69" transform="translate(200.830078 0)"/>
       <use xlink:href="#DejaVuSans-Bold-74" transform="translate(235.107422 0)"/>
       <use xlink:href="#DejaVuSans-Bold-61" transform="translate(282.910156 0)"/>
       <use xlink:href="#DejaVuSans-Bold-67" transform="translate(350.390625 0)"/>
       <use xlink:href="#DejaVuSans-Bold-65" transform="translate(421.972656 0)"/>
      </g>
     </g>
    </g>
    <g id="xtick_5">
     <g id="line2d_5">
      <path d="M 333.1875 259.9 
L 370.478446 48.412535 
" clip-path="url(#pa4664dc740)" style="fill: none; stroke-dasharray: 1.85,0.8; stroke-dashoffset: 0; stroke: #cccccc; stroke-width: 0.5"/>
     </g>
     <g id="text_5">
      <!-- Education &amp; -->
      <g transform="translate(374.906475 20.460406) scale(0.1 -0.1)">
       <use xlink:href="#DejaVuSans-Bold-45"/>
       <use xlink:href="#DejaVuSans-Bold-64" transform="translate(68.310547 0)"/>
       <use xlink:href="#DejaVuSans-Bold-75" transform="translate(139.892578 0)"/>
       <use xlink:href="#DejaVuSans-Bold-63" transform="translate(211.083984 0)"/>
       <use xlink:href="#DejaVuSans-Bold-61" transform="translate(270.361328 0)"/>
       <use xlink:href="#DejaVuSans-Bold-74" transform="translate(337.841797 0)"/>
       <use xlink:href="#DejaVuSans-Bold-69" transform="translate(385.644531 0)"/>
       <use xlink:href="#DejaVuSans-Bold-6f" transform="translate(419.921875 0)"/>
       <use xlink:href="#DejaVuSans-Bold-6e" transform="translate(488.623047 0)"/>
       <use xlink:href="#DejaVuSans-Bold-20" transform="translate(559.814453 0)"/>
       <use xlink:href="#DejaVuSans-Bold-26" transform="translate(594.628906 0)"/>
      </g>
      <!-- Academia -->
      <g transform="translate(374.906475 31.658219) scale(0.1 -0.1)">
       <use xlink:href="#DejaVuSans-Bold-41"/>
       <use xlink:href="#DejaVuSans-Bold-63" transform="translate(77.392578 0)"/>
       <use xlink:href="#DejaVuSans-Bold-61" transform="translate(136.669922 0)"/>
       <use xlink:href="#DejaVuSans-Bold-64" transform="translate(204.150391 0)"/>
       <use xlink:href="#DejaVuSans-Bold-65" transform="translate(275.732422 0)"/>
       <use xlink:href="#DejaVuSans-Bold-6d" transform="translate(343.554688 0)"/>
       <use xlink:href="#DejaVuSans-Bold-69" transform="translate(447.753906 0)"/>
       <use xlink:href="#DejaVuSans-Bold-61" transform="translate(482.03125 0)"/>
      </g>
     </g>
    </g>
    <g id="xtick_6">
     <g id="line2d_6">
      <path d="M 333.1875 259.9 
L 295.896554 48.412535 
" clip-path="url(#pa4664dc740)" style="fill: none; stroke-dasharray: 1.85,0.8; stroke-dashoffset: 0; stroke: #cccccc; stroke-width: 0.5"/>
     </g>
     <g id="text_6">
      <!-- Gaming -->
      <g transform="translate(248.387275 26.02025) scale(0.1 -0.1)">
       <defs>
        <path id="DejaVuSans-Bold-47" d="M 4781 347 
Q 4331 128 3847 18 
Q 3363 -91 2847 -91 
Q 1681 -91 1000 561 
Q 319 1213 319 2328 
Q 319 3456 1012 4103 
Q 1706 4750 2913 4750 
Q 3378 4750 3804 4662 
Q 4231 4575 4609 4403 
L 4609 3438 
Q 4219 3659 3833 3768 
Q 3447 3878 3059 3878 
Q 2341 3878 1952 3476 
Q 1563 3075 1563 2328 
Q 1563 1588 1938 1184 
Q 2313 781 3003 781 
Q 3191 781 3352 804 
Q 3513 828 3641 878 
L 3641 1784 
L 2906 1784 
L 2906 2591 
L 4781 2591 
L 4781 347 
z
" transform="scale(0.015625)"/>
       </defs>
       <use xlink:href="#DejaVuSans-Bold-47"/>
       <use xlink:href="#DejaVuSans-Bold-61" transform="translate(82.080078 0)"/>
       <use xlink:href="#DejaVuSans-Bold-6d" transform="translate(149.560547 0)"/>
       <use xlink:href="#DejaVuSans-Bold-69" transform="translate(253.759766 0)"/>
       <use xlink:href="#DejaVuSans-Bold-6e" transform="translate(288.037109 0)"/>
       <use xlink:href="#DejaVuSans-Bold-67" transform="translate(359.228516 0)"/>
      </g>
     </g>
    </g>
    <g id="xtick_7">
     <g id="line2d_7">
      <path d="M 333.1875 259.9 
L 225.8125 73.921045 
" clip-path="url(#pa4664dc740)" style="fill: none; stroke-dasharray: 1.85,0.8; stroke-dashoffset: 0; stroke: #cccccc; stroke-width: 0.5"/>
     </g>
     <g id="text_7">
      <!-- Governance -->
      <g transform="translate(146.054688 54.596772) scale(0.1 -0.1)">
       <defs>
        <path id="DejaVuSans-Bold-76" d="M 97 3500 
L 1216 3500 
L 2088 1081 
L 2956 3500 
L 4078 3500 
L 2700 0 
L 1472 0 
L 97 3500 
z
" transform="scale(0.015625)"/>
       </defs>
       <use xlink:href="#DejaVuSans-Bold-47"/>
       <use xlink:href="#DejaVuSans-Bold-6f" transform="translate(82.080078 0)"/>
       <use xlink:href="#DejaVuSans-Bold-76" transform="translate(150.78125 0)"/>
       <use xlink:href="#DejaVuSans-Bold-65" transform="translate(215.966797 0)"/>
       <use xlink:href="#DejaVuSans-Bold-72" transform="translate(283.789062 0)"/>
       <use xlink:href="#DejaVuSans-Bold-6e" transform="translate(333.105469 0)"/>
       <use xlink:href="#DejaVuSans-Bold-61" transform="translate(404.296875 0)"/>
       <use xlink:href="#DejaVuSans-Bold-6e" transform="translate(471.777344 0)"/>
       <use xlink:href="#DejaVuSans-Bold-63" transform="translate(542.96875 0)"/>
       <use xlink:href="#DejaVuSans-Bold-65" transform="translate(602.246094 0)"/>
      </g>
     </g>
    </g>
    <g id="xtick_8">
     <g id="line2d_8">
      <path d="M 333.1875 259.9 
L 168.679456 121.861361 
" clip-path="url(#pa4664dc740)" style="fill: none; stroke-dasharray: 1.85,0.8; stroke-dashoffset: 0; stroke: #cccccc; stroke-width: 0.5"/>
     </g>
     <g id="text_8">
      <!-- Infrastructure -->
      <g transform="translate(69.954698 108.229652) scale(0.1 -0.1)">
       <defs>
        <path id="DejaVuSans-Bold-49" d="M 588 4666 
L 1791 4666 
L 1791 0 
L 588 0 
L 588 4666 
z
" transform="scale(0.015625)"/>
        <path id="DejaVuSans-Bold-66" d="M 2841 4863 
L 2841 4128 
L 2222 4128 
Q 1984 4128 1890 4042 
Q 1797 3956 1797 3744 
L 1797 3500 
L 2753 3500 
L 2753 2700 
L 1797 2700 
L 1797 0 
L 678 0 
L 678 2700 
L 122 2700 
L 122 3500 
L 678 3500 
L 678 3744 
Q 678 4316 997 4589 
Q 1316 4863 1984 4863 
L 2841 4863 
z
" transform="scale(0.015625)"/>
       </defs>
       <use xlink:href="#DejaVuSans-Bold-49"/>
       <use xlink:href="#DejaVuSans-Bold-6e" transform="translate(37.207031 0)"/>
       <use xlink:href="#DejaVuSans-Bold-66" transform="translate(108.398438 0)"/>
       <use xlink:href="#DejaVuSans-Bold-72" transform="translate(151.904297 0)"/>
       <use xlink:href="#DejaVuSans-Bold-61" transform="translate(201.220703 0)"/>
       <use xlink:href="#DejaVuSans-Bold-73" transform="translate(268.701172 0)"/>
       <use xlink:href="#DejaVuSans-Bold-74" transform="translate(328.222656 0)"/>
       <use xlink:href="#DejaVuSans-Bold-72" transform="translate(376.025391 0)"/>
       <use xlink:href="#DejaVuSans-Bold-75" transform="translate(425.341797 0)"/>
       <use xlink:href="#DejaVuSans-Bold-63" transform="translate(496.533203 0)"/>
       <use xlink:href="#DejaVuSans-Bold-74" transform="translate(555.810547 0)"/>
       <use xlink:href="#DejaVuSans-Bold-75" transform="translate(603.613281 0)"/>
       <use xlink:href="#DejaVuSans-Bold-72" transform="translate(674.804688 0)"/>
       <use xlink:href="#DejaVuSans-Bold-65" transform="translate(724.121094 0)"/>
      </g>
     </g>
    </g>
    <g id="xtick_9">
     <g id="line2d_9">
      <path d="M 333.1875 259.9 
L 131.38851 186.451174 
" clip-path="url(#pa4664dc740)" style="fill: none; stroke-dasharray: 1.85,0.8; stroke-dashoffset: 0; stroke: #cccccc; stroke-width: 0.5"/>
     </g>
     <g id="text_9">
      <!-- Language -->
      <g transform="translate(52.22166 180.410911) scale(0.1 -0.1)">
       <defs>
        <path id="DejaVuSans-Bold-4c" d="M 588 4666 
L 1791 4666 
L 1791 909 
L 3903 909 
L 3903 0 
L 588 0 
L 588 4666 
z
" transform="scale(0.015625)"/>
       </defs>
       <use xlink:href="#DejaVuSans-Bold-4c"/>
       <use xlink:href="#DejaVuSans-Bold-61" transform="translate(63.720703 0)"/>
       <use xlink:href="#DejaVuSans-Bold-6e" transform="translate(131.201172 0)"/>
       <use xlink:href="#DejaVuSans-Bold-67" transform="translate(202.392578 0)"/>
       <use xlink:href="#DejaVuSans-Bold-75" transform="translate(273.974609 0)"/>
       <use xlink:href="#DejaVuSans-Bold-61" transform="translate(345.166016 0)"/>
       <use xlink:href="#DejaVuSans-Bold-67" transform="translate(412.646484 0)"/>
       <use xlink:href="#DejaVuSans-Bold-65" transform="translate(484.228516 0)"/>
      </g>
     </g>
    </g>
    <g id="xtick_10">
     <g id="line2d_10">
      <path d="M 333.1875 259.9 
L 118.4375 259.9 
" clip-path="url(#pa4664dc740)" style="fill: none; stroke-dasharray: 1.85,0.8; stroke-dashoffset: 0; stroke: #cccccc; stroke-width: 0.5"/>
     </g>
     <g id="text_10">
      <!-- Life Sciences &amp; -->
      <g transform="translate(7.2 257.060469) scale(0.1 -0.1)">
       <use xlink:href="#DejaVuSans-Bold-4c"/>
       <use xlink:href="#DejaVuSans-Bold-69" transform="translate(63.720703 0)"/>
       <use xlink:href="#DejaVuSans-Bold-66" transform="translate(97.998047 0)"/>
       <use xlink:href="#DejaVuSans-Bold-65" transform="translate(141.503906 0)"/>
       <use xlink:href="#DejaVuSans-Bold-20" transform="translate(209.326172 0)"/>
       <use xlink:href="#DejaVuSans-Bold-53" transform="translate(244.140625 0)"/>
       <use xlink:href="#DejaVuSans-Bold-63" transform="translate(316.162109 0)"/>
       <use xlink:href="#DejaVuSans-Bold-69" transform="translate(375.439453 0)"/>
       <use xlink:href="#DejaVuSans-Bold-65" transform="translate(409.716797 0)"/>
       <use xlink:href="#DejaVuSans-Bold-6e" transform="translate(477.539062 0)"/>
       <use xlink:href="#DejaVuSans-Bold-63" transform="translate(548.730469 0)"/>
       <use xlink:href="#DejaVuSans-Bold-65" transform="translate(608.007812 0)"/>
       <use xlink:href="#DejaVuSans-Bold-73" transform="translate(675.830078 0)"/>
       <use xlink:href="#DejaVuSans-Bold-20" transform="translate(735.351562 0)"/>
       <use xlink:href="#DejaVuSans-Bold-26" transform="translate(770.166016 0)"/>
      </g>
      <!-- Medicine -->
      <g transform="translate(42.359375 268.258281) scale(0.1 -0.1)">
       <defs>
        <path id="DejaVuSans-Bold-4d" d="M 588 4666 
L 2119 4666 
L 3181 2169 
L 4250 4666 
L 5778 4666 
L 5778 0 
L 4641 0 
L 4641 3413 
L 3566 897 
L 2803 897 
L 1728 3413 
L 1728 0 
L 588 0 
L 588 4666 
z
" transform="scale(0.015625)"/>
       </defs>
       <use xlink:href="#DejaVuSans-Bold-4d"/>
       <use xlink:href="#DejaVuSans-Bold-65" transform="translate(99.511719 0)"/>
       <use xlink:href="#DejaVuSans-Bold-64" transform="translate(167.333984 0)"/>
       <use xlink:href="#DejaVuSans-Bold-69" transform="translate(238.916016 0)"/>
       <use xlink:href="#DejaVuSans-Bold-63" transform="translate(273.193359 0)"/>
       <use xlink:href="#DejaVuSans-Bold-69" transform="translate(332.470703 0)"/>
       <use xlink:href="#DejaVuSans-Bold-6e" transform="translate(366.748047 0)"/>
       <use xlink:href="#DejaVuSans-Bold-65" transform="translate(437.939453 0)"/>
      </g>
     </g>
    </g>
    <g id="xtick_11">
     <g id="line2d_11">
      <path d="M 333.1875 259.9 
L 131.38851 333.348826 
" clip-path="url(#pa4664dc740)" style="fill: none; stroke-dasharray: 1.85,0.8; stroke-dashoffset: 0; stroke: #cccccc; stroke-width: 0.5"/>
     </g>
     <g id="text_11">
      <!-- Machinery -->
      <g transform="translate(48.899785 344.790652) scale(0.1 -0.1)">
       <defs>
        <path id="DejaVuSans-Bold-68" d="M 4056 2131 
L 4056 0 
L 2931 0 
L 2931 347 
L 2931 1625 
Q 2931 2084 2911 2256 
Q 2891 2428 2841 2509 
Q 2775 2619 2662 2680 
Q 2550 2741 2406 2741 
Q 2056 2741 1856 2470 
Q 1656 2200 1656 1722 
L 1656 0 
L 538 0 
L 538 4863 
L 1656 4863 
L 1656 2988 
Q 1909 3294 2193 3439 
Q 2478 3584 2822 3584 
Q 3428 3584 3742 3212 
Q 4056 2841 4056 2131 
z
" transform="scale(0.015625)"/>
       </defs>
       <use xlink:href="#DejaVuSans-Bold-4d"/>
       <use xlink:href="#DejaVuSans-Bold-61" transform="translate(99.511719 0)"/>
       <use xlink:href="#DejaVuSans-Bold-63" transform="translate(166.992188 0)"/>
       <use xlink:href="#DejaVuSans-Bold-68" transform="translate(226.269531 0)"/>
       <use xlink:href="#DejaVuSans-Bold-69" transform="translate(297.460938 0)"/>
       <use xlink:href="#DejaVuSans-Bold-6e" transform="translate(331.738281 0)"/>
       <use xlink:href="#DejaVuSans-Bold-65" transform="translate(402.929688 0)"/>
       <use xlink:href="#DejaVuSans-Bold-72" transform="translate(470.751953 0)"/>
       <use xlink:href="#DejaVuSans-Bold-79" transform="translate(520.068359 0)"/>
      </g>
     </g>
    </g>
    <g id="xtick_12">
     <g id="line2d_12">
      <path d="M 333.1875 259.9 
L 168.679456 397.938639 
" clip-path="url(#pa4664dc740)" style="fill: none; stroke-dasharray: 1.85,0.8; stroke-dashoffset: 0; stroke: #cccccc; stroke-width: 0.5"/>
     </g>
     <g id="text_12">
      <!-- Natural -->
      <g transform="translate(107.021885 411.451129) scale(0.1 -0.1)">
       <defs>
        <path id="DejaVuSans-Bold-4e" d="M 588 4666 
L 1931 4666 
L 3628 1466 
L 3628 4666 
L 4769 4666 
L 4769 0 
L 3425 0 
L 1728 3200 
L 1728 0 
L 588 0 
L 588 4666 
z
" transform="scale(0.015625)"/>
       </defs>
       <use xlink:href="#DejaVuSans-Bold-4e"/>
       <use xlink:href="#DejaVuSans-Bold-61" transform="translate(83.691406 0)"/>
       <use xlink:href="#DejaVuSans-Bold-74" transform="translate(151.171875 0)"/>
       <use xlink:href="#DejaVuSans-Bold-75" transform="translate(198.974609 0)"/>
       <use xlink:href="#DejaVuSans-Bold-72" transform="translate(270.166016 0)"/>
       <use xlink:href="#DejaVuSans-Bold-61" transform="translate(319.482422 0)"/>
       <use xlink:href="#DejaVuSans-Bold-6c" transform="translate(386.962891 0)"/>
      </g>
      <!-- Geography -->
      <g transform="translate(87.651573 422.648942) scale(0.1 -0.1)">
       <use xlink:href="#DejaVuSans-Bold-47"/>
       <use xlink:href="#DejaVuSans-Bold-65" transform="translate(82.080078 0)"/>
       <use xlink:href="#DejaVuSans-Bold-6f" transform="translate(149.902344 0)"/>
       <use xlink:href="#DejaVuSans-Bold-67" transform="translate(218.603516 0)"/>
       <use xlink:href="#DejaVuSans-Bold-72" transform="translate(290.185547 0)"/>
       <use xlink:href="#DejaVuSans-Bold-61" transform="translate(339.501953 0)"/>
       <use xlink:href="#DejaVuSans-Bold-70" transform="translate(406.982422 0)"/>
       <use xlink:href="#DejaVuSans-Bold-68" transform="translate(478.564453 0)"/>
       <use xlink:href="#DejaVuSans-Bold-79" transform="translate(549.755859 0)"/>
      </g>
     </g>
    </g>
    <g id="xtick_13">
     <g id="line2d_13">
      <path d="M 333.1875 259.9 
L 225.8125 445.878955 
" clip-path="url(#pa4664dc740)" style="fill: none; stroke-dasharray: 1.85,0.8; stroke-dashoffset: 0; stroke: #cccccc; stroke-width: 0.5"/>
     </g>
     <g id="text_13">
      <!-- Others -->
      <g transform="translate(174.996875 470.721978) scale(0.1 -0.1)">
       <defs>
        <path id="DejaVuSans-Bold-4f" d="M 2719 3878 
Q 2169 3878 1866 3472 
Q 1563 3066 1563 2328 
Q 1563 1594 1866 1187 
Q 2169 781 2719 781 
Q 3272 781 3575 1187 
Q 3878 1594 3878 2328 
Q 3878 3066 3575 3472 
Q 3272 3878 2719 3878 
z
M 2719 4750 
Q 3844 4750 4481 4106 
Q 5119 3463 5119 2328 
Q 5119 1197 4481 553 
Q 3844 -91 2719 -91 
Q 1597 -91 958 553 
Q 319 1197 319 2328 
Q 319 3463 958 4106 
Q 1597 4750 2719 4750 
z
" transform="scale(0.015625)"/>
       </defs>
       <use xlink:href="#DejaVuSans-Bold-4f"/>
       <use xlink:href="#DejaVuSans-Bold-74" transform="translate(85.009766 0)"/>
       <use xlink:href="#DejaVuSans-Bold-68" transform="translate(132.8125 0)"/>
       <use xlink:href="#DejaVuSans-Bold-65" transform="translate(204.003906 0)"/>
       <use xlink:href="#DejaVuSans-Bold-72" transform="translate(271.826172 0)"/>
       <use xlink:href="#DejaVuSans-Bold-73" transform="translate(321.142578 0)"/>
      </g>
     </g>
    </g>
    <g id="xtick_14">
     <g id="line2d_14">
      <path d="M 333.1875 259.9 
L 295.896554 471.387465 
" clip-path="url(#pa4664dc740)" style="fill: none; stroke-dasharray: 1.85,0.8; stroke-dashoffset: 0; stroke: #cccccc; stroke-width: 0.5"/>
     </g>
     <g id="text_14">
      <!-- People &amp; -->
      <g transform="translate(240.9154 493.621469) scale(0.1 -0.1)">
       <defs>
        <path id="DejaVuSans-Bold-50" d="M 588 4666 
L 2584 4666 
Q 3475 4666 3951 4270 
Q 4428 3875 4428 3144 
Q 4428 2409 3951 2014 
Q 3475 1619 2584 1619 
L 1791 1619 
L 1791 0 
L 588 0 
L 588 4666 
z
M 1791 3794 
L 1791 2491 
L 2456 2491 
Q 2806 2491 2997 2661 
Q 3188 2831 3188 3144 
Q 3188 3456 2997 3625 
Q 2806 3794 2456 3794 
L 1791 3794 
z
" transform="scale(0.015625)"/>
       </defs>
       <use xlink:href="#DejaVuSans-Bold-50"/>
       <use xlink:href="#DejaVuSans-Bold-65" transform="translate(73.291016 0)"/>
       <use xlink:href="#DejaVuSans-Bold-6f" transform="translate(141.113281 0)"/>
       <use xlink:href="#DejaVuSans-Bold-70" transform="translate(209.814453 0)"/>
       <use xlink:href="#DejaVuSans-Bold-6c" transform="translate(281.396484 0)"/>
       <use xlink:href="#DejaVuSans-Bold-65" transform="translate(315.673828 0)"/>
       <use xlink:href="#DejaVuSans-Bold-20" transform="translate(383.496094 0)"/>
       <use xlink:href="#DejaVuSans-Bold-26" transform="translate(418.310547 0)"/>
      </g>
      <!-- Society -->
      <g transform="translate(249.95915 504.819281) scale(0.1 -0.1)">
       <use xlink:href="#DejaVuSans-Bold-53"/>
       <use xlink:href="#DejaVuSans-Bold-6f" transform="translate(72.021484 0)"/>
       <use xlink:href="#DejaVuSans-Bold-63" transform="translate(140.722656 0)"/>
       <use xlink:href="#DejaVuSans-Bold-69" transform="translate(200 0)"/>
       <use xlink:href="#DejaVuSans-Bold-65" transform="translate(234.277344 0)"/>
       <use xlink:href="#DejaVuSans-Bold-74" transform="translate(302.099609 0)"/>
       <use xlink:href="#DejaVuSans-Bold-79" transform="translate(349.902344 0)"/>
      </g>
     </g>
    </g>
    <g id="xtick_15">
     <g id="line2d_15">
      <path d="M 333.1875 259.9 
L 370.478446 471.387465 
" clip-path="url(#pa4664dc740)" style="fill: none; stroke-dasharray: 1.85,0.8; stroke-dashoffset: 0; stroke: #cccccc; stroke-width: 0.5"/>
     </g>
     <g id="text_15">
      <!-- Screen &amp; Print -->
      <g transform="translate(374.906475 493.660531) scale(0.1 -0.1)">
       <use xlink:href="#DejaVuSans-Bold-53"/>
       <use xlink:href="#DejaVuSans-Bold-63" transform="translate(72.021484 0)"/>
       <use xlink:href="#DejaVuSans-Bold-72" transform="translate(131.298828 0)"/>
       <use xlink:href="#DejaVuSans-Bold-65" transform="translate(180.615234 0)"/>
       <use xlink:href="#DejaVuSans-Bold-65" transform="translate(248.4375 0)"/>
       <use xlink:href="#DejaVuSans-Bold-6e" transform="translate(316.259766 0)"/>
       <use xlink:href="#DejaVuSans-Bold-20" transform="translate(387.451172 0)"/>
       <use xlink:href="#DejaVuSans-Bold-26" transform="translate(422.265625 0)"/>
       <use xlink:href="#DejaVuSans-Bold-20" transform="translate(509.472656 0)"/>
       <use xlink:href="#DejaVuSans-Bold-50" transform="translate(544.287109 0)"/>
       <use xlink:href="#DejaVuSans-Bold-72" transform="translate(617.578125 0)"/>
       <use xlink:href="#DejaVuSans-Bold-69" transform="translate(666.894531 0)"/>
       <use xlink:href="#DejaVuSans-Bold-6e" transform="translate(701.171875 0)"/>
       <use xlink:href="#DejaVuSans-Bold-74" transform="translate(772.363281 0)"/>
      </g>
      <!-- Media -->
      <g transform="translate(374.906475 504.858344) scale(0.1 -0.1)">
       <use xlink:href="#DejaVuSans-Bold-4d"/>
       <use xlink:href="#DejaVuSans-Bold-65" transform="translate(99.511719 0)"/>
       <use xlink:href="#DejaVuSans-Bold-64" transform="translate(167.333984 0)"/>
       <use xlink:href="#DejaVuSans-Bold-69" transform="translate(238.916016 0)"/>
       <use xlink:href="#DejaVuSans-Bold-61" transform="translate(273.193359 0)"/>
      </g>
     </g>
    </g>
    <g id="xtick_16">
     <g id="line2d_16">
      <path d="M 333.1875 259.9 
L 440.5625 445.878955 
" clip-path="url(#pa4664dc740)" style="fill: none; stroke-dasharray: 1.85,0.8; stroke-dashoffset: 0; stroke: #cccccc; stroke-width: 0.5"/>
     </g>
     <g id="text_16">
      <!-- Settlement -->
      <g transform="translate(453.3125 470.721978) scale(0.1 -0.1)">
       <use xlink:href="#DejaVuSans-Bold-53"/>
       <use xlink:href="#DejaVuSans-Bold-65" transform="translate(72.021484 0)"/>
       <use xlink:href="#DejaVuSans-Bold-74" transform="translate(139.84375 0)"/>
       <use xlink:href="#DejaVuSans-Bold-74" transform="translate(187.646484 0)"/>
       <use xlink:href="#DejaVuSans-Bold-6c" transform="translate(235.449219 0)"/>
       <use xlink:href="#DejaVuSans-Bold-65" transform="translate(269.726562 0)"/>
       <use xlink:href="#DejaVuSans-Bold-6d" transform="translate(337.548828 0)"/>
       <use xlink:href="#DejaVuSans-Bold-65" transform="translate(441.748047 0)"/>
       <use xlink:href="#DejaVuSans-Bold-6e" transform="translate(509.570312 0)"/>
       <use xlink:href="#DejaVuSans-Bold-74" transform="translate(580.761719 0)"/>
      </g>
     </g>
    </g>
    <g id="xtick_17">
     <g id="line2d_17">
      <path d="M 333.1875 259.9 
L 497.695544 397.938639 
" clip-path="url(#pa4664dc740)" style="fill: none; stroke-dasharray: 1.85,0.8; stroke-dashoffset: 0; stroke: #cccccc; stroke-width: 0.5"/>
     </g>
     <g id="text_17">
      <!-- Space -->
      <g transform="translate(517.229677 417.089098) scale(0.1 -0.1)">
       <use xlink:href="#DejaVuSans-Bold-53"/>
       <use xlink:href="#DejaVuSans-Bold-70" transform="translate(72.021484 0)"/>
       <use xlink:href="#DejaVuSans-Bold-61" transform="translate(143.603516 0)"/>
       <use xlink:href="#DejaVuSans-Bold-63" transform="translate(211.083984 0)"/>
       <use xlink:href="#DejaVuSans-Bold-65" transform="translate(270.361328 0)"/>
      </g>
     </g>
    </g>
    <g id="xtick_18">
     <g id="line2d_18">
      <path d="M 333.1875 259.9 
L 534.98649 333.348826 
" clip-path="url(#pa4664dc740)" style="fill: none; stroke-dasharray: 1.85,0.8; stroke-dashoffset: 0; stroke: #cccccc; stroke-width: 0.5"/>
     </g>
     <g id="text_18">
      <!-- Sports -->
      <g transform="translate(558.948652 344.829714) scale(0.1 -0.1)">
       <use xlink:href="#DejaVuSans-Bold-53"/>
       <use xlink:href="#DejaVuSans-Bold-70" transform="translate(72.021484 0)"/>
       <use xlink:href="#DejaVuSans-Bold-6f" transform="translate(143.603516 0)"/>
       <use xlink:href="#DejaVuSans-Bold-72" transform="translate(212.304688 0)"/>
       <use xlink:href="#DejaVuSans-Bold-74" transform="translate(261.621094 0)"/>
       <use xlink:href="#DejaVuSans-Bold-73" transform="translate(309.423828 0)"/>
      </g>
     </g>
    </g>
   </g>
   <g id="matplotlib.axis_2">
    <g id="ytick_1">
     <g id="line2d_19">
      <path d="M 381.994318 259.9 
C 381.994318 253.490747 380.731835 247.143817 378.27912 241.222439 
C 375.826406 235.301062 372.231158 229.920394 367.699132 225.388368 
C 363.167106 220.856342 357.786438 217.261094 351.865061 214.80838 
C 345.943683 212.355665 339.596753 211.093182 333.1875 211.093182 
C 326.778247 211.093182 320.431317 212.355665 314.509939 214.80838 
C 308.588562 217.261094 303.207894 220.856342 298.675868 225.388368 
C 294.143842 229.920394 290.548594 235.301062 288.09588 241.222439 
C 285.643165 247.143817 284.380682 253.490747 284.380682 259.9 
C 284.380682 266.309253 285.643165 272.656183 288.09588 278.577561 
C 290.548594 284.498938 294.143842 289.879606 298.675868 294.411632 
C 303.207894 298.943658 308.588562 302.538906 314.509939 304.99162 
C 320.431317 307.444335 326.778247 308.706818 333.1875 308.706818 
C 339.596753 308.706818 345.943683 307.444335 351.865061 304.99162 
C 357.786438 302.538906 363.167106 298.943658 367.699132 294.411632 
C 372.231158 289.879606 375.826406 284.498938 378.27912 278.577561 
C 380.731835 272.656183 381.994318 266.309253 381.994318 259.9 
" clip-path="url(#pa4664dc740)" style="fill: none; stroke-dasharray: 1.85,0.8; stroke-dashoffset: 0; stroke: #cccccc; stroke-width: 0.5"/>
     </g>
     <g id="text_19">
      <!-- 5 -->
      <g style="fill: #808080" transform="translate(381.994318 258.23625) scale(0.08 -0.08)">
       <defs>
        <path id="DejaVuSans-35" d="M 691 4666 
L 3169 4666 
L 3169 4134 
L 1269 4134 
L 1269 2991 
Q 1406 3038 1543 3061 
Q 1681 3084 1819 3084 
Q 2600 3084 3056 2656 
Q 3513 2228 3513 1497 
Q 3513 744 3044 326 
Q 2575 -91 1722 -91 
Q 1428 -91 1123 -41 
Q 819 9 494 109 
L 494 744 
Q 775 591 1075 516 
Q 1375 441 1709 441 
Q 2250 441 2565 725 
Q 2881 1009 2881 1497 
Q 2881 1984 2565 2268 
Q 2250 2553 1709 2553 
Q 1456 2553 1204 2497 
Q 953 2441 691 2322 
L 691 4666 
z
" transform="scale(0.015625)"/>
       </defs>
       <use xlink:href="#DejaVuSans-35"/>
      </g>
     </g>
    </g>
    <g id="ytick_2">
     <g id="line2d_20">
      <path d="M 430.801136 259.9 
C 430.801136 247.081495 428.27617 234.387633 423.370741 222.544879 
C 418.465311 210.702124 411.274816 199.940788 402.210764 190.876736 
C 393.146712 181.812684 382.385376 174.622189 370.542621 169.716759 
C 358.699867 164.81133 346.006005 162.286364 333.1875 162.286364 
C 320.368995 162.286364 307.675133 164.81133 295.832379 169.716759 
C 283.989624 174.622189 273.228288 181.812684 264.164236 190.876736 
C 255.100184 199.940788 247.909689 210.702124 243.004259 222.544879 
C 238.09883 234.387633 235.573864 247.081495 235.573864 259.9 
C 235.573864 272.718505 238.09883 285.412367 243.004259 297.255121 
C 247.909689 309.097876 255.100184 319.859212 264.164236 328.923264 
C 273.228288 337.987316 283.989624 345.177811 295.832379 350.083241 
C 307.675133 354.98867 320.368995 357.513636 333.1875 357.513636 
C 346.006005 357.513636 358.699867 354.98867 370.542621 350.083241 
C 382.385376 345.177811 393.146712 337.987316 402.210764 328.923264 
C 411.274816 319.859212 418.465311 309.097876 423.370741 297.255121 
C 428.27617 285.412367 430.801136 272.718505 430.801136 259.9 
" clip-path="url(#pa4664dc740)" style="fill: none; stroke-dasharray: 1.85,0.8; stroke-dashoffset: 0; stroke: #cccccc; stroke-width: 0.5"/>
     </g>
     <g id="text_20">
      <!-- 10 -->
      <g style="fill: #808080" transform="translate(430.801136 258.23625) scale(0.08 -0.08)">
       <defs>
        <path id="DejaVuSans-31" d="M 794 531 
L 1825 531 
L 1825 4091 
L 703 3866 
L 703 4441 
L 1819 4666 
L 2450 4666 
L 2450 531 
L 3481 531 
L 3481 0 
L 794 0 
L 794 531 
z
" transform="scale(0.015625)"/>
        <path id="DejaVuSans-30" d="M 2034 4250 
Q 1547 4250 1301 3770 
Q 1056 3291 1056 2328 
Q 1056 1369 1301 889 
Q 1547 409 2034 409 
Q 2525 409 2770 889 
Q 3016 1369 3016 2328 
Q 3016 3291 2770 3770 
Q 2525 4250 2034 4250 
z
M 2034 4750 
Q 2819 4750 3233 4129 
Q 3647 3509 3647 2328 
Q 3647 1150 3233 529 
Q 2819 -91 2034 -91 
Q 1250 -91 836 529 
Q 422 1150 422 2328 
Q 422 3509 836 4129 
Q 1250 4750 2034 4750 
z
" transform="scale(0.015625)"/>
       </defs>
       <use xlink:href="#DejaVuSans-31"/>
       <use xlink:href="#DejaVuSans-30" transform="translate(63.623047 0)"/>
      </g>
     </g>
    </g>
    <g id="ytick_3">
     <g id="line2d_21">
      <path d="M 479.607955 259.9 
C 479.607955 240.672242 475.820505 221.63145 468.462361 203.867318 
C 461.104217 186.103186 450.318474 169.961182 436.722396 156.365104 
C 423.126318 142.769026 406.984314 131.983283 389.220182 124.625139 
C 371.45605 117.266995 352.415258 113.479545 333.1875 113.479545 
C 313.959742 113.479545 294.91895 117.266995 277.154818 124.625139 
C 259.390686 131.983283 243.248682 142.769026 229.652604 156.365104 
C 216.056526 169.961182 205.270783 186.103186 197.912639 203.867318 
C 190.554495 221.63145 186.767045 240.672242 186.767045 259.9 
C 186.767045 279.127758 190.554495 298.16855 197.912639 315.932682 
C 205.270783 333.696814 216.056526 349.838818 229.652604 363.434896 
C 243.248682 377.030974 259.390686 387.816717 277.154818 395.174861 
C 294.91895 402.533005 313.959742 406.320455 333.1875 406.320455 
C 352.415258 406.320455 371.45605 402.533005 389.220182 395.174861 
C 406.984314 387.816717 423.126318 377.030974 436.722396 363.434896 
C 450.318474 349.838818 461.104217 333.696814 468.462361 315.932682 
C 475.820505 298.16855 479.607955 279.127758 479.607955 259.9 
" clip-path="url(#pa4664dc740)" style="fill: none; stroke-dasharray: 1.85,0.8; stroke-dashoffset: 0; stroke: #cccccc; stroke-width: 0.5"/>
     </g>
     <g id="text_21">
      <!-- 15 -->
      <g style="fill: #808080" transform="translate(479.607955 258.23625) scale(0.08 -0.08)">
       <use xlink:href="#DejaVuSans-31"/>
       <use xlink:href="#DejaVuSans-35" transform="translate(63.623047 0)"/>
      </g>
     </g>
    </g>
    <g id="ytick_4">
     <g id="line2d_22">
      <path d="M 528.414773 259.9 
C 528.414773 234.262989 523.364841 208.875267 513.553981 185.189757 
C 503.743122 161.504248 489.362132 139.981576 471.234028 121.853472 
C 453.105924 103.725368 431.583252 89.344378 407.897743 79.533519 
C 384.212233 69.722659 358.824511 64.672727 333.1875 64.672727 
C 307.550489 64.672727 282.162767 69.722659 258.477257 79.533519 
C 234.791748 89.344378 213.269076 103.725368 195.140972 121.853472 
C 177.012868 139.981576 162.631878 161.504248 152.821019 185.189757 
C 143.010159 208.875267 137.960227 234.262989 137.960227 259.9 
C 137.960227 285.537011 143.010159 310.924733 152.821019 334.610243 
C 162.631878 358.295752 177.012868 379.818424 195.140972 397.946528 
C 213.269076 416.074632 234.791748 430.455622 258.477257 440.266481 
C 282.162767 450.077341 307.550489 455.127273 333.1875 455.127273 
C 358.824511 455.127273 384.212233 450.077341 407.897743 440.266481 
C 431.583252 430.455622 453.105924 416.074632 471.234028 397.946528 
C 489.362132 379.818424 503.743122 358.295752 513.553981 334.610243 
C 523.364841 310.924733 528.414773 285.537011 528.414773 259.9 
" clip-path="url(#pa4664dc740)" style="fill: none; stroke-dasharray: 1.85,0.8; stroke-dashoffset: 0; stroke: #cccccc; stroke-width: 0.5"/>
     </g>
     <g id="text_22">
      <!-- 20 -->
      <g style="fill: #808080" transform="translate(528.414773 258.23625) scale(0.08 -0.08)">
       <defs>
        <path id="DejaVuSans-32" d="M 1228 531 
L 3431 531 
L 3431 0 
L 469 0 
L 469 531 
Q 828 903 1448 1529 
Q 2069 2156 2228 2338 
Q 2531 2678 2651 2914 
Q 2772 3150 2772 3378 
Q 2772 3750 2511 3984 
Q 2250 4219 1831 4219 
Q 1534 4219 1204 4116 
Q 875 4013 500 3803 
L 500 4441 
Q 881 4594 1212 4672 
Q 1544 4750 1819 4750 
Q 2544 4750 2975 4387 
Q 3406 4025 3406 3419 
Q 3406 3131 3298 2873 
Q 3191 2616 2906 2266 
Q 2828 2175 2409 1742 
Q 1991 1309 1228 531 
z
" transform="scale(0.015625)"/>
       </defs>
       <use xlink:href="#DejaVuSans-32"/>
       <use xlink:href="#DejaVuSans-30" transform="translate(63.623047 0)"/>
      </g>
     </g>
    </g>
   </g>
   <g id="line2d_23">
    <path d="M 402.711264 259.9 
L 406.080329 233.36918 
L 372.654916 226.782906 
L 375.079243 187.341372 
L 339.643974 223.283514 
L 323.170391 203.09015 
L 293.199749 190.639184 
L 239.44239 181.238513 
L 284.558912 242.200642 
L 290.103528 259.9 
L 275.150192 281.023853 
L 248.029381 331.356146 
L 312.402463 295.900741 
L 324.679945 308.148743 
L 340.385075 300.719475 
L 380.23528 341.389145 
L 404.210278 319.495186 
L 423.060487 292.611092 
L 402.711264 259.9 
" clip-path="url(#pa4664dc740)" style="fill: none; stroke: #74b9ff; stroke-width: 2; stroke-linecap: square"/>
   </g>
   <g id="line2d_24">
    <path d="M 429.645719 259.9 
L 422.93391 227.234978 
L 391.215235 211.208949 
L 398.197826 147.298812 
L 341.939475 210.265084 
L 318.014831 173.851516 
L 286.29303 178.676395 
L 196.473883 145.183654 
L 255.277087 231.542929 
L 277.338715 259.9 
L 226.868891 298.596809 
L 229.750425 346.694012 
L 297.559921 321.608778 
L 318.373791 343.912718 
L 346.047683 332.833722 
L 390.797488 359.683427 
L 441.086247 350.437799 
L 485.471837 315.326966 
L 429.645719 259.9 
" clip-path="url(#pa4664dc740)" style="fill: none; stroke: #ffe66d; stroke-width: 2; stroke-linecap: square"/>
   </g>
   <g id="line2d_25">
    <path d="M 445.710385 259.9 
L 425.515451 226.295374 
L 397.045602 206.31669 
L 400.739819 142.895952 
L 342.772482 205.540865 
L 315.978177 162.301078 
L 279.258044 166.491442 
L 192.635882 141.963189 
L 255.725542 231.706153 
L 274.323515 259.9 
L 231.020742 297.085659 
L 229.997761 346.486472 
L 291.193325 332.636046 
L 317.813234 347.091794 
L 346.141028 333.363109 
L 394.352817 365.841437 
L 457.657874 364.343045 
L 483.029379 314.437984 
L 445.710385 259.9 
" clip-path="url(#pa4664dc740)" style="fill: none; stroke: #ff8c94; stroke-width: 2; stroke-linecap: square"/>
   </g>
   <g id="line2d_26">
    <path d="M 444.335434 259.9 
L 453.694884 216.038899 
L 416.155071 190.281942 
L 408.778523 128.972508 
L 344.524358 195.605484 
L 315.115725 157.409868 
L 279.475102 166.867398 
L 175.458521 127.549672 
L 253.516656 230.902184 
L 259.066106 259.9 
L 213.598785 303.426733 
L 228.981868 347.338907 
L 272.242539 365.459768 
L 315.049363 362.766486 
L 347.941199 343.572384 
L 407.346758 388.347603 
L 472.642147 376.916343 
L 508.786462 323.812795 
L 444.335434 259.9 
" clip-path="url(#pa4664dc740)" style="fill: none; stroke: #a29bfe; stroke-width: 2; stroke-linecap: square"/>
   </g>
   <g id="patch_7">
    <path d="M 547.9375 259.9 
C 547.9375 231.699288 542.382575 203.772793 531.59063 177.718733 
C 520.798684 151.664673 504.979596 127.989733 485.038681 108.048819 
C 465.097767 88.107904 441.422827 72.288816 415.368767 61.49687 
C 389.314707 50.704925 361.388212 45.15 333.1875 45.15 
C 304.986788 45.15 277.060293 50.704925 251.006233 61.49687 
C 224.952173 72.288816 201.277233 88.107904 181.336319 108.048819 
C 161.395404 127.989733 145.576316 151.664673 134.78437 177.718733 
C 123.992425 203.772793 118.4375 231.699288 118.4375 259.9 
C 118.4375 288.100712 123.992425 316.027207 134.78437 342.081267 
C 145.576316 368.135327 161.395404 391.810267 181.336319 411.751181 
C 201.277233 431.692096 224.952173 447.511184 251.006233 458.30313 
C 277.060293 469.095075 304.986788 474.65 333.1875 474.65 
C 361.388212 474.65 389.314707 469.095075 415.368767 458.30313 
C 441.422827 447.511184 465.097767 431.692096 485.038681 411.751181 
C 504.979596 391.810267 520.798684 368.135327 531.59063 342.081267 
C 542.382575 316.027207 547.9375 288.100712 547.9375 259.9 
" style="fill: none; stroke: #dddddd; stroke-width: 0.8; stroke-linejoin: miter; stroke-linecap: square"/>
   </g>
   <g id="legend_1">
    <g id="line2d_27">
     <path d="M 536.7125 15.298438 
L 546.7125 15.298438 
L 556.7125 15.298438 
" style="fill: none; stroke: #74b9ff; stroke-width: 2; stroke-linecap: square"/>
    </g>
    <g id="text_23">
     <!-- Qwen3-8B -->
     <g transform="translate(564.7125 18.798438) scale(0.1 -0.1)">
      <defs>
       <path id="DejaVuSans-51" d="M 2522 4238 
Q 1834 4238 1429 3725 
Q 1025 3213 1025 2328 
Q 1025 1447 1429 934 
Q 1834 422 2522 422 
Q 3209 422 3611 934 
Q 4013 1447 4013 2328 
Q 4013 3213 3611 3725 
Q 3209 4238 2522 4238 
z
M 3406 84 
L 4238 -825 
L 3475 -825 
L 2784 -78 
Q 2681 -84 2626 -87 
Q 2572 -91 2522 -91 
Q 1538 -91 948 567 
Q 359 1225 359 2328 
Q 359 3434 948 4092 
Q 1538 4750 2522 4750 
Q 3503 4750 4090 4092 
Q 4678 3434 4678 2328 
Q 4678 1516 4351 937 
Q 4025 359 3406 84 
z
" transform="scale(0.015625)"/>
       <path id="DejaVuSans-77" d="M 269 3500 
L 844 3500 
L 1563 769 
L 2278 3500 
L 2956 3500 
L 3675 769 
L 4391 3500 
L 4966 3500 
L 4050 0 
L 3372 0 
L 2619 2869 
L 1863 0 
L 1184 0 
L 269 3500 
z
" transform="scale(0.015625)"/>
       <path id="DejaVuSans-65" d="M 3597 1894 
L 3597 1613 
L 953 1613 
Q 991 1019 1311 708 
Q 1631 397 2203 397 
Q 2534 397 2845 478 
Q 3156 559 3463 722 
L 3463 178 
Q 3153 47 2828 -22 
Q 2503 -91 2169 -91 
Q 1331 -91 842 396 
Q 353 884 353 1716 
Q 353 2575 817 3079 
Q 1281 3584 2069 3584 
Q 2775 3584 3186 3129 
Q 3597 2675 3597 1894 
z
M 3022 2063 
Q 3016 2534 2758 2815 
Q 2500 3097 2075 3097 
Q 1594 3097 1305 2825 
Q 1016 2553 972 2059 
L 3022 2063 
z
" transform="scale(0.015625)"/>
       <path id="DejaVuSans-6e" d="M 3513 2113 
L 3513 0 
L 2938 0 
L 2938 2094 
Q 2938 2591 2744 2837 
Q 2550 3084 2163 3084 
Q 1697 3084 1428 2787 
Q 1159 2491 1159 1978 
L 1159 0 
L 581 0 
L 581 3500 
L 1159 3500 
L 1159 2956 
Q 1366 3272 1645 3428 
Q 1925 3584 2291 3584 
Q 2894 3584 3203 3211 
Q 3513 2838 3513 2113 
z
" transform="scale(0.015625)"/>
       <path id="DejaVuSans-33" d="M 2597 2516 
Q 3050 2419 3304 2112 
Q 3559 1806 3559 1356 
Q 3559 666 3084 287 
Q 2609 -91 1734 -91 
Q 1441 -91 1130 -33 
Q 819 25 488 141 
L 488 750 
Q 750 597 1062 519 
Q 1375 441 1716 441 
Q 2309 441 2620 675 
Q 2931 909 2931 1356 
Q 2931 1769 2642 2001 
Q 2353 2234 1838 2234 
L 1294 2234 
L 1294 2753 
L 1863 2753 
Q 2328 2753 2575 2939 
Q 2822 3125 2822 3475 
Q 2822 3834 2567 4026 
Q 2313 4219 1838 4219 
Q 1578 4219 1281 4162 
Q 984 4106 628 3988 
L 628 4550 
Q 988 4650 1302 4700 
Q 1616 4750 1894 4750 
Q 2613 4750 3031 4423 
Q 3450 4097 3450 3541 
Q 3450 3153 3228 2886 
Q 3006 2619 2597 2516 
z
" transform="scale(0.015625)"/>
       <path id="DejaVuSans-2d" d="M 313 2009 
L 1997 2009 
L 1997 1497 
L 313 1497 
L 313 2009 
z
" transform="scale(0.015625)"/>
       <path id="DejaVuSans-38" d="M 2034 2216 
Q 1584 2216 1326 1975 
Q 1069 1734 1069 1313 
Q 1069 891 1326 650 
Q 1584 409 2034 409 
Q 2484 409 2743 651 
Q 3003 894 3003 1313 
Q 3003 1734 2745 1975 
Q 2488 2216 2034 2216 
z
M 1403 2484 
Q 997 2584 770 2862 
Q 544 3141 544 3541 
Q 544 4100 942 4425 
Q 1341 4750 2034 4750 
Q 2731 4750 3128 4425 
Q 3525 4100 3525 3541 
Q 3525 3141 3298 2862 
Q 3072 2584 2669 2484 
Q 3125 2378 3379 2068 
Q 3634 1759 3634 1313 
Q 3634 634 3220 271 
Q 2806 -91 2034 -91 
Q 1263 -91 848 271 
Q 434 634 434 1313 
Q 434 1759 690 2068 
Q 947 2378 1403 2484 
z
M 1172 3481 
Q 1172 3119 1398 2916 
Q 1625 2713 2034 2713 
Q 2441 2713 2670 2916 
Q 2900 3119 2900 3481 
Q 2900 3844 2670 4047 
Q 2441 4250 2034 4250 
Q 1625 4250 1398 4047 
Q 1172 3844 1172 3481 
z
" transform="scale(0.015625)"/>
       <path id="DejaVuSans-42" d="M 1259 2228 
L 1259 519 
L 2272 519 
Q 2781 519 3026 730 
Q 3272 941 3272 1375 
Q 3272 1813 3026 2020 
Q 2781 2228 2272 2228 
L 1259 2228 
z
M 1259 4147 
L 1259 2741 
L 2194 2741 
Q 2656 2741 2882 2914 
Q 3109 3088 3109 3444 
Q 3109 3797 2882 3972 
Q 2656 4147 2194 4147 
L 1259 4147 
z
M 628 4666 
L 2241 4666 
Q 2963 4666 3353 4366 
Q 3744 4066 3744 3513 
Q 3744 3084 3544 2831 
Q 3344 2578 2956 2516 
Q 3422 2416 3680 2098 
Q 3938 1781 3938 1306 
Q 3938 681 3513 340 
Q 3088 0 2303 0 
L 628 0 
L 628 4666 
z
" transform="scale(0.015625)"/>
      </defs>
      <use xlink:href="#DejaVuSans-51"/>
      <use xlink:href="#DejaVuSans-77" transform="translate(78.710938 0)"/>
      <use xlink:href="#DejaVuSans-65" transform="translate(160.498047 0)"/>
      <use xlink:href="#DejaVuSans-6e" transform="translate(222.021484 0)"/>
      <use xlink:href="#DejaVuSans-33" transform="translate(285.400391 0)"/>
      <use xlink:href="#DejaVuSans-2d" transform="translate(349.023438 0)"/>
      <use xlink:href="#DejaVuSans-38" transform="translate(385.107422 0)"/>
      <use xlink:href="#DejaVuSans-42" transform="translate(448.730469 0)"/>
     </g>
    </g>
    <g id="line2d_28">
     <path d="M 536.7125 29.976563 
L 546.7125 29.976563 
L 556.7125 29.976563 
" style="fill: none; stroke: #ffe66d; stroke-width: 2; stroke-linecap: square"/>
    </g>
    <g id="text_24">
     <!-- WideSeek-8B-RL -->
     <g transform="translate(564.7125 33.476563) scale(0.1 -0.1)">
      <defs>
       <path id="DejaVuSans-57" d="M 213 4666 
L 850 4666 
L 1831 722 
L 2809 4666 
L 3519 4666 
L 4500 722 
L 5478 4666 
L 6119 4666 
L 4947 0 
L 4153 0 
L 3169 4050 
L 2175 0 
L 1381 0 
L 213 4666 
z
" transform="scale(0.015625)"/>
       <path id="DejaVuSans-69" d="M 603 3500 
L 1178 3500 
L 1178 0 
L 603 0 
L 603 3500 
z
M 603 4863 
L 1178 4863 
L 1178 4134 
L 603 4134 
L 603 4863 
z
" transform="scale(0.015625)"/>
       <path id="DejaVuSans-64" d="M 2906 2969 
L 2906 4863 
L 3481 4863 
L 3481 0 
L 2906 0 
L 2906 525 
Q 2725 213 2448 61 
Q 2172 -91 1784 -91 
Q 1150 -91 751 415 
Q 353 922 353 1747 
Q 353 2572 751 3078 
Q 1150 3584 1784 3584 
Q 2172 3584 2448 3432 
Q 2725 3281 2906 2969 
z
M 947 1747 
Q 947 1113 1208 752 
Q 1469 391 1925 391 
Q 2381 391 2643 752 
Q 2906 1113 2906 1747 
Q 2906 2381 2643 2742 
Q 2381 3103 1925 3103 
Q 1469 3103 1208 2742 
Q 947 2381 947 1747 
z
" transform="scale(0.015625)"/>
       <path id="DejaVuSans-53" d="M 3425 4513 
L 3425 3897 
Q 3066 4069 2747 4153 
Q 2428 4238 2131 4238 
Q 1616 4238 1336 4038 
Q 1056 3838 1056 3469 
Q 1056 3159 1242 3001 
Q 1428 2844 1947 2747 
L 2328 2669 
Q 3034 2534 3370 2195 
Q 3706 1856 3706 1288 
Q 3706 609 3251 259 
Q 2797 -91 1919 -91 
Q 1588 -91 1214 -16 
Q 841 59 441 206 
L 441 856 
Q 825 641 1194 531 
Q 1563 422 1919 422 
Q 2459 422 2753 634 
Q 3047 847 3047 1241 
Q 3047 1584 2836 1778 
Q 2625 1972 2144 2069 
L 1759 2144 
Q 1053 2284 737 2584 
Q 422 2884 422 3419 
Q 422 4038 858 4394 
Q 1294 4750 2059 4750 
Q 2388 4750 2728 4690 
Q 3069 4631 3425 4513 
z
" transform="scale(0.015625)"/>
       <path id="DejaVuSans-6b" d="M 581 4863 
L 1159 4863 
L 1159 1991 
L 2875 3500 
L 3609 3500 
L 1753 1863 
L 3688 0 
L 2938 0 
L 1159 1709 
L 1159 0 
L 581 0 
L 581 4863 
z
" transform="scale(0.015625)"/>
       <path id="DejaVuSans-52" d="M 2841 2188 
Q 3044 2119 3236 1894 
Q 3428 1669 3622 1275 
L 4263 0 
L 3584 0 
L 2988 1197 
Q 2756 1666 2539 1819 
Q 2322 1972 1947 1972 
L 1259 1972 
L 1259 0 
L 628 0 
L 628 4666 
L 2053 4666 
Q 2853 4666 3247 4331 
Q 3641 3997 3641 3322 
Q 3641 2881 3436 2590 
Q 3231 2300 2841 2188 
z
M 1259 4147 
L 1259 2491 
L 2053 2491 
Q 2509 2491 2742 2702 
Q 2975 2913 2975 3322 
Q 2975 3731 2742 3939 
Q 2509 4147 2053 4147 
L 1259 4147 
z
" transform="scale(0.015625)"/>
       <path id="DejaVuSans-4c" d="M 628 4666 
L 1259 4666 
L 1259 531 
L 3531 531 
L 3531 0 
L 628 0 
L 628 4666 
z
" transform="scale(0.015625)"/>
      </defs>
      <use xlink:href="#DejaVuSans-57"/>
      <use xlink:href="#DejaVuSans-69" transform="translate(96.626953 0)"/>
      <use xlink:href="#DejaVuSans-64" transform="translate(124.410156 0)"/>
      <use xlink:href="#DejaVuSans-65" transform="translate(187.886719 0)"/>
      <use xlink:href="#DejaVuSans-53" transform="translate(249.410156 0)"/>
      <use xlink:href="#DejaVuSans-65" transform="translate(312.886719 0)"/>
      <use xlink:href="#DejaVuSans-65" transform="translate(374.410156 0)"/>
      <use xlink:href="#DejaVuSans-6b" transform="translate(435.933594 0)"/>
      <use xlink:href="#DejaVuSans-2d" transform="translate(493.84375 0)"/>
      <use xlink:href="#DejaVuSans-38" transform="translate(529.927734 0)"/>
      <use xlink:href="#DejaVuSans-42" transform="translate(593.550781 0)"/>
      <use xlink:href="#DejaVuSans-2d" transform="translate(662.154297 0)"/>
      <use xlink:href="#DejaVuSans-52" transform="translate(698.238281 0)"/>
      <use xlink:href="#DejaVuSans-4c" transform="translate(767.720703 0)"/>
     </g>
    </g>
    <g id="line2d_29">
     <path d="M 536.7125 44.654688 
L 546.7125 44.654688 
L 556.7125 44.654688 
" style="fill: none; stroke: #ff8c94; stroke-width: 2; stroke-linecap: square"/>
    </g>
    <g id="text_25">
     <!-- WideSeek-8B-SFT -->
     <g transform="translate(564.7125 48.154688) scale(0.1 -0.1)">
      <defs>
       <path id="DejaVuSans-46" d="M 628 4666 
L 3309 4666 
L 3309 4134 
L 1259 4134 
L 1259 2759 
L 3109 2759 
L 3109 2228 
L 1259 2228 
L 1259 0 
L 628 0 
L 628 4666 
z
" transform="scale(0.015625)"/>
       <path id="DejaVuSans-54" d="M -19 4666 
L 3928 4666 
L 3928 4134 
L 2272 4134 
L 2272 0 
L 1638 0 
L 1638 4134 
L -19 4134 
L -19 4666 
z
" transform="scale(0.015625)"/>
      </defs>
      <use xlink:href="#DejaVuSans-57"/>
      <use xlink:href="#DejaVuSans-69" transform="translate(96.626953 0)"/>
      <use xlink:href="#DejaVuSans-64" transform="translate(124.410156 0)"/>
      <use xlink:href="#DejaVuSans-65" transform="translate(187.886719 0)"/>
      <use xlink:href="#DejaVuSans-53" transform="translate(249.410156 0)"/>
      <use xlink:href="#DejaVuSans-65" transform="translate(312.886719 0)"/>
      <use xlink:href="#DejaVuSans-65" transform="translate(374.410156 0)"/>
      <use xlink:href="#DejaVuSans-6b" transform="translate(435.933594 0)"/>
      <use xlink:href="#DejaVuSans-2d" transform="translate(493.84375 0)"/>
      <use xlink:href="#DejaVuSans-38" transform="translate(529.927734 0)"/>
      <use xlink:href="#DejaVuSans-42" transform="translate(593.550781 0)"/>
      <use xlink:href="#DejaVuSans-2d" transform="translate(662.154297 0)"/>
      <use xlink:href="#DejaVuSans-53" transform="translate(698.238281 0)"/>
      <use xlink:href="#DejaVuSans-46" transform="translate(761.714844 0)"/>
      <use xlink:href="#DejaVuSans-54" transform="translate(817.484375 0)"/>
     </g>
    </g>
    <g id="line2d_30">
     <path d="M 536.7125 59.332813 
L 546.7125 59.332813 
L 556.7125 59.332813 
" style="fill: none; stroke: #a29bfe; stroke-width: 2; stroke-linecap: square"/>
    </g>
    <g id="text_26">
     <!-- WideSeek-8B-SFT-RL -->
     <g transform="translate(564.7125 62.832813) scale(0.1 -0.1)">
      <use xlink:href="#DejaVuSans-57"/>
      <use xlink:href="#DejaVuSans-69" transform="translate(96.626953 0)"/>
      <use xlink:href="#DejaVuSans-64" transform="translate(124.410156 0)"/>
      <use xlink:href="#DejaVuSans-65" transform="translate(187.886719 0)"/>
      <use xlink:href="#DejaVuSans-53" transform="translate(249.410156 0)"/>
      <use xlink:href="#DejaVuSans-65" transform="translate(312.886719 0)"/>
      <use xlink:href="#DejaVuSans-65" transform="translate(374.410156 0)"/>
      <use xlink:href="#DejaVuSans-6b" transform="translate(435.933594 0)"/>
      <use xlink:href="#DejaVuSans-2d" transform="translate(493.84375 0)"/>
      <use xlink:href="#DejaVuSans-38" transform="translate(529.927734 0)"/>
      <use xlink:href="#DejaVuSans-42" transform="translate(593.550781 0)"/>
      <use xlink:href="#DejaVuSans-2d" transform="translate(662.154297 0)"/>
      <use xlink:href="#DejaVuSans-53" transform="translate(698.238281 0)"/>
      <use xlink:href="#DejaVuSans-46" transform="translate(761.714844 0)"/>
      <use xlink:href="#DejaVuSans-54" transform="translate(817.484375 0)"/>
      <use xlink:href="#DejaVuSans-2d" transform="translate(869.443359 0)"/>
      <use xlink:href="#DejaVuSans-52" transform="translate(905.527344 0)"/>
      <use xlink:href="#DejaVuSans-4c" transform="translate(975.009766 0)"/>
     </g>
    </g>
   </g>
  </g>
 </g>
 <defs>
  <clipPath id="pa4664dc740">
   <path d="M 547.9375 259.9 
C 547.9375 231.699288 542.382575 203.772793 531.59063 177.718733 
C 520.798684 151.664673 504.979596 127.989733 485.038681 108.048819 
C 465.097767 88.107904 441.422827 72.288816 415.368767 61.49687 
C 389.314707 50.704925 361.388212 45.15 333.1875 45.15 
C 304.986788 45.15 277.060293 50.704925 251.006233 61.49687 
C 224.952173 72.288816 201.277233 88.107904 181.336319 108.048819 
C 161.395404 127.989733 145.576316 151.664673 134.78437 177.718733 
C 123.992425 203.772793 118.4375 231.699288 118.4375 259.9 
C 118.4375 288.100712 123.992425 316.027207 134.78437 342.081267 
C 145.576316 368.135327 161.395404 391.810267 181.336319 411.751181 
C 201.277233 431.692096 224.952173 447.511184 251.006233 458.30313 
C 277.060293 469.095075 304.986788 474.65 333.1875 474.65 
C 361.388212 474.65 389.314707 469.095075 415.368767 458.30313 
C 441.422827 447.511184 465.097767 431.692096 485.038681 411.751181 
C 504.979596 391.810267 520.798684 368.135327 531.59063 342.081267 
C 542.382575 316.027207 547.9375 288.100712 547.9375 259.9 
M 333.1875 259.9 
C 333.1875 259.9 333.1875 259.9 333.1875 259.9 
C 333.1875 259.9 333.1875 259.9 333.1875 259.9 
C 333.1875 259.9 333.1875 259.9 333.1875 259.9 
C 333.1875 259.9 333.1875 259.9 333.1875 259.9 
C 333.1875 259.9 333.1875 259.9 333.1875 259.9 
C 333.1875 259.9 333.1875 259.9 333.1875 259.9 
C 333.1875 259.9 333.1875 259.9 333.1875 259.9 
C 333.1875 259.9 333.1875 259.9 333.1875 259.9 
C 333.1875 259.9 333.1875 259.9 333.1875 259.9 
C 333.1875 259.9 333.1875 259.9 333.1875 259.9 
C 333.1875 259.9 333.1875 259.9 333.1875 259.9 
C 333.1875 259.9 333.1875 259.9 333.1875 259.9 
C 333.1875 259.9 333.1875 259.9 333.1875 259.9 
C 333.1875 259.9 333.1875 259.9 333.1875 259.9 
C 333.1875 259.9 333.1875 259.9 333.1875 259.9 
C 333.1875 259.9 333.1875 259.9 333.1875 259.9 
z
"/>
  </clipPath>
 </defs>
</svg>
