<?xml version="1.0" encoding="utf-8" standalone="no"?>
<!DOCTYPE svg PUBLIC "-//W3C//DTD SVG 1.1//EN"
  "http://www.w3.org/Graphics/SVG/1.1/DTD/svg11.dtd">
<svg xmlns:xlink="http://www.w3.org/1999/xlink" width="864pt" height="504pt" viewBox="0 0 864 504" xmlns="http://www.w3.org/2000/svg" version="1.1">
 <metadata>
  <rdf:RDF xmlns:dc="http://purl.org/dc/elements/1.1/" xmlns:cc="http://creativecommons.org/ns#" xmlns:rdf="http://www.w3.org/1999/02/22-rdf-syntax-ns#">
   <cc:Work>
    <dc:type rdf:resource="http://purl.org/dc/dcmitype/StillImage"/>
    <dc:date>2026-01-28T02:09:18.753609</dc:date>
    <dc:format>image/svg+xml</dc:format>
    <dc:creator>
     <cc:Agent>
      <dc:title>Matplotlib v3.10.8, https://matplotlib.org/</dc:title>
     </cc:Agent>
    </dc:creator>
   </cc:Work>
  </rdf:RDF>
 </metadata>
 <defs>
  <style type="text/css">*{stroke-linejoin: round; stroke-linecap: butt}</style>
 </defs>
 <g id="figure_1">
  <g id="patch_1">
   <path d="M 0 504 
L 864 504 
L 864 0 
L 0 0 
L 0 504 
z
" style="fill: none; opacity: 0"/>
  </g>
  <g id="axes_1">
   <g id="patch_2">
    <path d="M 59.33 456.76 
L 814.12 456.76 
L 814.12 45.2 
L 59.33 45.2 
L 59.33 456.76 
z
" style="fill: none"/>
   </g>
   <g id="matplotlib.axis_1">
    <g id="xtick_1">
     <g id="line2d_1">
      <defs>
       <path id="m1d5b47d32c" d="M 0 0 
L 0 3.5 
" style="stroke: #000000; stroke-width: 0.8"/>
      </defs>
      <g>
       <use xlink:href="#m1d5b47d32c" x="84.84155" y="456.76" style="stroke: #000000; stroke-width: 0.8"/>
      </g>
     </g>
     <g id="text_1">
      <!-- 0 -->
      <g transform="translate(81.789988 471.61625) scale(0.1 -0.1)">
       <defs>
        <path id="ComicSansMS-30" d="M 1909 -122 
Q 959 -122 522 747 
Q 191 1416 191 2488 
Q 191 3394 622 4069 
Q 1131 4859 2006 4859 
Q 2828 4859 3288 4159 
Q 3684 3553 3684 2681 
Q 3684 1281 3240 579 
Q 2797 -122 1909 -122 
z
M 2003 4256 
Q 1422 4256 1081 3666 
Q 797 3172 797 2538 
Q 797 1509 1075 993 
Q 1353 478 1909 478 
Q 2572 478 2859 1234 
Q 3059 1759 3059 2566 
Q 3059 3413 2795 3834 
Q 2531 4256 2003 4256 
z
" transform="scale(0.015625)"/>
       </defs>
       <use xlink:href="#ComicSansMS-30"/>
      </g>
     </g>
    </g>
    <g id="xtick_2">
     <g id="line2d_2">
      <g>
       <use xlink:href="#m1d5b47d32c" x="172.812413" y="456.76" style="stroke: #000000; stroke-width: 0.8"/>
      </g>
     </g>
     <g id="text_2">
      <!-- 10 -->
      <g transform="translate(167.510069 471.61625) scale(0.1 -0.1)">
       <defs>
        <path id="ComicSansMS-31" d="M 2200 -3 
L 1578 -3 
L 959 0 
Q 741 0 653 28 
Q 494 84 494 266 
Q 494 581 984 581 
L 1134 578 
L 1263 572 
Q 1263 722 1236 1015 
Q 1209 1309 1209 1456 
Q 1209 1853 1281 2663 
Q 1350 3459 1347 3872 
Q 928 3547 813 3547 
Q 688 3547 595 3640 
Q 503 3734 503 3856 
Q 503 4003 772 4213 
Q 941 4331 1250 4594 
Q 1525 4872 1775 4872 
Q 1984 4872 1984 4631 
Q 1984 4559 1965 4417 
Q 1947 4275 1947 4203 
Q 1947 4100 1958 3890 
Q 1969 3681 1969 3578 
Q 1969 3222 1894 2515 
Q 1819 1809 1819 1456 
Q 1819 1275 1844 1015 
Q 1869 756 1872 591 
L 2200 597 
Q 2331 597 2417 511 
Q 2503 425 2503 297 
Q 2503 166 2417 81 
Q 2331 -3 2200 -3 
z
" transform="scale(0.015625)"/>
       </defs>
       <use xlink:href="#ComicSansMS-31"/>
       <use xlink:href="#ComicSansMS-30" transform="translate(45.019531 0)"/>
      </g>
     </g>
    </g>
    <g id="xtick_3">
     <g id="line2d_3">
      <g>
       <use xlink:href="#m1d5b47d32c" x="260.783275" y="456.76" style="stroke: #000000; stroke-width: 0.8"/>
      </g>
     </g>
     <g id="text_3">
      <!-- 20 -->
      <g transform="translate(254.68015 471.61625) scale(0.1 -0.1)">
       <defs>
        <path id="ComicSansMS-32" d="M 3150 -6 
Q 3072 -6 2930 42 
Q 2788 91 2713 91 
Q 2553 91 2234 72 
Q 1916 53 1753 53 
Q 1631 53 1392 22 
Q 1153 -9 1031 -9 
Q 997 -9 931 3 
Q 866 16 831 16 
Q 616 16 550 225 
Q 513 334 513 600 
Q 513 1328 909 1772 
Q 1091 1975 1888 2522 
Q 2334 2828 2484 3000 
Q 2753 3300 2753 3703 
Q 2753 3903 2494 4059 
Q 2266 4200 2047 4200 
Q 1759 4200 1500 4034 
L 1053 3684 
Q 919 3578 838 3578 
Q 516 3578 516 3834 
Q 516 3981 634 4088 
Q 1000 4431 1269 4584 
Q 1647 4800 2047 4800 
Q 2553 4800 2950 4525 
Q 3394 4216 3394 3731 
Q 3394 3413 3303 3144 
Q 3213 2875 3028 2653 
Q 2794 2372 2234 2025 
Q 1647 1656 1463 1466 
Q 1116 1106 1122 594 
L 1766 653 
Q 2428 691 2713 691 
Q 2950 691 3163 609 
Q 3444 500 3444 306 
Q 3444 184 3359 89 
Q 3275 -6 3150 -6 
z
" transform="scale(0.015625)"/>
       </defs>
       <use xlink:href="#ComicSansMS-32"/>
       <use xlink:href="#ComicSansMS-30" transform="translate(61.035156 0)"/>
      </g>
     </g>
    </g>
    <g id="xtick_4">
     <g id="line2d_4">
      <g>
       <use xlink:href="#m1d5b47d32c" x="348.754138" y="456.76" style="stroke: #000000; stroke-width: 0.8"/>
      </g>
     </g>
     <g id="text_4">
      <!-- 30 -->
      <g transform="translate(342.651013 471.61625) scale(0.1 -0.1)">
       <defs>
        <path id="ComicSansMS-33" d="M 1891 -144 
Q 1419 -144 1044 53 
Q 622 281 475 694 
Q 456 750 456 803 
Q 456 928 551 1011 
Q 647 1094 772 1094 
Q 897 1094 988 978 
L 1131 763 
Q 1244 609 1434 532 
Q 1625 456 1891 456 
Q 2231 456 2488 669 
Q 2759 894 2759 1219 
Q 2759 1691 2413 1972 
Q 2106 2216 1600 2269 
Q 1253 2303 1253 2550 
Q 1253 2734 1525 2831 
L 2272 3016 
Q 2488 3094 2597 3226 
Q 2706 3359 2709 3550 
Q 2716 3825 2497 3994 
Q 2269 4169 1856 4169 
Q 1644 4169 1444 4066 
L 1091 3844 
Q 988 3778 925 3778 
Q 800 3778 711 3873 
Q 622 3969 622 4091 
Q 622 4338 1100 4566 
Q 1516 4769 1784 4769 
Q 2456 4769 2850 4472 
Q 3272 4153 3272 3563 
Q 3272 2828 2678 2594 
Q 2625 2572 2556 2550 
Q 2972 2397 3178 2092 
Q 3384 1788 3384 1331 
Q 3384 716 2950 286 
Q 2516 -144 1891 -144 
z
" transform="scale(0.015625)"/>
       </defs>
       <use xlink:href="#ComicSansMS-33"/>
       <use xlink:href="#ComicSansMS-30" transform="translate(61.035156 0)"/>
      </g>
     </g>
    </g>
    <g id="xtick_5">
     <g id="line2d_5">
      <g>
       <use xlink:href="#m1d5b47d32c" x="436.725" y="456.76" style="stroke: #000000; stroke-width: 0.8"/>
      </g>
     </g>
     <g id="text_5">
      <!-- 40 -->
      <g transform="translate(430.621875 471.61625) scale(0.1 -0.1)">
       <defs>
        <path id="ComicSansMS-34" d="M 3013 1366 
L 3013 209 
Q 3013 -81 2728 -81 
Q 2397 -81 2397 372 
Q 2397 428 2403 531 
Q 2409 634 2409 672 
L 2406 1381 
L 1028 1416 
Q 600 1416 434 1444 
Q 150 1491 150 1666 
Q 150 1806 322 2022 
L 591 2341 
L 2128 4584 
Q 2338 4875 2659 4875 
Q 3013 4875 3013 4569 
L 3013 1972 
Q 3066 1975 3141 1975 
Q 3716 1975 3716 1666 
Q 3716 1441 3478 1381 
Q 3372 1353 3013 1366 
z
M 2406 4009 
Q 1572 2678 1103 2016 
L 2406 1984 
L 2406 4009 
z
" transform="scale(0.015625)"/>
       </defs>
       <use xlink:href="#ComicSansMS-34"/>
       <use xlink:href="#ComicSansMS-30" transform="translate(61.035156 0)"/>
      </g>
     </g>
    </g>
    <g id="xtick_6">
     <g id="line2d_6">
      <g>
       <use xlink:href="#m1d5b47d32c" x="524.695862" y="456.76" style="stroke: #000000; stroke-width: 0.8"/>
      </g>
     </g>
     <g id="text_6">
      <!-- 50 -->
      <g transform="translate(518.592737 471.61625) scale(0.1 -0.1)">
       <defs>
        <path id="ComicSansMS-35" d="M 1756 -197 
Q 869 -197 450 459 
Q 394 550 394 634 
Q 394 756 491 845 
Q 588 934 709 934 
Q 838 934 953 797 
Q 1119 597 1203 541 
Q 1406 403 1756 403 
Q 2297 403 2653 816 
Q 2994 1209 2994 1763 
Q 2994 2219 2844 2503 
Q 2650 2863 2247 2863 
Q 1913 2863 1700 2772 
Q 1531 2700 1359 2525 
L 1019 2153 
Q 881 2013 738 2013 
Q 613 2013 525 2102 
Q 438 2191 438 2316 
Q 438 2378 488 2872 
Q 594 3856 594 4166 
Q 594 4275 539 4404 
Q 484 4534 484 4597 
Q 484 4788 813 4788 
Q 875 4788 1001 4777 
Q 1128 4766 1191 4766 
Q 1372 4766 1734 4778 
Q 2097 4791 2278 4791 
Q 2363 4791 2534 4784 
Q 2706 4778 2791 4778 
Q 2850 4778 2962 4801 
Q 3075 4825 3131 4825 
Q 3253 4825 3347 4734 
Q 3441 4644 3441 4525 
Q 3441 4175 2700 4175 
Q 2603 4175 2456 4181 
Q 2309 4188 2278 4188 
L 1750 4178 
L 1222 4163 
Q 1222 4022 1106 3122 
Q 1534 3463 2247 3463 
Q 2934 3463 3297 2925 
Q 3603 2469 3603 1763 
Q 3603 919 3109 372 
Q 2597 -197 1756 -197 
z
" transform="scale(0.015625)"/>
       </defs>
       <use xlink:href="#ComicSansMS-35"/>
       <use xlink:href="#ComicSansMS-30" transform="translate(61.035156 0)"/>
      </g>
     </g>
    </g>
    <g id="xtick_7">
     <g id="line2d_7">
      <g>
       <use xlink:href="#m1d5b47d32c" x="612.666725" y="456.76" style="stroke: #000000; stroke-width: 0.8"/>
      </g>
     </g>
     <g id="text_7">
      <!-- 60 -->
      <g transform="translate(606.5636 471.61625) scale(0.1 -0.1)">
       <defs>
        <path id="ComicSansMS-36" d="M 1866 -225 
Q 1050 -225 666 372 
Q 347 863 347 1681 
Q 347 3225 1600 4359 
L 1894 4656 
Q 2109 4863 2219 4863 
Q 2344 4863 2437 4773 
Q 2531 4684 2534 4563 
Q 2541 4450 2216 4128 
L 1578 3506 
Q 1325 3250 1144 2731 
Q 1416 2856 1619 2917 
Q 1822 2978 1953 2978 
Q 2684 2978 3075 2587 
Q 3466 2197 3466 1484 
Q 3466 738 3044 266 
Q 2603 -225 1866 -225 
z
M 1866 2341 
Q 1597 2341 1384 2247 
Q 1303 2209 975 2006 
Q 956 1841 956 1681 
Q 956 1122 1144 769 
Q 1381 319 1884 319 
Q 2356 319 2616 656 
Q 2856 969 2856 1484 
Q 2856 1913 2609 2127 
Q 2363 2341 1866 2341 
z
" transform="scale(0.015625)"/>
       </defs>
       <use xlink:href="#ComicSansMS-36"/>
       <use xlink:href="#ComicSansMS-30" transform="translate(61.035156 0)"/>
      </g>
     </g>
    </g>
    <g id="xtick_8">
     <g id="line2d_8">
      <g>
       <use xlink:href="#m1d5b47d32c" x="700.637587" y="456.76" style="stroke: #000000; stroke-width: 0.8"/>
      </g>
     </g>
     <g id="text_8">
      <!-- 70 -->
      <g transform="translate(694.534462 471.61625) scale(0.1 -0.1)">
       <defs>
        <path id="ComicSansMS-37" d="M 3606 4081 
L 3322 3750 
Q 2916 3275 2575 2600 
L 2006 1353 
Q 1947 1216 1744 631 
Q 1581 169 1441 -59 
Q 1353 -206 1191 -206 
Q 1066 -206 970 -118 
Q 875 -31 875 91 
Q 875 209 1075 700 
L 1778 2422 
Q 2244 3444 2734 3997 
L 2794 4063 
L 1225 4094 
L 522 4113 
Q 219 4141 219 4413 
Q 219 4544 306 4628 
Q 394 4713 525 4713 
Q 919 4713 1708 4688 
Q 2497 4663 2891 4663 
L 3463 4663 
Q 3794 4663 3794 4466 
Q 3794 4319 3606 4081 
z
" transform="scale(0.015625)"/>
       </defs>
       <use xlink:href="#ComicSansMS-37"/>
       <use xlink:href="#ComicSansMS-30" transform="translate(61.035156 0)"/>
      </g>
     </g>
    </g>
    <g id="xtick_9">
     <g id="line2d_9">
      <g>
       <use xlink:href="#m1d5b47d32c" x="788.60845" y="456.76" style="stroke: #000000; stroke-width: 0.8"/>
      </g>
     </g>
     <g id="text_9">
      <!-- 80 -->
      <g transform="translate(782.505325 471.61625) scale(0.1 -0.1)">
       <defs>
        <path id="ComicSansMS-38" d="M 1919 -169 
Q 1259 -169 853 119 
Q 391 444 381 1072 
Q 369 2081 1091 2447 
Q 534 2784 534 3406 
Q 534 3997 963 4388 
Q 1372 4763 1956 4769 
Q 3269 4781 3269 3472 
Q 3269 3097 3119 2894 
Q 2997 2725 2647 2547 
Q 3113 2313 3300 2041 
Q 3519 1722 3519 1163 
Q 3519 525 3047 163 
Q 2609 -169 1919 -169 
z
M 1947 4209 
Q 1544 4209 1331 3981 
Q 1141 3769 1144 3406 
Q 1147 2969 1863 2784 
Q 2238 2894 2400 3003 
Q 2659 3178 2659 3472 
Q 2659 3897 2469 4069 
Q 2306 4209 1947 4209 
z
M 1891 2231 
Q 1394 2000 1228 1831 
Q 969 1572 984 1100 
Q 997 709 1344 516 
Q 1597 378 1919 378 
Q 2469 378 2688 638 
Q 2863 844 2863 1263 
Q 2863 1672 2544 1922 
Q 2331 2094 1891 2231 
z
" transform="scale(0.015625)"/>
       </defs>
       <use xlink:href="#ComicSansMS-38"/>
       <use xlink:href="#ComicSansMS-30" transform="translate(61.035156 0)"/>
      </g>
     </g>
    </g>
    <g id="text_10">
     <!-- Step -->
     <g transform="translate(420.915938 489.42625) scale(0.14 -0.14)">
      <defs>
       <path id="ComicSansMS-Bold-53" d="M 1784 -191 
Q 991 -191 534 163 
Q 150 456 150 841 
Q 150 1038 269 1167 
Q 388 1297 597 1297 
Q 878 1297 1009 1009 
Q 1188 625 1816 625 
Q 2353 625 2856 859 
Q 3378 1100 3378 1388 
Q 3378 1781 3053 1906 
Q 2822 1997 2125 2013 
Q 1584 2025 1156 2216 
Q 578 2475 588 2959 
Q 597 3569 1237 4076 
Q 1878 4584 2650 4584 
Q 2956 4584 3406 4444 
Q 3966 4269 3966 4041 
Q 3966 3878 3853 3753 
Q 3728 3613 3531 3613 
Q 3384 3613 3092 3675 
Q 2800 3738 2650 3738 
Q 2247 3734 1884 3544 
Q 1509 3350 1509 3122 
Q 1509 3003 1623 2926 
Q 1738 2850 1966 2819 
Q 2366 2797 2763 2775 
Q 3456 2722 3859 2384 
Q 4303 2009 4303 1347 
Q 4303 541 3384 125 
Q 2684 -191 1784 -191 
z
" transform="scale(0.015625)"/>
       <path id="ComicSansMS-Bold-74" d="M 2525 2516 
Q 2459 2516 2370 2520 
Q 2281 2525 2216 2525 
Q 2088 2525 1919 2500 
Q 1975 1238 1975 850 
Q 1975 809 1978 698 
Q 1981 588 1981 519 
Q 1981 -200 1528 -200 
Q 1356 -200 1231 -94 
Q 1094 19 1094 188 
Q 1094 300 1103 525 
Q 1113 750 1113 863 
Q 1113 1241 1056 2481 
Q 863 2491 470 2533 
Q 78 2575 78 2938 
Q 78 3113 197 3234 
Q 316 3356 503 3356 
Q 619 3356 1034 3319 
Q 1031 3419 1019 3650 
Q 1006 3850 1006 3959 
Q 1006 4134 1134 4250 
Q 1263 4366 1444 4366 
Q 1906 4366 1906 3588 
L 1900 3331 
Q 2094 3359 2216 3359 
Q 2575 3359 2706 3313 
Q 2956 3225 2956 2931 
Q 2956 2753 2834 2634 
Q 2713 2516 2525 2516 
z
" transform="scale(0.015625)"/>
       <path id="ComicSansMS-Bold-65" d="M 1894 -144 
Q 1147 -144 672 213 
Q 147 606 147 1322 
Q 147 2113 563 2659 
Q 1025 3266 1809 3266 
Q 2353 3266 2713 3091 
Q 3184 2859 3184 2372 
Q 3184 2028 2800 1763 
Q 2625 1641 2097 1406 
L 1044 941 
Q 1194 778 1406 697 
Q 1619 616 1894 616 
Q 2313 616 2603 788 
Q 2863 941 3019 941 
Q 3344 941 3344 625 
Q 3344 269 2822 44 
Q 2384 -144 1894 -144 
z
M 1809 2509 
Q 1519 2509 1312 2315 
Q 1106 2122 981 1734 
Q 1334 1888 1684 2038 
Q 2106 2228 2356 2391 
Q 2147 2509 1809 2509 
z
" transform="scale(0.015625)"/>
       <path id="ComicSansMS-Bold-70" d="M 1763 -184 
Q 1494 -184 1197 -122 
L 1194 -1397 
Q 1194 -1578 1072 -1697 
Q 950 -1816 763 -1816 
Q 575 -1816 453 -1697 
Q 331 -1578 331 -1397 
Q 331 -1250 338 -231 
Q 344 525 338 1003 
Q 328 1678 294 2166 
Q 247 2838 247 2781 
Q 247 3041 363 3225 
Q 497 3434 725 3434 
Q 900 3434 1019 3315 
Q 1138 3197 1138 3031 
L 1134 3000 
Q 1344 3119 1555 3176 
Q 1766 3234 1978 3234 
Q 2697 3234 3028 2625 
Q 3275 2166 3275 1434 
Q 3275 750 2884 300 
Q 2466 -184 1763 -184 
z
M 1978 2400 
Q 1781 2400 1578 2308 
Q 1375 2216 1169 2031 
Q 1206 1388 1206 741 
Q 1484 650 1763 650 
Q 2084 650 2256 878 
Q 2413 1084 2413 1434 
Q 2413 1856 2375 2019 
Q 2284 2400 1978 2400 
z
" transform="scale(0.015625)"/>
      </defs>
      <use xlink:href="#ComicSansMS-Bold-53"/>
      <use xlink:href="#ComicSansMS-Bold-74" transform="translate(69.335938 0)"/>
      <use xlink:href="#ComicSansMS-Bold-65" transform="translate(116.455078 0)"/>
      <use xlink:href="#ComicSansMS-Bold-70" transform="translate(172.363281 0)"/>
     </g>
    </g>
   </g>
   <g id="matplotlib.axis_2">
    <g id="ytick_1">
     <g id="line2d_10">
      <path d="M 59.33 429.088416 
L 814.12 429.088416 
" clip-path="url(#pa608fb37dd)" style="fill: none; stroke-dasharray: 2.96,1.28; stroke-dashoffset: 0; stroke: #cccccc; stroke-opacity: 0.3; stroke-width: 0.8"/>
     </g>
     <g id="line2d_11">
      <defs>
       <path id="md48f973a3e" d="M 0 0 
L -3.5 0 
" style="stroke: #000000; stroke-width: 0.8"/>
      </defs>
      <g>
       <use xlink:href="#md48f973a3e" x="59.33" y="429.088416" style="stroke: #000000; stroke-width: 0.8"/>
      </g>
     </g>
     <g id="text_11">
      <!-- 0.04 -->
      <g style="fill: #e6c229" transform="translate(29.45 433.409353) scale(0.11 -0.11)">
       <defs>
        <path id="ComicSansMS-2e" d="M 834 -291 
Q 672 -291 559 -178 
Q 447 -66 447 97 
Q 447 256 559 370 
Q 672 484 834 484 
Q 994 484 1108 370 
Q 1222 256 1222 97 
Q 1222 -66 1108 -178 
Q 994 -291 834 -291 
z
" transform="scale(0.015625)"/>
       </defs>
       <use xlink:href="#ComicSansMS-30"/>
       <use xlink:href="#ComicSansMS-2e" transform="translate(61.035156 0)"/>
       <use xlink:href="#ComicSansMS-30" transform="translate(85.9375 0)"/>
       <use xlink:href="#ComicSansMS-34" transform="translate(146.972656 0)"/>
      </g>
     </g>
    </g>
    <g id="ytick_2">
     <g id="line2d_12">
      <path d="M 59.33 346.557599 
L 814.12 346.557599 
" clip-path="url(#pa608fb37dd)" style="fill: none; stroke-dasharray: 2.96,1.28; stroke-dashoffset: 0; stroke: #cccccc; stroke-opacity: 0.3; stroke-width: 0.8"/>
     </g>
     <g id="line2d_13">
      <g>
       <use xlink:href="#md48f973a3e" x="59.33" y="346.557599" style="stroke: #000000; stroke-width: 0.8"/>
      </g>
     </g>
     <g id="text_12">
      <!-- 0.06 -->
      <g style="fill: #e6c229" transform="translate(29.45 350.878537) scale(0.11 -0.11)">
       <use xlink:href="#ComicSansMS-30"/>
       <use xlink:href="#ComicSansMS-2e" transform="translate(61.035156 0)"/>
       <use xlink:href="#ComicSansMS-30" transform="translate(85.9375 0)"/>
       <use xlink:href="#ComicSansMS-36" transform="translate(146.972656 0)"/>
      </g>
     </g>
    </g>
    <g id="ytick_3">
     <g id="line2d_14">
      <path d="M 59.33 264.026782 
L 814.12 264.026782 
" clip-path="url(#pa608fb37dd)" style="fill: none; stroke-dasharray: 2.96,1.28; stroke-dashoffset: 0; stroke: #cccccc; stroke-opacity: 0.3; stroke-width: 0.8"/>
     </g>
     <g id="line2d_15">
      <g>
       <use xlink:href="#md48f973a3e" x="59.33" y="264.026782" style="stroke: #000000; stroke-width: 0.8"/>
      </g>
     </g>
     <g id="text_13">
      <!-- 0.08 -->
      <g style="fill: #e6c229" transform="translate(29.45 268.34772) scale(0.11 -0.11)">
       <use xlink:href="#ComicSansMS-30"/>
       <use xlink:href="#ComicSansMS-2e" transform="translate(61.035156 0)"/>
       <use xlink:href="#ComicSansMS-30" transform="translate(85.9375 0)"/>
       <use xlink:href="#ComicSansMS-38" transform="translate(146.972656 0)"/>
      </g>
     </g>
    </g>
    <g id="ytick_4">
     <g id="line2d_16">
      <path d="M 59.33 181.495966 
L 814.12 181.495966 
" clip-path="url(#pa608fb37dd)" style="fill: none; stroke-dasharray: 2.96,1.28; stroke-dashoffset: 0; stroke: #cccccc; stroke-opacity: 0.3; stroke-width: 0.8"/>
     </g>
     <g id="line2d_17">
      <g>
       <use xlink:href="#md48f973a3e" x="59.33" y="181.495966" style="stroke: #000000; stroke-width: 0.8"/>
      </g>
     </g>
     <g id="text_14">
      <!-- 0.10 -->
      <g style="fill: #e6c229" transform="translate(31.211719 185.816903) scale(0.11 -0.11)">
       <use xlink:href="#ComicSansMS-30"/>
       <use xlink:href="#ComicSansMS-2e" transform="translate(61.035156 0)"/>
       <use xlink:href="#ComicSansMS-31" transform="translate(85.9375 0)"/>
       <use xlink:href="#ComicSansMS-30" transform="translate(130.957031 0)"/>
      </g>
     </g>
    </g>
    <g id="ytick_5">
     <g id="line2d_18">
      <path d="M 59.33 98.965149 
L 814.12 98.965149 
" clip-path="url(#pa608fb37dd)" style="fill: none; stroke-dasharray: 2.96,1.28; stroke-dashoffset: 0; stroke: #cccccc; stroke-opacity: 0.3; stroke-width: 0.8"/>
     </g>
     <g id="line2d_19">
      <g>
       <use xlink:href="#md48f973a3e" x="59.33" y="98.965149" style="stroke: #000000; stroke-width: 0.8"/>
      </g>
     </g>
     <g id="text_15">
      <!-- 0.12 -->
      <g style="fill: #e6c229" transform="translate(31.211719 103.286086) scale(0.11 -0.11)">
       <use xlink:href="#ComicSansMS-30"/>
       <use xlink:href="#ComicSansMS-2e" transform="translate(61.035156 0)"/>
       <use xlink:href="#ComicSansMS-31" transform="translate(85.9375 0)"/>
       <use xlink:href="#ComicSansMS-32" transform="translate(130.957031 0)"/>
      </g>
     </g>
    </g>
    <g id="text_16">
     <!-- Reward -->
     <g style="fill: #e6c229" transform="translate(21.4775 275.527031) rotate(-90) scale(0.14 -0.14)">
      <defs>
       <path id="ComicSansMS-Bold-52" d="M 3519 -38 
Q 3350 -38 3209 94 
Q 2263 981 1128 1325 
Q 1163 416 1163 316 
Q 1163 138 1038 14 
Q 913 -109 725 -109 
Q 538 -109 413 14 
Q 288 138 288 316 
Q 288 550 294 1017 
Q 300 1484 300 1719 
L 306 4241 
Q 306 4444 428 4609 
Q 588 4822 869 4800 
Q 1628 4744 1647 4741 
Q 2084 4688 2391 4531 
Q 3725 3859 3725 2866 
Q 3725 2456 3445 2142 
Q 3166 1828 2606 1613 
Q 3434 1150 3853 669 
Q 3963 544 3963 391 
Q 3963 216 3831 89 
Q 3700 -38 3519 -38 
z
M 1516 3894 
Q 1491 3897 1150 3919 
L 1150 2259 
Q 1228 2256 1288 2256 
Q 2053 2256 2422 2447 
Q 2581 2528 2714 2662 
Q 2847 2797 2847 2866 
Q 2847 3216 2403 3541 
Q 1981 3847 1516 3894 
z
" transform="scale(0.015625)"/>
       <path id="ComicSansMS-Bold-77" d="M 4316 2753 
Q 3988 1528 3656 528 
Q 3563 247 3350 -50 
Q 3200 -256 2950 -253 
Q 2556 -247 2331 506 
Q 2247 794 2131 1578 
Q 2066 1441 2050 1394 
Q 1888 1006 1575 191 
Q 1528 59 1434 -19 
Q 1303 -228 1044 -238 
Q 897 -244 734 25 
Q 563 297 456 725 
Q 359 1113 156 2413 
Q 113 2694 113 2853 
Q 113 3025 242 3139 
Q 372 3253 553 3253 
Q 891 3253 969 2919 
Q 1009 2744 1038 2488 
Q 1075 2119 1084 2053 
Q 1125 1809 1209 1256 
Q 1441 1891 1741 2834 
Q 1869 3241 2222 3241 
Q 2569 3241 2678 2788 
Q 2756 2469 2844 1959 
Q 2972 1219 3000 1078 
Q 3028 1175 3491 2978 
Q 3559 3247 3881 3247 
Q 4059 3247 4195 3131 
Q 4331 3016 4331 2844 
Q 4331 2813 4316 2753 
z
" transform="scale(0.015625)"/>
       <path id="ComicSansMS-Bold-61" d="M 3016 -206 
Q 2872 -206 2559 106 
Q 2272 -31 2053 -101 
Q 1834 -172 1681 -172 
Q 928 -172 551 231 
Q 175 634 175 1438 
Q 175 2191 731 2727 
Q 1288 3263 2063 3263 
Q 2359 3263 2750 3094 
Q 3222 2891 3222 2622 
Q 3222 2509 3150 2425 
Q 3119 2300 3101 2111 
Q 3084 1922 3084 1669 
Q 3084 1072 3169 809 
Q 3178 781 3313 484 
Q 3434 216 3434 178 
Q 3434 13 3307 -96 
Q 3181 -206 3016 -206 
z
M 2241 1938 
Q 2241 2038 2255 2167 
Q 2269 2297 2297 2456 
Q 2234 2488 2186 2502 
Q 2138 2516 2103 2516 
Q 1678 2516 1359 2183 
Q 1041 1850 1041 1413 
Q 1041 994 1191 783 
Q 1341 572 1641 572 
Q 1834 572 2007 636 
Q 2181 700 2334 825 
Q 2241 1569 2241 1938 
z
" transform="scale(0.015625)"/>
       <path id="ComicSansMS-Bold-72" d="M 2938 2253 
Q 2909 1775 2503 1775 
Q 2109 1775 2109 2181 
L 2094 2497 
Q 1391 2384 1088 1775 
L 1091 203 
Q 1091 25 969 -92 
Q 847 -209 659 -209 
Q 466 -209 359 -84 
Q 259 28 259 203 
L 259 2250 
Q 259 2347 265 2539 
Q 272 2731 272 2828 
Q 272 3003 376 3120 
Q 481 3238 675 3238 
Q 1022 3238 1088 2881 
Q 1641 3294 2316 3294 
Q 2941 3294 2941 2463 
Q 2941 2303 2938 2253 
z
" transform="scale(0.015625)"/>
       <path id="ComicSansMS-Bold-64" d="M 2606 3141 
Q 2647 4206 2703 4613 
Q 2756 4981 3109 4981 
Q 3294 4981 3406 4862 
Q 3519 4744 3519 4572 
Q 3519 4119 3448 3222 
Q 3378 2325 3378 1872 
Q 3378 766 3450 391 
Q 3459 341 3459 300 
Q 3459 128 3334 17 
Q 3209 -94 3044 -94 
Q 2813 -94 2700 113 
Q 2488 -16 2259 -80 
Q 2031 -144 1788 -144 
Q 1088 -144 625 303 
Q 153 759 153 1466 
Q 153 2306 628 2823 
Q 1103 3341 1869 3341 
Q 2103 3341 2287 3291 
Q 2472 3241 2606 3141 
z
M 2544 2156 
Q 2441 2353 2275 2450 
Q 2109 2547 1881 2547 
Q 1419 2547 1187 2280 
Q 956 2013 956 1478 
Q 956 1141 1206 900 
Q 1456 659 1788 659 
Q 2028 659 2153 716 
Q 2238 753 2441 916 
Q 2494 959 2544 1013 
Q 2538 1163 2544 2156 
z
" transform="scale(0.015625)"/>
      </defs>
      <use xlink:href="#ComicSansMS-Bold-52"/>
      <use xlink:href="#ComicSansMS-Bold-65" transform="translate(64.013672 0)"/>
      <use xlink:href="#ComicSansMS-Bold-77" transform="translate(119.921875 0)"/>
      <use xlink:href="#ComicSansMS-Bold-61" transform="translate(188.330078 0)"/>
      <use xlink:href="#ComicSansMS-Bold-72" transform="translate(243.896484 0)"/>
      <use xlink:href="#ComicSansMS-Bold-64" transform="translate(291.943359 0)"/>
     </g>
    </g>
   </g>
   <g id="line2d_20">
    <path d="M 93.638636 416.274529 
L 102.435723 382.417097 
L 111.232809 371.668116 
L 120.029895 438.052727 
L 128.826981 385.89573 
L 137.624068 384.720773 
L 146.421154 345.114213 
L 155.21824 401.981945 
L 164.015326 407.497039 
L 172.812413 361.489256 
L 181.609499 404.447759 
L 190.406585 402.799742 
L 199.203671 407.540673 
L 208.000758 348.558819 
L 216.797844 222.309925 
L 225.59493 387.715915 
L 234.392016 350.383646 
L 243.189103 402.889352 
L 251.986189 310.870833 
L 260.783275 220.550189 
L 269.580361 344.590645 
L 278.377448 344.084876 
L 287.174534 308.746926 
L 295.97162 341.287966 
L 304.768706 309.09159 
L 313.565793 280.072925 
L 322.362879 230.57243 
L 331.159965 380.894875 
L 339.957051 378.32485 
L 348.754138 321.436966 
L 357.551224 364.618081 
L 366.34831 336.080886 
L 375.145396 339.611496 
L 383.942483 297.237233 
L 392.739569 297.634543 
L 401.536655 325.563371 
L 410.333741 277.80235 
L 419.130828 314.102823 
L 427.927914 331.230733 
L 436.725 252.823935 
L 445.522086 291.556745 
L 454.319172 276.652248 
L 463.116259 194.060825 
L 471.913345 264.501562 
L 480.710431 214.975678 
L 489.507517 258.720635 
L 498.304604 305.638153 
L 507.10169 197.61841 
L 515.898776 292.114644 
L 524.695862 263.060676 
L 533.492949 253.506553 
L 542.290035 232.44269 
L 551.087121 239.038663 
L 559.884207 170.423733 
L 568.681294 333.064648 
L 577.47838 167.549975 
L 586.275466 274.814217 
L 595.072552 158.476522 
L 603.869639 118.082316 
L 612.666725 156.1991 
L 621.463811 141.550353 
L 630.260897 169.099674 
L 639.057984 257.105024 
L 647.85507 160.599211 
L 656.652156 152.640645 
L 665.449242 150.713711 
L 674.246329 90.895688 
L 683.043415 142.24146 
L 691.840501 63.907273 
L 700.637587 156.268256 
L 709.434674 249.07801 
L 718.23176 150.662659 
L 727.028846 198.207158 
L 735.825932 174.196948 
L 744.623019 183.514005 
L 753.420105 190.41134 
L 762.217191 140.7833 
L 771.014277 171.372228 
L 779.811364 88.465442 
" clip-path="url(#pa608fb37dd)" style="fill: none; stroke-dasharray: 7.4,3.2; stroke-dashoffset: 0; stroke: #ffe66d; stroke-opacity: 0.5; stroke-width: 2"/>
   </g>
   <g id="line2d_21">
    <path d="M 93.638636 416.274529 
L 102.435723 399.345813 
L 111.232809 390.119914 
L 120.029895 402.103117 
L 128.826981 398.86164 
L 137.624068 396.504829 
L 146.421154 389.163312 
L 155.21824 390.765641 
L 164.015326 389.668455 
L 172.812413 387.052475 
L 181.609499 391.14993 
L 190.406585 386.743307 
L 199.203671 389.448925 
L 208.000758 384.928681 
L 216.797844 369.578145 
L 225.59493 367.794891 
L 234.392016 360.655717 
L 243.189103 365.830729 
L 251.986189 354.133613 
L 260.783275 331.352419 
L 269.580361 323.483666 
L 278.377448 322.924423 
L 287.174534 333.729048 
L 295.97162 327.925554 
L 304.768706 322.764047 
L 313.565793 307.411994 
L 322.362879 297.374693 
L 331.159965 317.417779 
L 339.957051 321.634555 
L 348.754138 318.803566 
L 357.551224 325.78746 
L 366.34831 325.136575 
L 375.145396 328.951563 
L 383.942483 331.097102 
L 392.739569 339.479866 
L 401.536655 332.563428 
L 410.333741 319.998116 
L 419.130828 319.081348 
L 427.927914 314.907929 
L 436.725 304.50081 
L 445.522086 298.493966 
L 454.319172 295.920843 
L 463.116259 282.974129 
L 471.913345 275.341403 
L 480.710431 267.488069 
L 489.507517 260.565295 
L 498.304604 257.366223 
L 507.10169 250.465532 
L 515.898776 250.535269 
L 524.695862 248.836323 
L 533.492949 256.267039 
L 542.290035 252.25968 
L 551.087121 255.267553 
L 559.884207 244.23044 
L 568.681294 247.658752 
L 577.47838 243.900198 
L 586.275466 241.737644 
L 595.072552 228.664625 
L 603.869639 211.736595 
L 612.666725 202.206147 
L 621.463811 190.020108 
L 630.260897 189.854601 
L 639.057984 180.359648 
L 647.85507 179.490802 
L 656.652156 164.219106 
L 665.449242 163.248754 
L 674.246329 159.850426 
L 683.043415 158.105721 
L 691.840501 148.400336 
L 700.637587 146.796409 
L 709.434674 145.793032 
L 718.23176 144.550963 
L 727.028846 150.246777 
L 735.825932 153.182182 
L 744.623019 164.759471 
L 753.420105 170.780706 
L 762.217191 180.39021 
L 771.014277 182.278206 
L 779.811364 162.201635 
" clip-path="url(#pa608fb37dd)" style="fill: none; stroke: #e6c229; stroke-opacity: 0.9; stroke-width: 3.5; stroke-linecap: square"/>
   </g>
   <g id="line2d_22">
    <path d="M 93.638636 416.274529 
L 102.435723 399.345813 
L 111.232809 390.119914 
L 120.029895 402.103117 
L 128.826981 398.86164 
L 137.624068 396.504829 
L 146.421154 389.163312 
L 155.21824 390.765641 
L 164.015326 389.668455 
L 172.812413 387.052475 
L 181.609499 391.14993 
L 190.406585 386.743307 
L 199.203671 389.448925 
L 208.000758 384.928681 
L 216.797844 369.578145 
L 225.59493 367.794891 
L 234.392016 360.655717 
L 243.189103 365.830729 
L 251.986189 354.133613 
L 260.783275 331.352419 
L 269.580361 323.483666 
L 278.377448 322.924423 
L 287.174534 333.729048 
L 295.97162 327.925554 
L 304.768706 322.764047 
L 313.565793 307.411994 
L 322.362879 297.374693 
L 331.159965 317.417779 
L 339.957051 321.634555 
L 348.754138 318.803566 
L 357.551224 325.78746 
L 366.34831 325.136575 
L 375.145396 328.951563 
L 383.942483 331.097102 
L 392.739569 339.479866 
L 401.536655 332.563428 
L 410.333741 319.998116 
L 419.130828 319.081348 
L 427.927914 314.907929 
L 436.725 304.50081 
L 445.522086 298.493966 
L 454.319172 295.920843 
L 463.116259 282.974129 
L 471.913345 275.341403 
L 480.710431 267.488069 
L 489.507517 260.565295 
L 498.304604 257.366223 
L 507.10169 250.465532 
L 515.898776 250.535269 
L 524.695862 248.836323 
L 533.492949 256.267039 
L 542.290035 252.25968 
L 551.087121 255.267553 
L 559.884207 244.23044 
L 568.681294 247.658752 
L 577.47838 243.900198 
L 586.275466 241.737644 
L 595.072552 228.664625 
L 603.869639 211.736595 
L 612.666725 202.206147 
L 621.463811 190.020108 
L 630.260897 189.854601 
L 639.057984 180.359648 
L 647.85507 179.490802 
L 656.652156 164.219106 
L 665.449242 163.248754 
L 674.246329 159.850426 
L 683.043415 158.105721 
L 691.840501 148.400336 
L 700.637587 146.796409 
L 709.434674 145.793032 
L 718.23176 144.550963 
L 727.028846 150.246777 
L 735.825932 153.182182 
L 744.623019 164.759471 
L 753.420105 170.780706 
L 762.217191 180.39021 
L 771.014277 182.278206 
L 779.811364 162.201635 
" clip-path="url(#pa608fb37dd)" style="fill: none; stroke: #ffe66d; stroke-width: 1.5; stroke-linecap: square"/>
   </g>
   <g id="patch_3">
    <path d="M 59.33 456.76 
L 59.33 45.2 
" style="fill: none; stroke: #e6c229; stroke-width: 2; stroke-linejoin: miter; stroke-linecap: square"/>
   </g>
   <g id="patch_4">
    <path d="M 59.33 456.76 
L 814.12 456.76 
" style="fill: none; stroke: #555555; stroke-width: 1.5; stroke-linejoin: miter; stroke-linecap: square"/>
   </g>
   <g id="legend_1">
    <g id="patch_5">
     <path d="M 67.03 123.0525 
L 200.917188 123.0525 
Q 203.117188 123.0525 203.117188 120.8525 
L 203.117188 52.9 
Q 203.117188 50.7 200.917188 50.7 
L 67.03 50.7 
Q 64.83 50.7 64.83 52.9 
L 64.83 120.8525 
Q 64.83 123.0525 67.03 123.0525 
z
" style="fill: #ffffff; opacity: 0.8; stroke: #cccccc; stroke-linejoin: miter"/>
    </g>
    <g id="line2d_23">
     <path d="M 69.23 59.891875 
L 80.23 59.891875 
L 91.23 59.891875 
" style="fill: none; stroke-dasharray: 7.4,3.2; stroke-dashoffset: 0; stroke: #ffe66d; stroke-opacity: 0.5; stroke-width: 2"/>
    </g>
    <g id="text_17">
     <!-- Raw Reward -->
     <g transform="translate(100.03 63.741875) scale(0.11 -0.11)">
      <defs>
       <path id="ComicSansMS-52" d="M 3519 -34 
Q 3400 -34 3297 66 
Q 2263 1088 997 1441 
L 1022 828 
L 1038 213 
Q 1038 75 948 -17 
Q 859 -109 725 -109 
Q 591 -109 502 -17 
Q 413 75 413 213 
Q 413 459 389 948 
Q 366 1438 366 1684 
Q 366 1972 428 2540 
Q 491 3109 491 3394 
Q 491 3553 461 3865 
Q 431 4178 431 4338 
Q 431 4516 531 4650 
Q 650 4816 859 4800 
L 1613 4741 
Q 2041 4688 2334 4531 
Q 3600 3859 3600 2891 
Q 3600 2416 3169 2050 
Q 2822 1756 2303 1603 
Q 3275 1081 3756 503 
Q 3838 403 3838 291 
Q 3838 159 3742 62 
Q 3647 -34 3519 -34 
z
M 1528 4097 
L 1066 4134 
L 1097 3756 
Q 1119 3525 1119 3378 
Q 1119 3128 1078 2756 
L 1013 2134 
Q 1056 2134 1148 2131 
Q 1241 2128 1288 2128 
Q 2084 2128 2481 2341 
Q 2656 2438 2806 2594 
Q 2972 2769 2972 2891 
Q 2972 3325 2478 3700 
Q 2025 4044 1528 4097 
z
" transform="scale(0.015625)"/>
       <path id="ComicSansMS-61" d="M 2875 -206 
Q 2816 -206 2659 -69 
Q 2519 59 2450 159 
Q 2150 -3 1922 -86 
Q 1694 -169 1541 -169 
Q 809 -169 475 244 
Q 159 631 159 1431 
Q 159 2188 679 2725 
Q 1200 3263 1922 3263 
Q 2194 3263 2531 3122 
Q 2956 2947 2956 2700 
Q 2956 2616 2894 2550 
Q 2863 2431 2845 2159 
Q 2828 1888 2825 1463 
Q 2822 1075 2878 850 
Q 2909 713 3075 300 
Q 3097 244 3147 134 
L 3166 81 
Q 3166 -44 3078 -125 
Q 2991 -206 2875 -206 
z
M 2225 1966 
Q 2225 2100 2242 2258 
Q 2259 2416 2294 2594 
Q 2178 2653 2095 2681 
Q 2013 2709 1963 2709 
Q 1478 2709 1126 2314 
Q 775 1919 775 1403 
Q 775 891 956 634 
Q 1138 378 1500 378 
Q 1800 378 2009 488 
Q 2122 547 2325 725 
Q 2225 1553 2225 1966 
z
" transform="scale(0.015625)"/>
       <path id="ComicSansMS-77" d="M 4175 2797 
Q 3931 1778 3538 494 
Q 3450 209 3247 -91 
Q 3138 -256 2950 -253 
Q 2609 -247 2419 594 
Q 2356 863 2291 1325 
L 2188 2022 
L 1931 1425 
L 1456 134 
Q 1416 16 1338 -47 
Q 1244 -228 1038 -234 
Q 800 -244 578 697 
Q 466 1181 353 2009 
L 278 2478 
Q 238 2759 238 2950 
Q 238 3081 330 3167 
Q 422 3253 553 3253 
Q 791 3253 847 2994 
Q 888 2809 913 2538 
L 959 2078 
L 1144 675 
Q 1491 1638 1863 2894 
Q 1966 3241 2222 3241 
Q 2469 3241 2556 2853 
Q 2638 2488 2759 1728 
Q 2884 941 2981 500 
L 3209 1350 
L 3613 3053 
Q 3659 3244 3881 3244 
Q 4013 3244 4109 3155 
Q 4206 3066 4206 2941 
Q 4206 2925 4175 2797 
z
" transform="scale(0.015625)"/>
       <path id="ComicSansMS-20" transform="scale(0.015625)"/>
       <path id="ComicSansMS-65" d="M 1894 -144 
Q 1188 -144 750 209 
Q 272 600 272 1303 
Q 272 2116 666 2666 
Q 1094 3266 1809 3266 
Q 2328 3266 2656 3091 
Q 3059 2875 3059 2428 
Q 3059 2116 2706 1859 
Q 2550 1747 2044 1509 
L 850 944 
Q 1025 684 1286 553 
Q 1547 422 1894 422 
Q 2109 422 2400 503 
Q 2769 606 2875 773 
Q 2981 941 3103 941 
Q 3213 941 3298 858 
Q 3384 775 3384 666 
Q 3384 319 2825 69 
Q 2347 -144 1894 -144 
z
M 1809 2703 
Q 1428 2703 1175 2408 
Q 922 2113 797 1519 
L 1756 1975 
Q 2322 2250 2563 2453 
Q 2294 2703 1809 2703 
z
" transform="scale(0.015625)"/>
       <path id="ComicSansMS-72" d="M 2866 2309 
Q 2844 1919 2553 1919 
Q 2284 1919 2284 2228 
Q 2284 2288 2275 2447 
L 2266 2709 
Q 1772 2650 1475 2431 
Q 1197 2228 1013 1819 
L 1019 106 
Q 1019 -209 709 -209 
Q 434 -209 434 106 
L 434 2300 
Q 434 2403 442 2609 
Q 450 2816 450 2919 
Q 450 3234 725 3234 
Q 1031 3234 1034 2716 
Q 1634 3294 2366 3294 
Q 2619 3294 2744 3103 
Q 2869 2913 2869 2528 
Q 2869 2366 2866 2309 
z
" transform="scale(0.015625)"/>
       <path id="ComicSansMS-64" d="M 3313 2759 
Q 3275 2300 3275 1841 
Q 3275 800 3372 269 
Q 3378 225 3378 197 
Q 3378 72 3290 -9 
Q 3203 -91 3088 -91 
Q 2894 -91 2803 191 
Q 2578 25 2336 -59 
Q 2094 -144 1831 -144 
Q 1184 -144 759 288 
Q 322 728 322 1419 
Q 322 2253 764 2756 
Q 1206 3259 1913 3259 
Q 2275 3259 2472 3147 
L 2766 2931 
Q 2809 4247 2869 4703 
Q 2909 4981 3153 4981 
Q 3438 4981 3438 4678 
Q 3438 4244 3313 2759 
z
M 1925 2678 
Q 1400 2678 1137 2367 
Q 875 2056 875 1431 
Q 875 1028 1161 737 
Q 1447 447 1831 447 
Q 2094 447 2275 544 
Q 2381 600 2622 803 
Q 2669 844 2713 900 
L 2703 1441 
L 2706 1803 
L 2713 2172 
Q 2594 2425 2397 2551 
Q 2200 2678 1925 2678 
z
" transform="scale(0.015625)"/>
      </defs>
      <use xlink:href="#ComicSansMS-52"/>
      <use xlink:href="#ComicSansMS-61" transform="translate(62.841797 0)"/>
      <use xlink:href="#ComicSansMS-77" transform="translate(114.013672 0)"/>
      <use xlink:href="#ComicSansMS-20" transform="translate(182.421875 0)"/>
      <use xlink:href="#ComicSansMS-52" transform="translate(212.304688 0)"/>
      <use xlink:href="#ComicSansMS-65" transform="translate(275.146484 0)"/>
      <use xlink:href="#ComicSansMS-77" transform="translate(329.931641 0)"/>
      <use xlink:href="#ComicSansMS-61" transform="translate(398.339844 0)"/>
      <use xlink:href="#ComicSansMS-72" transform="translate(449.511719 0)"/>
      <use xlink:href="#ComicSansMS-64" transform="translate(497.558594 0)"/>
     </g>
    </g>
    <g id="line2d_24">
     <path d="M 69.23 77.155 
L 80.23 77.155 
L 91.23 77.155 
" style="fill: none; stroke: #e6c229; stroke-opacity: 0.9; stroke-width: 3.5; stroke-linecap: square"/>
    </g>
    <g id="text_18">
     <!-- Smoothed Reward -->
     <g transform="translate(100.03 81.005) scale(0.11 -0.11)">
      <defs>
       <path id="ComicSansMS-53" d="M 419 778 
Q 416 909 508 992 
Q 600 1075 734 1075 
Q 888 1075 1003 900 
Q 1163 663 1288 578 
Q 1553 403 2059 403 
Q 2544 403 2959 613 
Q 3491 881 3491 1359 
Q 3491 1753 3044 1981 
Q 2666 2178 2109 2194 
Q 1616 2213 1269 2409 
Q 825 2663 825 3134 
Q 825 3691 1456 4150 
Q 2059 4584 2703 4584 
Q 3006 4584 3388 4481 
Q 3894 4347 3894 4138 
Q 3894 3863 3613 3863 
Q 3488 3863 3175 3930 
Q 2863 3997 2691 3994 
Q 2203 3988 1863 3753 
Q 1513 3513 1513 3169 
Q 1513 2909 1975 2803 
Q 2147 2763 2641 2728 
Q 3356 2675 3759 2278 
Q 4128 1916 4128 1394 
Q 4128 650 3441 206 
Q 2844 -178 2056 -178 
Q 1484 -178 1009 41 
Q 428 309 419 778 
z
" transform="scale(0.015625)"/>
       <path id="ComicSansMS-6d" d="M 4403 -259 
Q 4147 -259 4103 13 
Q 4047 356 3991 981 
L 3884 1950 
Q 3853 2166 3778 2372 
Q 3672 2653 3547 2653 
Q 3431 2653 3116 2456 
Q 2816 2275 2722 2166 
Q 2719 1872 2738 1578 
L 2831 744 
Q 2891 250 2891 -72 
Q 2891 -209 2805 -298 
Q 2719 -388 2584 -388 
Q 2450 -388 2364 -298 
Q 2278 -209 2278 -72 
Q 2278 306 2201 1045 
Q 2125 1784 2125 2163 
Q 2125 2494 2031 2678 
Q 1813 2578 1588 2353 
L 1219 1941 
Q 1169 1866 1059 1744 
Q 1059 1556 1025 1190 
Q 991 825 991 650 
Q 991 556 1020 387 
Q 1050 219 1050 144 
Q 1050 16 954 -71 
Q 859 -159 731 -159 
Q 378 -159 378 644 
Q 378 831 412 1203 
Q 447 1575 447 1763 
Q 447 1928 417 2259 
Q 388 2591 388 2759 
Q 388 3469 706 3469 
Q 828 3469 929 3362 
Q 1031 3256 1031 3131 
Q 1031 3072 1015 2947 
Q 1000 2822 1000 2756 
L 1006 2428 
Q 1169 2763 1484 3033 
Q 1800 3303 2022 3303 
Q 2513 3303 2697 2816 
Q 2869 3044 3106 3158 
Q 3344 3272 3650 3272 
Q 4172 3272 4363 2709 
Q 4400 2597 4491 1831 
Q 4578 1294 4716 41 
Q 4725 -84 4631 -171 
Q 4538 -259 4403 -259 
z
" transform="scale(0.015625)"/>
       <path id="ComicSansMS-6f" d="M 1606 -184 
Q 1081 -184 703 203 
Q 281 634 259 1363 
Q 241 2069 616 2606 
Q 1053 3241 1834 3241 
Q 2459 3241 2781 2669 
Q 3038 2206 3028 1556 
Q 3019 863 2666 372 
Q 2266 -184 1606 -184 
z
M 1794 2606 
Q 1334 2609 1078 2169 
Q 875 1816 875 1363 
Q 875 909 1122 656 
Q 1328 447 1606 447 
Q 1931 447 2166 684 
Q 2431 947 2447 1394 
Q 2491 2603 1794 2606 
z
" transform="scale(0.015625)"/>
       <path id="ComicSansMS-74" d="M 2525 2663 
Q 2459 2663 2370 2669 
Q 2281 2675 2216 2675 
Q 2144 2675 1791 2628 
L 1850 781 
L 1853 644 
L 1856 484 
Q 1869 -200 1528 -200 
Q 1403 -200 1311 -119 
Q 1219 -38 1219 84 
Q 1219 203 1228 440 
Q 1238 678 1238 797 
L 1175 2622 
Q 947 2631 481 2675 
Q 203 2713 203 2984 
Q 203 3122 287 3212 
Q 372 3303 503 3303 
L 1159 3250 
Q 1159 3409 1145 3676 
Q 1131 3944 1131 4063 
Q 1131 4194 1222 4280 
Q 1313 4366 1444 4366 
Q 1725 4366 1772 3906 
Q 1781 3791 1781 3628 
L 1775 3447 
L 1772 3253 
Q 2159 3303 2216 3303 
Q 2541 3303 2641 3272 
Q 2831 3209 2831 2978 
Q 2831 2841 2745 2752 
Q 2659 2663 2525 2663 
z
" transform="scale(0.015625)"/>
       <path id="ComicSansMS-68" d="M 3050 -194 
Q 2828 -194 2759 44 
Q 2688 300 2628 772 
Q 2572 1225 2572 1516 
Q 2572 1597 2580 1762 
Q 2588 1928 2588 2009 
Q 2588 2597 2294 2597 
Q 1897 2597 1584 2238 
Q 1425 2053 1147 1534 
Q 1147 344 1047 125 
Q 959 -69 775 -69 
Q 647 -69 550 18 
Q 453 106 453 231 
Q 453 275 481 369 
Q 506 447 516 825 
L 525 1288 
L 534 3584 
Q 556 3972 556 4106 
Q 556 4266 526 4408 
Q 497 4550 497 4703 
Q 497 4834 587 4920 
Q 678 5006 809 5006 
Q 1066 5006 1109 4731 
Q 1159 4428 1159 4184 
Q 1159 3856 1138 3500 
Q 1119 3159 1122 2816 
L 1125 2541 
Q 1381 2884 1673 3054 
Q 1966 3225 2294 3225 
Q 2813 3225 3006 2888 
Q 3144 2650 3163 2088 
L 3188 1491 
L 3250 841 
Q 3294 475 3356 197 
Q 3369 144 3369 106 
Q 3369 -22 3275 -108 
Q 3181 -194 3050 -194 
z
" transform="scale(0.015625)"/>
      </defs>
      <use xlink:href="#ComicSansMS-53"/>
      <use xlink:href="#ComicSansMS-6d" transform="translate(69.335938 0)"/>
      <use xlink:href="#ComicSansMS-6f" transform="translate(147.021484 0)"/>
      <use xlink:href="#ComicSansMS-6f" transform="translate(199.609375 0)"/>
      <use xlink:href="#ComicSansMS-74" transform="translate(252.197266 0)"/>
      <use xlink:href="#ComicSansMS-68" transform="translate(299.316406 0)"/>
      <use xlink:href="#ComicSansMS-65" transform="translate(357.080078 0)"/>
      <use xlink:href="#ComicSansMS-64" transform="translate(411.865234 0)"/>
      <use xlink:href="#ComicSansMS-20" transform="translate(470.605469 0)"/>
      <use xlink:href="#ComicSansMS-52" transform="translate(500.488281 0)"/>
      <use xlink:href="#ComicSansMS-65" transform="translate(563.330078 0)"/>
      <use xlink:href="#ComicSansMS-77" transform="translate(618.115234 0)"/>
      <use xlink:href="#ComicSansMS-61" transform="translate(686.523438 0)"/>
      <use xlink:href="#ComicSansMS-72" transform="translate(737.695312 0)"/>
      <use xlink:href="#ComicSansMS-64" transform="translate(785.742188 0)"/>
     </g>
    </g>
    <g id="line2d_25">
     <path d="M 69.23 94.418125 
L 80.23 94.418125 
L 91.23 94.418125 
" style="fill: none; stroke-dasharray: 7.4,3.2; stroke-dashoffset: 0; stroke: #74b9ff; stroke-opacity: 0.5; stroke-width: 2"/>
    </g>
    <g id="text_19">
     <!-- Raw Tool Call -->
     <g transform="translate(100.03 98.268125) scale(0.11 -0.11)">
      <defs>
       <path id="ComicSansMS-54" d="M 4256 3947 
Q 4025 3947 3544 3984 
Q 3075 4019 2831 4016 
L 2609 4016 
Q 2619 3584 2694 2616 
Q 2763 1713 2763 1213 
Q 2763 1103 2784 881 
Q 2806 659 2806 547 
Q 2806 334 2738 181 
Q 2650 -25 2466 -25 
Q 2341 -25 2241 62 
Q 2141 150 2141 288 
Q 2141 334 2156 428 
Q 2172 522 2172 569 
Q 2172 722 2151 1028 
Q 2131 1334 2131 1491 
Q 2131 1938 2059 2747 
Q 1984 3622 1975 4003 
L 1691 4000 
Q 1006 4000 616 4100 
Q 363 4166 363 4409 
Q 363 4538 444 4634 
Q 538 4744 684 4734 
Q 794 4728 1184 4678 
Q 1497 4641 1691 4641 
Q 1878 4641 2259 4648 
Q 2641 4656 2828 4656 
Q 3069 4656 3542 4622 
Q 4016 4588 4256 4588 
Q 4391 4588 4481 4495 
Q 4572 4403 4572 4266 
Q 4572 4131 4481 4039 
Q 4391 3947 4256 3947 
z
" transform="scale(0.015625)"/>
       <path id="ComicSansMS-6c" d="M 1228 2456 
L 1181 903 
Q 1181 656 1156 178 
Q 1125 -134 850 -134 
Q 544 -134 544 184 
Q 544 563 578 1320 
Q 613 2078 613 2456 
Q 613 2950 628 3586 
Q 644 4222 644 4716 
Q 644 5028 950 5028 
Q 1259 5028 1259 4716 
Q 1259 4222 1243 3586 
Q 1228 2950 1228 2456 
z
" transform="scale(0.015625)"/>
       <path id="ComicSansMS-43" d="M 3450 3506 
Q 3250 3506 3150 3741 
Q 3063 3941 2988 3984 
Q 2922 4019 2663 4019 
Q 2209 4019 1656 3325 
Q 906 2394 906 1559 
Q 906 1156 1166 866 
Q 1431 566 1806 566 
Q 2128 566 2453 731 
Q 2634 825 3009 1100 
Q 3188 1231 3278 1231 
Q 3413 1231 3503 1129 
Q 3594 1028 3594 903 
Q 3594 763 3475 656 
Q 2650 -75 1806 -75 
Q 1159 -75 713 422 
Q 281 903 281 1559 
Q 281 2619 1169 3731 
Q 1909 4659 2663 4659 
Q 2816 4659 2937 4645 
Q 3059 4631 3153 4600 
Q 3263 4759 3438 4759 
Q 3653 4759 3709 4475 
Q 3759 4222 3759 3853 
Q 3759 3725 3691 3628 
Q 3606 3506 3450 3506 
z
" transform="scale(0.015625)"/>
      </defs>
      <use xlink:href="#ComicSansMS-52"/>
      <use xlink:href="#ComicSansMS-61" transform="translate(62.841797 0)"/>
      <use xlink:href="#ComicSansMS-77" transform="translate(114.013672 0)"/>
      <use xlink:href="#ComicSansMS-20" transform="translate(182.421875 0)"/>
      <use xlink:href="#ComicSansMS-54" transform="translate(212.304688 0)"/>
      <use xlink:href="#ComicSansMS-6f" transform="translate(280.273438 0)"/>
      <use xlink:href="#ComicSansMS-6f" transform="translate(332.861328 0)"/>
      <use xlink:href="#ComicSansMS-6c" transform="translate(385.449219 0)"/>
      <use xlink:href="#ComicSansMS-20" transform="translate(412.841797 0)"/>
      <use xlink:href="#ComicSansMS-43" transform="translate(442.724609 0)"/>
      <use xlink:href="#ComicSansMS-61" transform="translate(502.978516 0)"/>
      <use xlink:href="#ComicSansMS-6c" transform="translate(554.150391 0)"/>
      <use xlink:href="#ComicSansMS-6c" transform="translate(581.542969 0)"/>
     </g>
    </g>
    <g id="line2d_26">
     <path d="M 69.23 111.68125 
L 80.23 111.68125 
L 91.23 111.68125 
" style="fill: none; stroke: #0984e3; stroke-opacity: 0.9; stroke-width: 3.5; stroke-linecap: square"/>
    </g>
    <g id="text_20">
     <!-- Smoothed Tool Call -->
     <g transform="translate(100.03 115.53125) scale(0.11 -0.11)">
      <use xlink:href="#ComicSansMS-53"/>
      <use xlink:href="#ComicSansMS-6d" transform="translate(69.335938 0)"/>
      <use xlink:href="#ComicSansMS-6f" transform="translate(147.021484 0)"/>
      <use xlink:href="#ComicSansMS-6f" transform="translate(199.609375 0)"/>
      <use xlink:href="#ComicSansMS-74" transform="translate(252.197266 0)"/>
      <use xlink:href="#ComicSansMS-68" transform="translate(299.316406 0)"/>
      <use xlink:href="#ComicSansMS-65" transform="translate(357.080078 0)"/>
      <use xlink:href="#ComicSansMS-64" transform="translate(411.865234 0)"/>
      <use xlink:href="#ComicSansMS-20" transform="translate(470.605469 0)"/>
      <use xlink:href="#ComicSansMS-54" transform="translate(500.488281 0)"/>
      <use xlink:href="#ComicSansMS-6f" transform="translate(568.457031 0)"/>
      <use xlink:href="#ComicSansMS-6f" transform="translate(621.044922 0)"/>
      <use xlink:href="#ComicSansMS-6c" transform="translate(673.632812 0)"/>
      <use xlink:href="#ComicSansMS-20" transform="translate(701.025391 0)"/>
      <use xlink:href="#ComicSansMS-43" transform="translate(730.908203 0)"/>
      <use xlink:href="#ComicSansMS-61" transform="translate(791.162109 0)"/>
      <use xlink:href="#ComicSansMS-6c" transform="translate(842.333984 0)"/>
      <use xlink:href="#ComicSansMS-6c" transform="translate(869.726562 0)"/>
     </g>
    </g>
   </g>
  </g>
  <g id="axes_2">
   <g id="matplotlib.axis_3">
    <g id="ytick_6">
     <g id="line2d_27">
      <defs>
       <path id="m9707a806c0" d="M 0 0 
L 3.5 0 
" style="stroke: #000000; stroke-width: 0.8"/>
      </defs>
      <g>
       <use xlink:href="#m9707a806c0" x="814.12" y="401.107966" style="stroke: #000000; stroke-width: 0.8"/>
      </g>
     </g>
     <g id="text_21">
      <!-- 10 -->
      <g style="fill: #0984e3" transform="translate(821.12 405.428904) scale(0.11 -0.11)">
       <use xlink:href="#ComicSansMS-31"/>
       <use xlink:href="#ComicSansMS-30" transform="translate(45.019531 0)"/>
      </g>
     </g>
    </g>
    <g id="ytick_7">
     <g id="line2d_28">
      <g>
       <use xlink:href="#m9707a806c0" x="814.12" y="345.429833" style="stroke: #000000; stroke-width: 0.8"/>
      </g>
     </g>
     <g id="text_22">
      <!-- 15 -->
      <g style="fill: #0984e3" transform="translate(821.12 349.750771) scale(0.11 -0.11)">
       <use xlink:href="#ComicSansMS-31"/>
       <use xlink:href="#ComicSansMS-35" transform="translate(45.019531 0)"/>
      </g>
     </g>
    </g>
    <g id="ytick_8">
     <g id="line2d_29">
      <g>
       <use xlink:href="#m9707a806c0" x="814.12" y="289.7517" style="stroke: #000000; stroke-width: 0.8"/>
      </g>
     </g>
     <g id="text_23">
      <!-- 20 -->
      <g style="fill: #0984e3" transform="translate(821.12 294.072637) scale(0.11 -0.11)">
       <use xlink:href="#ComicSansMS-32"/>
       <use xlink:href="#ComicSansMS-30" transform="translate(61.035156 0)"/>
      </g>
     </g>
    </g>
    <g id="ytick_9">
     <g id="line2d_30">
      <g>
       <use xlink:href="#m9707a806c0" x="814.12" y="234.073567" style="stroke: #000000; stroke-width: 0.8"/>
      </g>
     </g>
     <g id="text_24">
      <!-- 25 -->
      <g style="fill: #0984e3" transform="translate(821.12 238.394504) scale(0.11 -0.11)">
       <use xlink:href="#ComicSansMS-32"/>
       <use xlink:href="#ComicSansMS-35" transform="translate(61.035156 0)"/>
      </g>
     </g>
    </g>
    <g id="ytick_10">
     <g id="line2d_31">
      <g>
       <use xlink:href="#m9707a806c0" x="814.12" y="178.395434" style="stroke: #000000; stroke-width: 0.8"/>
      </g>
     </g>
     <g id="text_25">
      <!-- 30 -->
      <g style="fill: #0984e3" transform="translate(821.12 182.716371) scale(0.11 -0.11)">
       <use xlink:href="#ComicSansMS-33"/>
       <use xlink:href="#ComicSansMS-30" transform="translate(61.035156 0)"/>
      </g>
     </g>
    </g>
    <g id="ytick_11">
     <g id="line2d_32">
      <g>
       <use xlink:href="#m9707a806c0" x="814.12" y="122.717301" style="stroke: #000000; stroke-width: 0.8"/>
      </g>
     </g>
     <g id="text_26">
      <!-- 35 -->
      <g style="fill: #0984e3" transform="translate(821.12 127.038238) scale(0.11 -0.11)">
       <use xlink:href="#ComicSansMS-33"/>
       <use xlink:href="#ComicSansMS-35" transform="translate(61.035156 0)"/>
      </g>
     </g>
    </g>
    <g id="ytick_12">
     <g id="line2d_33">
      <g>
       <use xlink:href="#m9707a806c0" x="814.12" y="67.039168" style="stroke: #000000; stroke-width: 0.8"/>
      </g>
     </g>
     <g id="text_27">
      <!-- 40 -->
      <g style="fill: #0984e3" transform="translate(821.12 71.360105) scale(0.11 -0.11)">
       <use xlink:href="#ComicSansMS-34"/>
       <use xlink:href="#ComicSansMS-30" transform="translate(61.035156 0)"/>
      </g>
     </g>
    </g>
    <g id="text_28">
     <!-- # Tool Call (avg) -->
     <g style="fill: #0984e3" transform="translate(849.519375 308.3275) rotate(-90) scale(0.14 -0.14)">
      <defs>
       <path id="ComicSansMS-Bold-23" d="M 969 1966 
Q 1275 2725 1431 3172 
Q 1291 3169 1059 3172 
Q 775 3178 688 3178 
Q 513 3178 395 3284 
Q 278 3391 278 3559 
Q 278 3903 663 3944 
Q 1003 3953 1681 3975 
L 1888 4556 
Q 2063 4947 2253 4947 
Q 2666 4947 2666 4572 
Q 2666 4400 2522 3978 
L 3638 3978 
Q 3719 4294 3856 4722 
Q 3956 5034 4241 5034 
Q 4403 5034 4529 4928 
Q 4656 4822 4656 4659 
Q 4656 4566 4475 3984 
Q 4669 3994 4756 3994 
Q 5316 3994 5316 3600 
Q 5316 3309 5041 3222 
Q 4903 3178 4531 3178 
Q 4491 3178 4397 3181 
L 4263 3181 
Q 4128 2781 3859 1966 
L 4300 1966 
Q 4941 1966 4941 1550 
Q 4941 1388 4825 1291 
Q 4709 1194 4544 1194 
Q 4469 1194 4088 1191 
Q 3813 1188 3634 1191 
Q 3550 919 3388 306 
Q 3300 -69 2903 -69 
Q 2556 -69 2556 259 
Q 2556 413 2800 1194 
L 1522 1194 
Q 1253 553 1128 175 
Q 1047 -72 763 -72 
Q 603 -72 475 34 
Q 347 141 347 303 
Q 347 347 669 1194 
L 309 1194 
Q 134 1194 19 1338 
Q -84 1466 -84 1619 
Q -84 1934 266 1966 
Q 300 1969 969 1966 
z
M 2284 3178 
L 1828 1966 
L 3028 1966 
L 3416 3178 
L 2284 3178 
z
" transform="scale(0.015625)"/>
       <path id="ComicSansMS-Bold-20" transform="scale(0.015625)"/>
       <path id="ComicSansMS-Bold-54" d="M 4050 3747 
Q 3806 3747 3291 3781 
Q 2794 3816 2531 3813 
Q 2544 3456 2616 2544 
Q 2681 1738 2681 1269 
Q 2681 1163 2703 953 
Q 2725 744 2725 638 
Q 2725 403 2625 216 
Q 2497 -25 2259 -25 
Q 2088 -25 1956 84 
Q 1809 206 1809 391 
Q 1809 434 1825 523 
Q 1841 613 1841 659 
Q 1841 803 1820 1093 
Q 1800 1384 1800 1531 
Q 1800 1950 1734 2666 
Q 1659 3488 1647 3800 
L 1484 3800 
Q 788 3800 378 3900 
Q 31 3984 31 4309 
Q 31 4469 144 4597 
Q 275 4750 488 4734 
Q 597 4728 984 4681 
Q 1294 4647 1484 4647 
Q 1675 4647 2054 4653 
Q 2434 4659 2625 4659 
Q 2863 4659 3338 4626 
Q 3813 4594 4050 4594 
Q 4238 4594 4364 4472 
Q 4491 4350 4491 4172 
Q 4491 3994 4364 3870 
Q 4238 3747 4050 3747 
z
" transform="scale(0.015625)"/>
       <path id="ComicSansMS-Bold-6f" d="M 1606 -184 
Q 1028 -184 613 213 
Q 156 647 134 1372 
Q 113 2063 513 2603 
Q 988 3241 1834 3241 
Q 2459 3241 2828 2741 
Q 3159 2291 3159 1625 
Q 3159 900 2772 388 
Q 2338 -184 1606 -184 
z
M 1794 2416 
Q 1409 2419 1188 2066 
Q 1000 1769 1000 1372 
Q 1000 997 1213 797 
Q 1381 638 1606 638 
Q 1878 638 2078 822 
Q 2306 1038 2322 1406 
Q 2363 2413 1794 2416 
z
" transform="scale(0.015625)"/>
       <path id="ComicSansMS-Bold-6c" d="M 1281 459 
Q 1281 -134 850 -134 
Q 663 -134 541 -15 
Q 419 103 419 291 
L 419 4613 
Q 419 4794 550 4909 
Q 675 5016 859 5016 
Q 1044 5016 1162 4905 
Q 1281 4794 1281 4613 
L 1281 459 
z
" transform="scale(0.015625)"/>
       <path id="ComicSansMS-Bold-43" d="M 3450 3328 
Q 3169 3328 3034 3625 
Q 2972 3766 2909 3794 
Q 2863 3816 2663 3816 
Q 2269 3816 1753 3203 
Q 1031 2347 1031 1600 
Q 1031 1259 1259 1015 
Q 1488 772 1806 772 
Q 2116 772 2434 934 
Q 2547 994 2909 1241 
Q 3153 1403 3278 1403 
Q 3466 1403 3597 1266 
Q 3719 1138 3719 972 
Q 3719 788 3556 650 
Q 2697 -75 1806 -75 
Q 1103 -75 619 438 
Q 156 931 156 1600 
Q 156 2647 1072 3738 
Q 1850 4663 2663 4663 
Q 2800 4663 2911 4653 
Q 3022 4644 3106 4625 
Q 3244 4759 3438 4759 
Q 3756 4759 3831 4394 
Q 3884 4131 3884 3781 
Q 3884 3625 3794 3497 
Q 3675 3328 3450 3328 
z
" transform="scale(0.015625)"/>
       <path id="ComicSansMS-Bold-28" d="M 2078 4222 
Q 1969 4116 1797 3947 
Q 1472 3591 1281 2919 
Q 1113 2322 1113 1747 
Q 1113 1094 1269 544 
Q 1475 -188 1913 -488 
Q 2306 -763 2306 -975 
Q 2306 -1131 2182 -1240 
Q 2059 -1350 1903 -1350 
Q 1775 -1350 1616 -1266 
Q 222 -519 222 1816 
Q 222 2653 572 3509 
Q 969 4475 1619 4913 
Q 1781 5019 1894 5019 
Q 2066 5019 2186 4895 
Q 2306 4772 2306 4613 
Q 2306 4456 2078 4222 
z
" transform="scale(0.015625)"/>
       <path id="ComicSansMS-Bold-76" d="M 1997 231 
Q 1981 75 1868 -25 
Q 1756 -125 1591 -125 
Q 1275 -125 1144 200 
Q 806 1044 109 2719 
Q 69 2813 69 2897 
Q 69 3066 205 3183 
Q 341 3300 516 3300 
Q 784 3300 900 3053 
Q 1078 2675 1594 1284 
Q 1759 1638 2050 2359 
Q 2138 2600 2322 3031 
Q 2450 3281 2709 3281 
Q 2884 3281 3020 3165 
Q 3156 3050 3156 2878 
Q 3156 2766 2650 1641 
Q 2238 722 1997 231 
z
" transform="scale(0.015625)"/>
       <path id="ComicSansMS-Bold-67" d="M 3216 1863 
Q 3084 1128 3059 313 
Q 3028 -697 2722 -1153 
Q 2313 -1763 1272 -1763 
Q 56 -1763 56 -1281 
Q 56 -1109 165 -1003 
Q 275 -897 453 -897 
Q 594 -897 856 -950 
Q 1119 -1003 1322 -1003 
Q 1788 -1003 2009 -719 
Q 2222 -441 2259 166 
Q 2100 3 1900 -78 
Q 1700 -159 1463 -159 
Q 841 -159 452 245 
Q 63 650 63 1281 
Q 63 2131 581 2656 
Q 1119 3200 2034 3200 
Q 2328 3200 2540 3128 
Q 2753 3056 2884 2909 
Q 3281 2863 3281 2441 
Q 3281 2231 3216 1863 
z
M 2003 2488 
Q 1475 2488 1181 2141 
Q 919 1825 919 1322 
Q 919 950 1059 762 
Q 1200 575 1481 575 
Q 1738 575 1997 872 
Q 2241 1153 2275 1428 
Q 2334 1728 2413 2363 
Q 2306 2425 2203 2456 
Q 2100 2488 2003 2488 
z
" transform="scale(0.015625)"/>
       <path id="ComicSansMS-Bold-29" d="M 916 -1266 
Q 756 -1350 628 -1350 
Q 469 -1350 347 -1240 
Q 225 -1131 225 -975 
Q 225 -788 413 -638 
Q 575 -519 734 -397 
Q 1419 275 1419 1747 
Q 1419 2322 1250 2919 
Q 1059 3591 734 3947 
Q 578 4100 422 4253 
Q 222 4469 222 4613 
Q 222 4772 344 4895 
Q 466 5019 634 5019 
Q 750 5019 909 4913 
Q 1563 4475 1956 3509 
Q 2306 2653 2306 1816 
Q 2306 -519 916 -1266 
z
" transform="scale(0.015625)"/>
      </defs>
      <use xlink:href="#ComicSansMS-Bold-23"/>
      <use xlink:href="#ComicSansMS-Bold-20" transform="translate(84.277344 0)"/>
      <use xlink:href="#ComicSansMS-Bold-54" transform="translate(127.636719 0)"/>
      <use xlink:href="#ComicSansMS-Bold-6f" transform="translate(197.216797 0)"/>
      <use xlink:href="#ComicSansMS-Bold-6f" transform="translate(249.804688 0)"/>
      <use xlink:href="#ComicSansMS-Bold-6c" transform="translate(302.392578 0)"/>
      <use xlink:href="#ComicSansMS-Bold-20" transform="translate(329.785156 0)"/>
      <use xlink:href="#ComicSansMS-Bold-43" transform="translate(373.144531 0)"/>
      <use xlink:href="#ComicSansMS-Bold-61" transform="translate(435.009766 0)"/>
      <use xlink:href="#ComicSansMS-Bold-6c" transform="translate(490.576172 0)"/>
      <use xlink:href="#ComicSansMS-Bold-6c" transform="translate(517.96875 0)"/>
      <use xlink:href="#ComicSansMS-Bold-20" transform="translate(545.361328 0)"/>
      <use xlink:href="#ComicSansMS-Bold-28" transform="translate(588.720703 0)"/>
      <use xlink:href="#ComicSansMS-Bold-61" transform="translate(625.341797 0)"/>
      <use xlink:href="#ComicSansMS-Bold-76" transform="translate(680.908203 0)"/>
      <use xlink:href="#ComicSansMS-Bold-67" transform="translate(729.541016 0)"/>
      <use xlink:href="#ComicSansMS-Bold-29" transform="translate(782.617188 0)"/>
     </g>
    </g>
   </g>
   <g id="line2d_34">
    <path d="M 93.638636 431.498947 
L 102.435723 437.849734 
L 111.232809 433.296887 
L 120.029895 431.99193 
L 128.826981 431.585944 
L 137.624068 429.846002 
L 146.421154 429.933 
L 155.21824 438.052727 
L 164.015326 430.773971 
L 172.812413 421.697276 
L 181.609499 425.583145 
L 190.406585 427.497081 
L 199.203671 417.144428 
L 208.000758 406.414788 
L 216.797844 384.520522 
L 225.59493 390.987305 
L 234.392016 401.745945 
L 243.189103 390.233331 
L 251.986189 406.298792 
L 260.783275 398.092067 
L 269.580361 400.150998 
L 278.377448 396.874108 
L 287.174534 389.624351 
L 295.97162 393.046236 
L 304.768706 391.393292 
L 313.565793 401.60095 
L 322.362879 376.284798 
L 331.159965 386.057471 
L 339.957051 379.706684 
L 348.754138 390.697315 
L 357.551224 389.189366 
L 366.34831 381.707617 
L 375.145396 379.416693 
L 383.942483 386.405459 
L 392.739569 378.662719 
L 401.536655 368.513059 
L 410.333741 374.805848 
L 419.130828 358.218404 
L 427.927914 373.036907 
L 436.725 375.03784 
L 445.522086 356.56546 
L 454.319172 379.735683 
L 463.116259 365.323166 
L 471.913345 346.531796 
L 480.710431 347.662758 
L 489.507517 322.404605 
L 498.304604 330.61133 
L 507.10169 342.384935 
L 515.898776 354.129541 
L 524.695862 316.372807 
L 533.492949 278.297084 
L 542.290035 293.579572 
L 551.087121 268.524412 
L 559.884207 262.8986 
L 568.681294 236.480486 
L 577.47838 232.739612 
L 586.275466 240.772342 
L 595.072552 252.806939 
L 603.869639 224.271896 
L 612.666725 190.604024 
L 621.463811 141.566669 
L 630.260897 150.556367 
L 639.057984 166.041848 
L 647.85507 183.528262 
L 656.652156 260.752672 
L 665.449242 265.276521 
L 674.246329 253.995899 
L 683.043415 240.598348 
L 691.840501 205.248533 
L 700.637587 105.75287 
L 709.434674 132.692966 
L 718.23176 154.790225 
L 727.028846 147.888457 
L 735.825932 116.395513 
L 744.623019 96.386184 
L 753.420105 69.823074 
L 762.217191 63.907273 
L 771.014277 93.254289 
L 779.811364 71.679012 
" clip-path="url(#pa608fb37dd)" style="fill: none; stroke-dasharray: 7.4,3.2; stroke-dashoffset: 0; stroke: #74b9ff; stroke-opacity: 0.5; stroke-width: 2"/>
   </g>
   <g id="line2d_35">
    <path d="M 93.638636 431.498947 
L 102.435723 434.674341 
L 111.232809 434.215189 
L 120.029895 433.659375 
L 128.826981 433.244688 
L 137.624068 432.678241 
L 146.421154 432.286063 
L 155.21824 433.006896 
L 164.015326 432.916275 
L 172.812413 430.897217 
L 181.609499 429.933 
L 190.406585 429.371143 
L 199.203671 427.565954 
L 208.000758 424.637052 
L 216.797844 418.960492 
L 225.59493 413.077315 
L 234.392016 409.448811 
L 243.189103 405.515818 
L 251.986189 403.105274 
L 260.783275 399.429647 
L 269.580361 397.305469 
L 278.377448 396.112884 
L 287.174534 396.750862 
L 295.97162 397.008229 
L 304.768706 395.714147 
L 313.565793 397.135099 
L 322.362879 393.38335 
L 331.159965 391.879026 
L 339.957051 389.323486 
L 348.754138 388.551387 
L 357.551224 388.497014 
L 366.34831 387.079686 
L 375.145396 385.582612 
L 383.942483 383.683175 
L 392.739569 383.980415 
L 401.536655 381.787364 
L 410.333741 381.174759 
L 419.130828 377.114896 
L 427.927914 375.095838 
L 436.725 374.262116 
L 445.522086 371.405712 
L 454.319172 370.57199 
L 463.116259 368.904546 
L 471.913345 366.156888 
L 480.710431 362.764002 
L 489.507517 358.287277 
L 498.304604 352.98408 
L 507.10169 348.902467 
L 515.898776 348.597977 
L 524.695862 340.677617 
L 533.492949 329.799357 
L 542.290035 323.180329 
L 551.087121 313.288036 
L 559.884207 305.849785 
L 568.681294 294.08343 
L 577.47838 280.377764 
L 586.275466 266.208114 
L 595.072552 258.262381 
L 603.869639 251.509232 
L 612.666725 238.637289 
L 621.463811 222.767571 
L 630.260897 208.724792 
L 639.057984 199.919962 
L 647.85507 193.768543 
L 656.652156 196.266085 
L 665.449242 197.824782 
L 674.246329 201.540283 
L 683.043415 207.789573 
L 691.840501 215.749806 
L 700.637587 210.149369 
L 709.434674 205.980759 
L 718.23176 202.388504 
L 727.028846 188.280477 
L 735.825932 169.670351 
L 744.623019 149.969137 
L 753.420105 128.622228 
L 762.217191 110.95457 
L 771.014277 109.392248 
L 779.811364 101.765503 
" clip-path="url(#pa608fb37dd)" style="fill: none; stroke: #0984e3; stroke-opacity: 0.9; stroke-width: 3.5; stroke-linecap: square"/>
   </g>
   <g id="line2d_36">
    <path d="M 93.638636 431.498947 
L 102.435723 434.674341 
L 111.232809 434.215189 
L 120.029895 433.659375 
L 128.826981 433.244688 
L 137.624068 432.678241 
L 146.421154 432.286063 
L 155.21824 433.006896 
L 164.015326 432.916275 
L 172.812413 430.897217 
L 181.609499 429.933 
L 190.406585 429.371143 
L 199.203671 427.565954 
L 208.000758 424.637052 
L 216.797844 418.960492 
L 225.59493 413.077315 
L 234.392016 409.448811 
L 243.189103 405.515818 
L 251.986189 403.105274 
L 260.783275 399.429647 
L 269.580361 397.305469 
L 278.377448 396.112884 
L 287.174534 396.750862 
L 295.97162 397.008229 
L 304.768706 395.714147 
L 313.565793 397.135099 
L 322.362879 393.38335 
L 331.159965 391.879026 
L 339.957051 389.323486 
L 348.754138 388.551387 
L 357.551224 388.497014 
L 366.34831 387.079686 
L 375.145396 385.582612 
L 383.942483 383.683175 
L 392.739569 383.980415 
L 401.536655 381.787364 
L 410.333741 381.174759 
L 419.130828 377.114896 
L 427.927914 375.095838 
L 436.725 374.262116 
L 445.522086 371.405712 
L 454.319172 370.57199 
L 463.116259 368.904546 
L 471.913345 366.156888 
L 480.710431 362.764002 
L 489.507517 358.287277 
L 498.304604 352.98408 
L 507.10169 348.902467 
L 515.898776 348.597977 
L 524.695862 340.677617 
L 533.492949 329.799357 
L 542.290035 323.180329 
L 551.087121 313.288036 
L 559.884207 305.849785 
L 568.681294 294.08343 
L 577.47838 280.377764 
L 586.275466 266.208114 
L 595.072552 258.262381 
L 603.869639 251.509232 
L 612.666725 238.637289 
L 621.463811 222.767571 
L 630.260897 208.724792 
L 639.057984 199.919962 
L 647.85507 193.768543 
L 656.652156 196.266085 
L 665.449242 197.824782 
L 674.246329 201.540283 
L 683.043415 207.789573 
L 691.840501 215.749806 
L 700.637587 210.149369 
L 709.434674 205.980759 
L 718.23176 202.388504 
L 727.028846 188.280477 
L 735.825932 169.670351 
L 744.623019 149.969137 
L 753.420105 128.622228 
L 762.217191 110.95457 
L 771.014277 109.392248 
L 779.811364 101.765503 
" clip-path="url(#pa608fb37dd)" style="fill: none; stroke: #74b9ff; stroke-width: 1.5; stroke-linecap: square"/>
   </g>
   <g id="patch_6">
    <path d="M 814.12 456.76 
L 814.12 45.2 
" style="fill: none; stroke: #0984e3; stroke-width: 2; stroke-linejoin: miter; stroke-linecap: square"/>
   </g>
   <g id="patch_7">
    <path d="M 59.33 456.76 
L 814.12 456.76 
" style="fill: none; stroke: #000000; stroke-width: 0.8; stroke-linejoin: miter; stroke-linecap: square"/>
   </g>
   <g id="text_29">
    <!-- Training Reward &amp; # Tool Calls v.s. Step -->
    <g transform="translate(254.577656 25.2) scale(0.18 -0.18)">
     <defs>
      <path id="ComicSansMS-Bold-69" d="M 1031 3756 
Q 831 3756 684 3890 
Q 538 4025 538 4219 
Q 538 4413 684 4547 
Q 831 4681 1031 4681 
Q 1231 4681 1376 4547 
Q 1522 4413 1522 4219 
Q 1522 4025 1376 3890 
Q 1231 3756 1031 3756 
z
M 1297 1466 
Q 1297 1288 1308 894 
Q 1319 500 1319 322 
Q 1319 141 1197 23 
Q 1075 -94 888 -94 
Q 700 -94 578 23 
Q 456 141 456 322 
Q 456 500 445 894 
Q 434 1288 434 1466 
Q 434 1744 465 2162 
Q 497 2581 497 2859 
Q 497 3041 619 3158 
Q 741 3275 928 3275 
Q 1116 3275 1237 3158 
Q 1359 3041 1359 2859 
Q 1359 2581 1328 2162 
Q 1297 1744 1297 1466 
z
" transform="scale(0.015625)"/>
      <path id="ComicSansMS-Bold-6e" d="M 2781 -222 
Q 2397 -222 2353 156 
Q 2309 478 2266 803 
Q 2219 1147 2219 1450 
Q 2219 1531 2230 1728 
Q 2241 1925 2241 2006 
Q 2241 2028 2247 2117 
Q 2253 2206 2253 2263 
Q 2253 2522 2119 2522 
Q 1831 2522 1554 2186 
Q 1278 1850 1122 1334 
Q 1116 1231 1094 1059 
Q 1075 919 1075 784 
Q 1075 697 1095 520 
Q 1116 344 1116 256 
Q 1116 78 992 -39 
Q 869 -156 681 -156 
Q 494 -156 372 -39 
Q 250 78 250 256 
Q 250 344 231 520 
Q 213 697 213 784 
Q 213 1084 256 1618 
Q 300 2153 300 2453 
Q 300 2547 289 2733 
Q 278 2919 278 3009 
Q 278 3184 404 3298 
Q 531 3413 716 3413 
Q 1125 3413 1153 2922 
L 1156 2888 
Q 1613 3347 2119 3347 
Q 2709 3347 2934 2853 
Q 3084 2522 3084 1863 
L 3084 1641 
Q 3081 1497 3081 1438 
Q 3081 1194 3148 809 
Q 3216 425 3216 184 
Q 3216 9 3091 -106 
Q 2966 -222 2781 -222 
z
" transform="scale(0.015625)"/>
      <path id="ComicSansMS-Bold-26" d="M 3672 -294 
Q 3463 -294 3325 -88 
Q 3231 69 3044 384 
Q 2416 -131 1666 -131 
Q 1038 -131 588 241 
Q 109 631 109 1234 
Q 109 1816 578 2244 
Q 728 2384 1559 2916 
Q 1378 3416 1378 3794 
Q 1378 4131 1666 4494 
Q 1975 4888 2344 4888 
Q 2769 4888 3041 4616 
Q 3300 4356 3300 3981 
Q 3300 3256 2556 2697 
Q 2775 2253 3038 1844 
L 3141 2334 
Q 3247 2631 3497 2631 
Q 3681 2631 3794 2459 
Q 3891 2313 3891 2131 
Q 3891 1550 3584 1016 
Q 4088 272 4088 84 
Q 4088 -78 3959 -186 
Q 3831 -294 3672 -294 
z
M 2344 4116 
Q 2256 4106 2200 3994 
Q 2153 3897 2153 3797 
Q 2153 3753 2213 3556 
Q 2278 3338 2281 3316 
Q 2384 3419 2481 3581 
Q 2591 3763 2591 3866 
Q 2591 4006 2556 4056 
Q 2503 4131 2344 4116 
z
M 1913 2250 
Q 1588 2044 1266 1838 
Q 916 1563 916 1234 
Q 916 969 1141 800 
Q 1356 638 1666 638 
Q 2191 638 2597 1038 
Q 2406 1322 1913 2250 
z
" transform="scale(0.015625)"/>
      <path id="ComicSansMS-Bold-73" d="M 2519 2288 
Q 2209 2288 2147 2547 
Q 2022 2569 1891 2569 
Q 1138 2569 1138 2363 
Q 1138 2241 1591 2034 
Q 2209 1750 2428 1591 
Q 2881 1263 2881 850 
Q 2881 313 2381 34 
Q 1978 -188 1391 -188 
Q 975 -188 631 -59 
Q 163 116 163 456 
Q 163 769 534 769 
Q 678 769 950 678 
Q 1222 588 1369 588 
Q 2003 588 2006 844 
Q 2006 1003 1566 1197 
Q 922 1481 741 1606 
Q 300 1916 300 2359 
Q 300 2988 966 3206 
Q 1356 3334 2153 3334 
Q 2466 3334 2616 3253 
Q 2822 3144 2822 2850 
Q 2822 2288 2519 2288 
z
" transform="scale(0.015625)"/>
      <path id="ComicSansMS-Bold-2e" d="M 1378 -325 
Q 1169 -325 1016 -195 
Q 863 -66 863 97 
Q 863 263 1016 395 
Q 1169 528 1378 528 
Q 1600 528 1744 403 
Q 1888 278 1888 97 
Q 1888 -69 1738 -197 
Q 1588 -325 1378 -325 
z
" transform="scale(0.015625)"/>
     </defs>
     <use xlink:href="#ComicSansMS-Bold-54"/>
     <use xlink:href="#ComicSansMS-Bold-72" transform="translate(69.580078 0)"/>
     <use xlink:href="#ComicSansMS-Bold-61" transform="translate(117.626953 0)"/>
     <use xlink:href="#ComicSansMS-Bold-69" transform="translate(173.193359 0)"/>
     <use xlink:href="#ComicSansMS-Bold-6e" transform="translate(201.220703 0)"/>
     <use xlink:href="#ComicSansMS-Bold-69" transform="translate(253.564453 0)"/>
     <use xlink:href="#ComicSansMS-Bold-6e" transform="translate(281.591797 0)"/>
     <use xlink:href="#ComicSansMS-Bold-67" transform="translate(333.935547 0)"/>
     <use xlink:href="#ComicSansMS-Bold-20" transform="translate(387.011719 0)"/>
     <use xlink:href="#ComicSansMS-Bold-52" transform="translate(430.371094 0)"/>
     <use xlink:href="#ComicSansMS-Bold-65" transform="translate(494.384766 0)"/>
     <use xlink:href="#ComicSansMS-Bold-77" transform="translate(550.292969 0)"/>
     <use xlink:href="#ComicSansMS-Bold-61" transform="translate(618.701172 0)"/>
     <use xlink:href="#ComicSansMS-Bold-72" transform="translate(674.267578 0)"/>
     <use xlink:href="#ComicSansMS-Bold-64" transform="translate(722.314453 0)"/>
     <use xlink:href="#ComicSansMS-Bold-20" transform="translate(781.054688 0)"/>
     <use xlink:href="#ComicSansMS-Bold-26" transform="translate(824.414062 0)"/>
     <use xlink:href="#ComicSansMS-Bold-20" transform="translate(889.84375 0)"/>
     <use xlink:href="#ComicSansMS-Bold-23" transform="translate(933.203125 0)"/>
     <use xlink:href="#ComicSansMS-Bold-20" transform="translate(1017.480469 0)"/>
     <use xlink:href="#ComicSansMS-Bold-54" transform="translate(1060.839844 0)"/>
     <use xlink:href="#ComicSansMS-Bold-6f" transform="translate(1130.419922 0)"/>
     <use xlink:href="#ComicSansMS-Bold-6f" transform="translate(1183.007812 0)"/>
     <use xlink:href="#ComicSansMS-Bold-6c" transform="translate(1235.595703 0)"/>
     <use xlink:href="#ComicSansMS-Bold-20" transform="translate(1262.988281 0)"/>
     <use xlink:href="#ComicSansMS-Bold-43" transform="translate(1306.347656 0)"/>
     <use xlink:href="#ComicSansMS-Bold-61" transform="translate(1368.212891 0)"/>
     <use xlink:href="#ComicSansMS-Bold-6c" transform="translate(1423.779297 0)"/>
     <use xlink:href="#ComicSansMS-Bold-6c" transform="translate(1451.171875 0)"/>
     <use xlink:href="#ComicSansMS-Bold-73" transform="translate(1478.564453 0)"/>
     <use xlink:href="#ComicSansMS-Bold-20" transform="translate(1527.246094 0)"/>
     <use xlink:href="#ComicSansMS-Bold-76" transform="translate(1570.605469 0)"/>
     <use xlink:href="#ComicSansMS-Bold-2e" transform="translate(1619.238281 0)"/>
     <use xlink:href="#ComicSansMS-Bold-73" transform="translate(1662.597656 0)"/>
     <use xlink:href="#ComicSansMS-Bold-2e" transform="translate(1711.279297 0)"/>
     <use xlink:href="#ComicSansMS-Bold-20" transform="translate(1754.638672 0)"/>
     <use xlink:href="#ComicSansMS-Bold-53" transform="translate(1797.998047 0)"/>
     <use xlink:href="#ComicSansMS-Bold-74" transform="translate(1867.333984 0)"/>
     <use xlink:href="#ComicSansMS-Bold-65" transform="translate(1914.453125 0)"/>
     <use xlink:href="#ComicSansMS-Bold-70" transform="translate(1970.361328 0)"/>
    </g>
   </g>
  </g>
 </g>
 <defs>
  <clipPath id="pa608fb37dd">
   <rect x="59.33" y="45.2" width="754.79" height="411.56"/>
  </clipPath>
 </defs>
</svg>
